<?xml version="1.0" encoding="utf-8"?>
<!-- Generator: Adobe Illustrator 18.0.0, SVG Export Plug-In . SVG Version: 6.00 Build 0)  -->
<!DOCTYPE svg PUBLIC "-//W3C//DTD SVG 1.1//EN" "http://www.w3.org/Graphics/SVG/1.1/DTD/svg11.dtd">
<svg version="1.1" id="Слой_1" xmlns="http://www.w3.org/2000/svg" xmlns:xlink="http://www.w3.org/1999/xlink" x="0px" y="0px"
	 viewBox="-0.4 189 236.6 214.1" style="enable-background:new -0.4 189 236.6 214.1;" xml:space="preserve">
<style type="text/css">
	.st0{fill:#FFFFFF;}
</style>
<g>
	<g>
		<path class="st0" d="M235,286.4c-10.1-17-23.2-31.7-38.7-42.5c-3.9-2.3-8.5-1.5-10.8,1.5c-2.3,3.9-1.5,8.5,1.5,10.8
			c12.4,9.3,24,20.9,31.7,34c-21.6,34.8-60.3,55.7-100.5,55.7c-4.6,0-7.7,3.9-7.7,7.7c0,4.6,3.9,7.7,7.7,7.7
			c47.9,0,92.8-25.5,116.7-67.3C236.6,291.8,236.6,288.7,235,286.4L235,286.4z"/>
		<path class="st0" d="M118.3,337.5c26.3,0,47.2-20.9,47.2-47.2c0-3.1,0-7-0.8-10.1c-0.8-4.6-5.4-7-9.3-6.2c-4.6,0.8-7,5.4-6.2,9.3
			c0.8,2.3,0.8,4.6,0.8,7c0,17-13.9,30.9-30.9,30.9c-5.4,0-10.8-1.5-15.5-4.6l112.9-114.4c3.1-3.1,3.1-7.7,0-10.8
			c-3.1-3.1-7.7-3.1-10.8,0L91.2,305.8c-3.1-4.6-4.6-10.1-4.6-15.5c0-17,13.9-30.9,30.9-30.9c2.3,0,4.6,0,7,0.8
			c4.6,0.8,8.5-1.5,9.3-6.2c0.8-4.6-1.5-8.5-6.2-9.3c-2.3-0.8-6.2-1.5-9.3-1.5c-26.3,0-47.2,20.9-47.2,47.2
			c0,10.1,3.1,19.3,8.5,27.1l-15.5,15.5c-19.3-10.1-35.6-24.7-47.2-42.5c21.6-34.8,60.3-55.7,101.3-55.7c8.5,0,17,0.8,24.7,2.3
			c4.6,0.8,8.5-1.5,9.3-6.2c0.8-4.6-1.5-8.5-6.2-9.3c-9.3-2.3-18.6-3.1-28.6-3.1c-47.9,0-92.8,25.5-116.7,67.3
			c-1.5,2.3-1.5,5.4,0,7.7c12.4,21.6,30.2,38.7,51,50.3L5.4,390c-3.1,3.1-3.1,7.7,0,10.8c1.5,1.5,3.9,2.3,5.4,2.3
			c2.3,0,3.9-0.8,5.4-2.3l73.4-73.4C98.2,334.4,108.2,337.5,118.3,337.5L118.3,337.5z"/>
	</g>
</g>
</svg>
