<?xml version="1.0" encoding="UTF-8" standalone="no"?>
<!-- Generator: Adobe Illustrator 18.0.0, SVG Export Plug-In . SVG Version: 6.00 Build 0)  -->

<svg
   xmlns:dc="http://purl.org/dc/elements/1.1/"
   xmlns:cc="http://creativecommons.org/ns#"
   xmlns:rdf="http://www.w3.org/1999/02/22-rdf-syntax-ns#"
   xmlns:svg="http://www.w3.org/2000/svg"
   xmlns="http://www.w3.org/2000/svg"
   xmlns:xlink="http://www.w3.org/1999/xlink"
   xmlns:sodipodi="http://sodipodi.sourceforge.net/DTD/sodipodi-0.dtd"
   xmlns:inkscape="http://www.inkscape.org/namespaces/inkscape"
   version="1.1"
   id="Слой_1"
   x="0px"
   y="0px"
   viewBox="0 0 595.3 841.9"
   enable-background="new 0 0 595.3 841.9"
   xml:space="preserve"
   inkscape:version="0.91 r13725"
   sodipodi:docname="login_1.svg"><metadata
     id="metadata3447"><rdf:RDF><cc:Work
         rdf:about=""><dc:format>image/svg+xml</dc:format><dc:type
           rdf:resource="http://purl.org/dc/dcmitype/StillImage" /><dc:title></dc:title></cc:Work></rdf:RDF></metadata><defs
     id="defs3445" /><sodipodi:namedview
     pagecolor="#33a5b1"
     bordercolor="#666666"
     borderopacity="1"
     objecttolerance="10"
     gridtolerance="10"
     guidetolerance="10"
     inkscape:pageopacity="0"
     inkscape:pageshadow="2"
     inkscape:window-width="1600"
     inkscape:window-height="837"
     id="namedview3443"
     showgrid="false"
     inkscape:zoom="0.28031832"
     inkscape:cx="297.64999"
     inkscape:cy="420.95001"
     inkscape:window-x="-8"
     inkscape:window-y="-8"
     inkscape:window-maximized="1"
     inkscape:current-layer="Слой_1" /><g
     id="g3431"
     transform="matrix(3.2779389,0,0,3.2779389,-678.59981,-970.11593)"><g
       id="g3433"><defs
         id="defs3435"><rect
           id="SVGID_1_"
           x="214.89999"
           y="312.60001"
           width="166.10001"
           height="218.60001" /></defs><clipPath
         id="SVGID_2_"><use
           xlink:href="#SVGID_1_"
           overflow="visible"
           id="use3439"
           style="overflow:visible"
           x="0"
           y="0"
           width="100%"
           height="100%" /></clipPath><path
         clip-path="url(#SVGID_2_)"
         d="m 340.1,425.9 -8.8,0 c 17,-11 28.2,-30.1 28.2,-51.7 0,-34 -27.6,-61.6 -61.6,-61.6 -34,0 -61.6,27.6 -61.6,61.6 0,21.7 11.3,40.8 28.2,51.7 l -8.8,0 c -22.6,0 -40.9,18.4 -40.9,40.9 l 0,57.2 c 0,3.8 3,6.8 6.8,6.8 l 152.5,0 c 3.8,0 6.8,-3.1 6.8,-6.8 l 0,-57.2 c 0.2,-22.5 -18.2,-40.9 -40.8,-40.9 l 0,0 z M 250,374.2 c 0,-26.4 21.5,-48 48,-48 26.5,0 48,21.5 48,48 0,26.4 -21.5,48 -48,48 -26.5,0 -48,-21.6 -48,-48 l 0,0 z m 67.9,58.3 -19.9,19.9 -19.9,-19.9 c 6.3,2.1 13,3.3 19.9,3.3 7,0 13.7,-1.2 19.9,-3.3 l 0,0 z m 49.5,84.7 -18.5,0 0,-32.7 c 0,-3.8 -3,-6.8 -6.8,-6.8 -3.8,0 -6.8,3.1 -6.8,6.8 l 0,32.7 -74.6,0 0,-32.7 c 0,-3.8 -3,-6.8 -6.8,-6.8 -3.8,0 -6.8,3.1 -6.8,6.8 l 0,32.7 -18.5,0 0,-50.4 c 0,-15.1 12.3,-27.3 27.3,-27.3 l 10,0 27.3,27.3 c 1.3,1.3 3.1,2 4.8,2 1.7,0 3.5,-0.7 4.8,-2 l 27.3,-27.3 10,0 c 15.1,0 27.3,12.3 27.3,27.3 l 0,50.4 z m 0,0"
         id="path3441"
         inkscape:connector-curvature="0"
         style="fill:#ffffff" /></g></g></svg>