<?xml version="1.0" encoding="utf-8"?>
<!-- Generator: Adobe Illustrator 18.0.0, SVG Export Plug-In . SVG Version: 6.00 Build 0)  -->
<!DOCTYPE svg PUBLIC "-//W3C//DTD SVG 1.1//EN" "http://www.w3.org/Graphics/SVG/1.1/DTD/svg11.dtd">
<svg version="1.1" id="Слой_1" xmlns="http://www.w3.org/2000/svg" xmlns:xlink="http://www.w3.org/1999/xlink" x="0px" y="0px"
	 viewBox="0 0 595.3 841.9" enable-background="new 0 0 595.3 841.9" xml:space="preserve">
<rect id="rect3427" x="386.5" y="467.3" fill="#33A5B1" width="177.8" height="85"/>
<g id="g3760" transform="translate(-298,-477.5)">
</g>
<g>
	<polygon fill="#323232" points="46.4,652.9 301.5,652.9 301.5,637.4 46.4,637.4 	"/>
	<path fill="#323232" d="M490.1,442.6c-4.6,0-7.7,3.9-7.7,7.7c0,4.6-3.1,7.7-7.7,7.7c-4.6,0-7.7-3.9-7.7-7.7c0-4.6,0-6.2,3.9-10.1
		c3.9-3.9,7.7-10.1,7.7-20.9V305l-46.4-38.7H208.7V189H116v77.3H38.7v92.8h23.2v15.5H38.7V390h23.2v15.5H38.7v15.5h61.8v-15.5H77.3
		V390h23.2v-15.5H77.3v-15.5H116v224.2v23.2H54.1v15.5h239.7v-15.5h-85V359.1h224.2l30.9-30.9v91.2c0,4.6,0,6.2-3.9,10.1
		s-9.3,10.1-9.3,20.9c0,12.4,10.8,23.2,23.2,23.2c12.4,0,23.2-10.1,23.2-23.2C497.9,445.7,494.8,442.6,490.1,442.6z M131.4,204.5
		h48.7l-48.7,50.3V204.5z M193.3,215.3v51h-52.6L193.3,215.3z M131.4,281.8h48.7L131.4,332V281.8z M193.3,291.8v51.8h-52.6
		L193.3,291.8z M131.4,359.1h48.7l-48.7,49.5V359.1z M193.3,369.1v51.8h-52.6L193.3,369.1z M131.4,436.4h48.7l-48.7,48.7V436.4z
		 M193.3,445.7v52.6h-52.6L193.3,445.7z M131.4,513.7h48.7l-48.7,48.7V513.7z M54.1,332v-50.3h49.5L54.1,332z M63.4,343.6l52.6-51.8
		v51.8H63.4z M131.4,606.5v-23.2l61.8-61.1v84.3H131.4z M208.7,281.8h48.7L208.7,332V281.8z M270.6,343.6h-53.3l53.3-51.8V343.6z
		 M286,281.8H334L286,332V281.8z M347.9,343.6h-54.1l54.1-51.8V343.6z M363.4,281.8h47.2L363.4,332V281.8z M425.2,343.6h-54.1
		l54.1-51.8V343.6z M440.7,333.6v-44.1l23.2,23.2L440.7,333.6z"/>
	<rect x="317" y="637.4" fill="#323232" width="30.9" height="15.5"/>
	<polygon fill="#323232" points="363.4,652.9 487,652.9 487,637.4 363.4,637.4 	"/>
</g>
</svg>
