<?xml version="1.0" encoding="utf-8"?>
<!-- Generator: Adobe Illustrator 18.0.0, SVG Export Plug-In . SVG Version: 6.00 Build 0)  -->
<!DOCTYPE svg PUBLIC "-//W3C//DTD SVG 1.1//EN" "http://www.w3.org/Graphics/SVG/1.1/DTD/svg11.dtd">
<svg version="1.1" id="Слой_1" xmlns="http://www.w3.org/2000/svg" xmlns:xlink="http://www.w3.org/1999/xlink" x="0px" y="0px"
	 viewBox="0 0 595.3 841.9" enable-background="new 0 0 595.3 841.9" xml:space="preserve">
<g>
	<g>
		<g>
			<defs>
				<rect id="SVGID_1_" y="98.9" width="595" height="644"/>
			</defs>
			<clipPath id="SVGID_2_">
				<use xlink:href="#SVGID_1_"  overflow="visible"/>
			</clipPath>
			<path clip-path="url(#SVGID_2_)" fill="#323232" d="M595,204.6c-4.3-23.4-15-45.1-31-62.9c0,0,0,0,0-0.2
				c-8-9.2-21.6-21.9-39.7-29.9l-0.3-0.2c-17.6-8.4-36.3-12.7-55.8-12.7c-28.9,0-56.2,9.4-78.9,27l-0.2,0.2
				c-19.5,15.2-32.4,37.1-34.2,39.8c0,0.2-0.2,0.2-0.2,0.4c-10.4,18.7-15.6,40.2-15.6,61.7c0,4.5,0.2,9,0.8,13.5
				c0.4,4.1,2.9,7.8,6.6,9.8c2.3,1.2,4.9,2.3,7.4,3.1c10.2,30.9,32,55.5,60,69.3c-11.9,6.1-22.7,14.3-32,24
				c-4.7,5.1-4.5,12.9,0.6,17.6c5.1,4.7,12.9,4.5,17.6-0.6c4.5-4.7,9.4-9,14.6-12.7c7.6,21.5,27.1,37.1,49.2,37.1h2
				c22.3,0,41.8-16.8,48.8-39.6c26.4,16.6,43.4,46.1,43.4,77.5v129.9l-113.7,73.8c-5.9,3.7-7.4,11.5-3.7,17.4
				c2.3,3.7,6.4,5.7,10.5,5.7c2.3,0,4.7-0.6,6.8-2l119.3-77.5c3.5-2.3,5.7-6.2,5.7-10.5V426.8c0-44.3-24.8-84-63.7-103.7
				c36.9-18.4,63.1-55.7,65.6-99c3.5-3.1,6.6-7,8.9-11.1C595,210.4,595.6,207.5,595,204.6L595,204.6z M465.6,363.9h-2
				c-15,0-27.6-14.2-27.6-31.4c0-0.2,0-0.4,0-0.6c10,2.5,20,3.9,30.3,3.9c9,0,17.6-1.1,26-3C491.2,349.5,479.1,363.9,465.6,363.9
				L465.6,363.9z M466.2,310.8c-37.7,0-71.1-22.5-85.7-56.1c17.4-4.9,30.7-19.7,33.4-37.7c7.4,1,15,1.4,22.7,1.4
				c25.4,0,50-5.3,71.9-15.6c5.7,19.3,23.6,33.6,44.9,33.6c1.6,0,3.1,0,4.7-0.2C549,278.6,511.1,310.8,466.2,310.8L466.2,310.8z
				 M553.5,211.4c-11.9,0-21.5-9.8-21.5-21.7v-7c0-4.5-2.7-8.8-6.6-10.9c-3.9-2.1-8.9-2.1-12.8,0.4c-22.1,13.9-48.3,21.1-75.8,21.1
				c-10.7,0-21.5-1.2-31.9-3.3c-3.7-0.8-7.4,0.2-10.4,2.5s-4.5,5.9-4.5,9.8v7.6c0,11.9-10,21.5-21.9,21.5c-0.8,0-1.7,0.6-2.5-0.4
				c-0.2,0-0.4,0-0.6,0s-1,0.4-1,0.2c0-1,0-2.1,0-3.1c0-17.4,5-34.6,13-49.6v-0.2c0-0.2,11.2-19.7,27.6-32.4l0,0
				c18.4-14.3,40.4-21.7,63.6-21.7c15.8,0,30.8,3.5,44.9,10.2c0.2,0.2,0.6,0.2,1.2,0.6c13.9,6.2,24.6,16.2,31,23.4l0.2,0.2
				c11.7,13.1,20.2,28.9,24.1,45.9C565.5,208.7,559.7,211.4,553.5,211.4L553.5,211.4z M359.7,531.1c28.3-16.6,47.5-47.5,47.5-82.6
				c0-15.8-3.9-30.9-10.7-43.9c-0.2-0.6-0.6-1.2-0.8-1.6c-16.2-29.9-47.8-50.4-84.4-50.4c-36.3,0-68.2,20.3-84.4,50.4
				c-0.4,0.4-0.6,1-0.8,1.6c-6.8,13.1-10.7,28.1-10.7,43.9c0,35.2,19.3,66,47.6,82.6c-35,18.2-57,54.1-57,93.9v45.5
				c0,4.3,2,8.2,5.7,10.5l93.1,59.4c2.1,1.4,4.3,2,6.6,2c2.3,0,4.7-0.6,6.6-2l93.3-59c3.7-2.3,5.9-6.2,5.9-10.5L417,625
				C417,585.2,394.7,549.3,359.7,531.1L359.7,531.1z M311.3,377.8c21.7,0,41.2,9.8,54.3,25.4c-16.8,4.9-35.3,7.4-54.3,7.4
				s-37.5-2.5-54.3-7.4C270.1,387.5,289.6,377.8,311.3,377.8L311.3,377.8z M240.6,448.5c0-8.2,1.4-16,3.9-23.2
				c20.7,6.6,43.6,10.2,67,10.2c23.4,0,46.3-3.5,67-10.2c2.5,7.2,3.9,15,3.9,23.2c0,39.1-31.8,70.9-70.9,70.9
				S240.6,487.5,240.6,448.5L240.6,448.5z M333.6,542c-1.6,11.9-11.9,19.9-21.3,19.9h-1.6c-10,0-20.9-8.6-22.5-20.3
				c7.4,1.8,15,2.7,23,2.7C318.9,544.5,326.3,543.6,333.6,542L333.6,542z M311.5,715.3L231,663.9v-38.7c0-27.5,13.7-52.5,36.2-67.3
				c7.8,17.8,26,29,43.6,29h1.6c18.9,0,35.5-12.4,42.8-29.4c22.9,14.6,36.9,40,37.1,67.9l0.3,39L311.5,715.3z M221.7,379.7
				c3.7-5.9,1.8-13.5-4.1-17.2c-3.7-2.3-7.8-4.5-11.7-6.4c15.4-7.8,29.1-19.1,40-33.4c4.5,1.6,9.3,2.3,14.4,2.3
				c24,0,43.7-19.5,43.7-43.6v-31.1c0-39.5-15.2-76.9-42.5-105.3s-64.1-44.7-103.4-46.3l0,0c-3.3-0.2-6.7-0.2-9.8,0
				c-39.1,1-76,16.8-103.9,44.5C15.8,171.7,0,209.8,0,250.4v31.1c0,24,19.5,43.6,43.6,43.6c5.1,0,9.8-0.8,14.3-2.3
				c11.9,15.6,27.3,27.7,44.7,35.7C64,378.8,40,418,40,461.6v102.3c0,4.3,2.2,8.2,5.7,10.5l113.5,73.6c2.1,1.4,4.5,2,6.8,2
				c4.1,0,8-2,10.5-5.7c3.7-5.9,2-13.5-3.8-17.4L65,557.1v-95.5c0-28.9,13.6-55.6,36.1-72.8c7.8,22.5,27.7,39.1,49.7,39.1h2
				c23.8,0,43-21.5,49.6-45.6c0.8,0.4,1.6,1,2.1,1.4C210.3,387.3,218,385.6,221.7,379.7L221.7,379.7z M74.4,205.1
				c-8,13.7-12.4,29.5-12.4,45.5v31.1c0,5.9-2.7,11.1-7,14.6c-0.4,0.2-0.8,0.6-1,0.8c-2.9,2-6.5,3.1-10.4,3.1
				c-10.2,0-18.6-8.4-18.6-18.6v-31.2c0-69.3,54.5-124.6,123.8-126.6c2.5,0,5.3,0,8.2,0c68.2,3,122,58.2,122,126.6v31.1
				c0,10.2-8.6,18.6-18.7,18.6c-3.9,0-7.5-1.2-10.4-3.1c-0.4-0.2-0.7-0.6-0.9-0.8c-4.3-3.3-7-8.6-7-14.6v-31.1
				c0-44.1-32.9-82.2-76.5-88.7c-3.5-0.6-6.9,0.4-9.6,2.5c-2.7,2.1-4.5,5.3-4.7,8.8c-0.8,8.8-2.4,17.8-4.7,25.8H85.2
				C80.9,198.9,76.7,201.2,74.4,205.1L74.4,205.1z M152.5,402.9h-2c-14.1,0-27.9-17-27.9-34.4c0-1.2-0.2-2.1-0.4-3.1
				c9.6,2.3,19.3,3.7,29.5,3.7c9.6,0,18.9-1.3,27.9-3.4C178.9,383.7,165.2,402.9,152.5,402.9L152.5,402.9z M151.7,344
				c-29.1,0-56.1-13.3-73.7-35.9c5.7-7.4,8.9-16.6,8.9-26.6v-31.1c0-9.2,2.1-18.6,5.8-26.6h62.1c5.3,0,10-3.3,11.7-8.2
				c3.1-8.4,5.4-17.2,6.9-26c25,9.2,42.5,33.4,42.5,60.7v31.1c0,10,3.4,19.1,9.1,26.6C207.7,330.7,180.8,344,151.7,344L151.7,344z"
				/>
		</g>
	</g>
</g>
<polygon fill="#33A5B1" points="465.9,608.6 422.5,565.2 463.9,389.8 509.2,565.2 "/>
</svg>
