<?xml version="1.0" encoding="utf-8"?>
<!-- Generator: Adobe Illustrator 19.2.1, SVG Export Plug-In . SVG Version: 6.00 Build 0)  -->
<svg version="1.1" id="Слой_1" xmlns="http://www.w3.org/2000/svg" xmlns:xlink="http://www.w3.org/1999/xlink" x="0px" y="0px"
	 viewBox="0 0 595.3 841.9" style="enable-background:new 0 0 595.3 841.9;" xml:space="preserve">
<style type="text/css">
	.st0{fill:#3AA5B1;}
	.st1{fill:#333333;}
</style>
<g id="g3760" transform="translate(-298,-477.5)">
	<circle id="circle3778" class="st0" cx="472.7" cy="840.1" r="104.6"/>
	<g>
		<rect x="355.7" y="993.6" class="st1" width="239.8" height="19.2"/>
		<path class="st1" d="M681.9,772.8h163V638.6h-163V772.8z M701,686.6h5.7h8.7c9.6,0,17.2,9.6,17.2,19.2c0,9.6-7.7,19.2-17.2,19.2
			H701V686.6z M701,744.2h14.4c19.2,0,33.6-19.2,33.6-38.3c0-19.2-14.4-38.3-33.6-38.3H701v-9.6h124.7v48v48H701V744.2z"/>
		<path class="st1" d="M787.3,744.2c19.2,0,38.3-19.2,38.3-38.3c0-19.2-19.2-38.3-38.3-38.3c-19.2,0-38.3,19.2-38.3,38.3
			C749,724.9,768.2,744.2,787.3,744.2z M787.3,686.6c12.5,0,19.2,9.6,19.2,19.2c0,9.6-9.6,19.2-19.2,19.2
			c-9.7,0-19.2-10.5-19.2-20.1C768.2,696.2,775.8,686.6,787.3,686.6z"/>
		<rect x="806.6" y="782.5" class="st1" width="19.2" height="191.8"/>
		<rect x="758.5" y="782.5" class="st1" width="19.2" height="191.8"/>
		<rect x="710.7" y="955.1" class="st1" width="19.2" height="19.2"/>
		<rect x="710.7" y="782.5" class="st1" width="19.2" height="153.5"/>
		<path class="st1" d="M864.1,609.8H624.3c-16.3,0-28.8,12.5-28.8,28.8v38.3H298.1v508.3H653v-153.5h211.2
			c16.3,0,28.8-12.5,28.8-28.8V638.6C892.9,622.3,880.4,609.8,864.1,609.8z M633.8,1166.2H317.3v-470h316.5V1166.2z M873.7,1003.1
			c0,5.7-3.8,9.6-9.6,9.6H653.1V676.9h-38.3v-38.3c0-5.7,3.8-9.6,9.6-9.6h239.8c5.7,0,9.6,3.8,9.6,9.6V1003.1z"/>
		<rect x="576.3" y="1031.9" class="st1" width="19.2" height="19.2"/>
		<rect x="355.7" y="1031.9" class="st1" width="201.4" height="19.2"/>
	</g>
</g>
</svg>
