<?xml version="1.0" encoding="utf-8"?>
<!-- Generator: Adobe Illustrator 18.0.0, SVG Export Plug-In . SVG Version: 6.00 Build 0)  -->
<!DOCTYPE svg PUBLIC "-//W3C//DTD SVG 1.1 Tiny//EN" "http://www.w3.org/Graphics/SVG/1.1/DTD/svg11-tiny.dtd">
<svg version="1.1" baseProfile="tiny" id="Слой_1"
	 xmlns="http://www.w3.org/2000/svg" xmlns:xlink="http://www.w3.org/1999/xlink" x="0px" y="0px" viewBox="0 0 595.3 841.9"
	 xml:space="preserve">
<g id="g3760" transform="translate(-298,-477.5)">
	<circle id="circle3778" fill="#3AA5B1" cx="500.5" cy="852.1" r="84.3"/>
	<g>
		<rect x="406.2" y="975.8" fill="#333333" width="193.3" height="15.5"/>
		<path fill="#333333" d="M669.1,797.9h131.4V689.7H669.1V797.9z M684.5,728.4h4.6h7c7.7,0,13.9,7.7,13.9,15.5
			c0,7.7-6.2,15.5-13.9,15.5h-11.6V728.4z M684.5,774.8h11.6c15.5,0,27.1-15.5,27.1-30.9c0-15.5-11.6-30.9-27.1-30.9h-11.6v-7.7H785
			v38.7v38.7H684.5V774.8z"/>
		<path fill="#333333" d="M754.1,774.8c15.5,0,30.9-15.5,30.9-30.9c0-15.5-15.5-30.9-30.9-30.9c-15.5,0-30.9,15.5-30.9,30.9
			C723.2,759.3,738.7,774.8,754.1,774.8z M754.1,728.4c10.1,0,15.5,7.7,15.5,15.5c0,7.7-7.7,15.5-15.5,15.5s-15.5-8.5-15.5-16.2
			C738.7,736.1,744.8,728.4,754.1,728.4z"/>
		<rect x="769.6" y="805.7" fill="#333333" width="15.5" height="154.6"/>
		<rect x="730.9" y="805.7" fill="#333333" width="15.5" height="154.6"/>
		<rect x="692.3" y="944.8" fill="#333333" width="15.5" height="15.5"/>
		<rect x="692.3" y="805.7" fill="#333333" width="15.5" height="123.7"/>
		<path fill="#333333" d="M816,666.5H622.7c-13.1,0-23.2,10.1-23.2,23.2v30.9H359.8v409.7h286v-123.7H816
			c13.1,0,23.2-10.1,23.2-23.2V689.7C839.2,676.6,829.1,666.5,816,666.5z M630.4,1114.9H375.3V736.1h255.1V1114.9z M823.7,983.5
			c0,4.6-3.1,7.7-7.7,7.7H645.9V720.6H615v-30.9c0-4.6,3.1-7.7,7.7-7.7H816c4.6,0,7.7,3.1,7.7,7.7V983.5z"/>
		<rect x="584" y="1006.7" fill="#333333" width="15.5" height="15.5"/>
		<rect x="406.2" y="1006.7" fill="#333333" width="162.3" height="15.5"/>
	</g>
</g>
</svg>
