<?xml version="1.0" encoding="utf-8"?>
<!-- Generator: Adobe Illustrator 19.2.1, SVG Export Plug-In . SVG Version: 6.00 Build 0)  -->
<svg version="1.1" id="Слой_1" xmlns="http://www.w3.org/2000/svg" xmlns:xlink="http://www.w3.org/1999/xlink" x="0px" y="0px"
	 viewBox="0 0 164.5 100.1" style="enable-background:new 0 0 164.5 100.1;" xml:space="preserve">
<style type="text/css">
	.st0{fill:#FFFFFF;}

</style>
<g>
	<path class="st0" d="M163.7,53c1.7-2.9,0.7-6.5-2.2-8.2s-6.5-0.7-8.2,2.2c-14.7,25.3-41.9,41-71.1,41C54.2,88,28,73.5,13,50
		c15-23.6,41.2-38,69.2-38c17.5,0,34.3,5.5,48.4,15.8c2.7,2,6.4,1.4,8.4-1.3s1.4-6.4-1.3-8.4C121.6,6.3,102.4,0,82.3,0
		C48.8,0,17.6,18,0.8,47c-1.1,1.9-1.1,4.1,0,6c16.8,29,48,47,81.4,47S146.9,82,163.7,53L163.7,53z"/>
	<path class="st0" d="M82.3,71.1c-3.3,0-6,2.7-6,6s2.7,6,6,6c18.2,0,33.1-14.8,33.1-33.1c0-18.2-14.8-33.1-33.1-33.1
		S49.2,31.8,49.2,50c0,3.3,2.7,6,6,6s6-2.7,6-6c0-11.6,9.5-21.1,21.1-21.1s21.1,9.5,21.1,21.1S93.9,71.1,82.3,71.1L82.3,71.1z"/>
	<g>
		<path class="st0" d="M182.3-56"/>
	</g>
</g>
</svg>
