<?xml version="1.0" encoding="UTF-8" standalone="no"?>
<!-- Generator: Adobe Illustrator 18.0.0, SVG Export Plug-In . SVG Version: 6.00 Build 0)  -->

<svg
   xmlns:dc="http://purl.org/dc/elements/1.1/"
   xmlns:cc="http://creativecommons.org/ns#"
   xmlns:rdf="http://www.w3.org/1999/02/22-rdf-syntax-ns#"
   xmlns:svg="http://www.w3.org/2000/svg"
   xmlns="http://www.w3.org/2000/svg"
   xmlns:sodipodi="http://sodipodi.sourceforge.net/DTD/sodipodi-0.dtd"
   xmlns:inkscape="http://www.inkscape.org/namespaces/inkscape"
   version="1.1"
   id="Слой_1"
   x="0px"
   y="0px"
   viewBox="0 0 595.3 841.9"
   enable-background="new 0 0 595.3 841.9"
   xml:space="preserve"
   inkscape:version="0.91 r13725"
   sodipodi:docname="eye_1.svg"><metadata
     id="metadata3428"><rdf:RDF><cc:Work
         rdf:about=""><dc:format>image/svg+xml</dc:format><dc:type
           rdf:resource="http://purl.org/dc/dcmitype/StillImage" /><dc:title></dc:title></cc:Work></rdf:RDF></metadata><defs
     id="defs3426" /><sodipodi:namedview
     pagecolor="#ffffff"
     bordercolor="#666666"
     borderopacity="1"
     objecttolerance="10"
     gridtolerance="10"
     guidetolerance="10"
     inkscape:pageopacity="0"
     inkscape:pageshadow="2"
     inkscape:window-width="1600"
     inkscape:window-height="837"
     id="namedview3424"
     showgrid="false"
     inkscape:zoom="0.28031832"
     inkscape:cx="297.64999"
     inkscape:cy="302.44295"
     inkscape:window-x="-8"
     inkscape:window-y="165"
     inkscape:window-maximized="1"
     inkscape:current-layer="Слой_1" /><path
     d="m 574.64214,394.42263 c -2.89193,-2.89191 -36.14906,-41.9329 -88.92669,-78.08197 l -36.14906,36.14907 c 34.7031,23.13539 61.45341,47.71675 75.19005,62.17638 -31.0882,31.81117 -120.73786,114.23103 -227.73908,114.23103 -7.95279,0 -15.18261,-0.72298 -23.1354,-1.44596 l -42.65589,42.65589 c 20.96646,5.06087 43.37887,8.67578 65.79129,8.67578 152.54903,0 272.56391,-138.08941 277.62478,-144.59625 9.39875,-11.56769 9.39875,-28.19626 0,-39.76397 l 0,0 z m 0,0"
     id="path3420"
     inkscape:connector-curvature="0"
     style="fill:#ffffff" /><path
     d="m 536.32413,220.90715 c 0,-1.44597 -0.72297,-2.89193 -1.44596,-4.33789 l -41.20993,-41.20993 c -2.16894,-2.16894 -5.78384,-2.16894 -7.95279,0 l -91.81861,91.81861 c -30.36522,-10.84472 -62.89937,-18.07453 -96.87948,-18.07453 -152.54904,0 -272.563928,138.08942 -277.624791,144.59625 -10.1217371,11.5677 -10.1217371,28.19626 0,39.76396 2.891919,3.61491 46.993777,54.22359 114.231031,94.71054 l -74.467071,74.46706 c -1.44596,0.72299 -1.44596,2.89193 -1.44596,4.33789 0,1.44596 0.722985,2.89192 1.44596,4.33789 l 41.209931,41.20993 c 1.44597,1.44596 2.89193,1.44596 4.33789,1.44596 1.44596,0 2.89192,-0.72298 4.33788,-1.44596 L 535.60116,225.96801 c 0,-1.44596 0.72297,-2.89192 0.72297,-5.06086 l 0,0 z M 69.278274,413.94313 c 20.966448,-21.68944 68.683216,-65.79129 130.859606,-92.54159 -12.29069,18.07453 -18.79752,40.48694 -18.79752,63.62234 0,26.75031 9.39875,52.05465 24.58136,71.57514 L 170.49564,492.0251 C 122.77889,465.99777 86.629818,432.01766 69.278274,413.94313 l 0,0 z m 0,0"
     id="path3422"
     inkscape:connector-curvature="0"
     style="fill:#ffffff" /></svg>