<svg xmlns="http://www.w3.org/2000/svg" viewBox="0 0 40 40"><defs><style>.a{fill:transparent;}.b{fill:#fff;}</style></defs><title>Icon__Bank_ID__01</title><rect class="a" width="40" height="40" rx="3" ry="3"/><path class="b" d="M45.5,35.46" transform="translate(0 0)"/><rect class="b" x="9.33" y="21.6" width="5.01" height="11.4"/><circle class="b" cx="11.84" cy="17.28" r="3.11"/><path class="b" d="M30.86,20A8.42,8.42,0,0,0,29.55,17a6,6,0,0,0-2.29-1.94,8.31,8.31,0,0,0-3.63-.68H16V28l5.12-2.81V18.55h4.5l0,8.38h0l0,0L16,32.72v0h7.6a10.79,10.79,0,0,0,3.05-.5A5.36,5.36,0,0,0,29,30.81a7.64,7.64,0,0,0,1.68-2.72,13.6,13.6,0,0,0,.6-4.57A15.09,15.09,0,0,0,30.86,20Z" transform="translate(0 0)"/><path class="b" d="M9.31,7h2.83a1.54,1.54,0,0,1,1.09.35,1.13,1.13,0,0,1,.38.87,1.09,1.09,0,0,1-.27.74,1.2,1.2,0,0,1-.53.33,1.37,1.37,0,0,1,.78.44,1.2,1.2,0,0,1,.25.78,1.33,1.33,0,0,1-.18.68,1.3,1.3,0,0,1-.48.48,1.6,1.6,0,0,1-.57.16,6.61,6.61,0,0,1-.68.07H9.31V7Zm1.52,1.92h0.66A0.75,0.75,0,0,0,12,8.8a0.44,0.44,0,0,0,.14-0.35A0.42,0.42,0,0,0,12,8.11,0.74,0.74,0,0,0,11.5,8H10.83V8.92Zm0,1.92H11.6a0.85,0.85,0,0,0,.55-0.14,0.47,0.47,0,0,0,.16-0.37A0.43,0.43,0,0,0,12.16,10a0.89,0.89,0,0,0-.56-0.13H10.83v1Z" transform="translate(0 0)"/><path class="b" d="M17.51,11.08H15.79l-0.24.81H14L15.85,7H17.5l1.84,4.89H17.75ZM17.19,10L16.65,8.27,16.12,10h1.07Z" transform="translate(0 0)"/><path class="b" d="M19.82,7h1.41l1.84,2.7V7H24.5v4.89H23.07L21.24,9.2v2.68H19.82V7Z" transform="translate(0 0)"/><path class="b" d="M25.51,7H27V8.85L28.6,7h2L28.83,8.85l1.86,3H28.83l-1-2L27,10.7v1.19H25.51V7Z" transform="translate(0 0)"/></svg>