<?xml version="1.0" encoding="utf-8"?>
<!-- Generator: Adobe Illustrator 19.2.1, SVG Export Plug-In . SVG Version: 6.00 Build 0)  -->
<svg version="1.1"
	 id="Слой_1" inkscape:version="0.91 r13725" sodipodi:docname="login_1.svg" xmlns:cc="http://creativecommons.org/ns#" xmlns:dc="http://purl.org/dc/elements/1.1/" xmlns:inkscape="http://www.inkscape.org/namespaces/inkscape" xmlns:rdf="http://www.w3.org/1999/02/22-rdf-syntax-ns#" xmlns:sodipodi="http://sodipodi.sourceforge.net/DTD/sodipodi-0.dtd" xmlns:svg="http://www.w3.org/2000/svg"
	 xmlns="http://www.w3.org/2000/svg" xmlns:xlink="http://www.w3.org/1999/xlink" x="0px" y="0px" viewBox="0 0 595.3 841.9"
	 style="enable-background:new 0 0 595.3 841.9;" xml:space="preserve">
<style type="text/css">
	.st0{fill:#646565;}
</style>
<g>

		<sodipodi:namedview  bordercolor="#666666" borderopacity="1" gridtolerance="10" guidetolerance="10" id="namedview3443" inkscape:current-layer="Слой_1" inkscape:cx="297.64999" inkscape:cy="420.95001" inkscape:pageopacity="0" inkscape:pageshadow="2" inkscape:window-height="837" inkscape:window-maximized="1" inkscape:window-width="1600" inkscape:window-x="-8" inkscape:window-y="-8" inkscape:zoom="0.28031832" objecttolerance="10" pagecolor="#33a5b1" showgrid="false">
		</sodipodi:namedview>
	<path id="path3441" inkscape:connector-curvature="0" class="st0" d="M436.2,426h-28.8c55.7-36.1,92.4-98.7,92.4-169.5
		c0-111.4-90.5-201.9-201.9-201.9S96,145,96,256.5c0,71.1,37,133.7,92.4,169.5h-28.8C85.5,426,25.5,486.3,25.5,560v187.5
		c0,12.5,9.8,22.3,22.3,22.3h499.9c12.5,0,22.3-10.2,22.3-22.3V560C570.6,486.3,510.3,426,436.2,426L436.2,426L436.2,426z
		 M140.9,256.5c0-86.5,70.5-157.3,157.3-157.3s157.3,70.5,157.3,157.3c0,86.5-70.5,157.3-157.3,157.3S140.9,343,140.9,256.5
		L140.9,256.5z M363.5,447.6l-65.2,65.2L233,447.6c20.7,6.9,42.6,10.8,65.2,10.8C321.2,458.4,343.1,454.5,363.5,447.6L363.5,447.6z
		 M525.7,725.2h-60.6V618c0-12.5-9.8-22.3-22.3-22.3c-12.5,0-22.3,10.2-22.3,22.3v107.2H176V618c0-12.5-9.8-22.3-22.3-22.3
		s-22.3,10.2-22.3,22.3v107.2H70.7V560c0-49.5,40.3-89.5,89.5-89.5H193l89.5,89.5c4.3,4.3,10.2,6.6,15.7,6.6
		c5.6,0,11.5-2.3,15.7-6.6l89.5-89.5h32.8c49.5,0,89.5,40.3,89.5,89.5L525.7,725.2L525.7,725.2z"/>
</g>
</svg>
