<?xml version="1.0" encoding="utf-8"?>
<!-- Generator: Adobe Illustrator 18.0.0, SVG Export Plug-In . SVG Version: 6.00 Build 0)  -->
<!DOCTYPE svg PUBLIC "-//W3C//DTD SVG 1.1//EN" "http://www.w3.org/Graphics/SVG/1.1/DTD/svg11.dtd">
<svg version="1.1" id="Слой_1" xmlns="http://www.w3.org/2000/svg" xmlns:xlink="http://www.w3.org/1999/xlink" x="0px" y="0px"
	 viewBox="124.4 174.6 364 494.9" style="enable-background:new 124.4 174.6 364 494.9;" xml:space="preserve">
<style type="text/css">
	.st0{fill:#FFFFFF;}
</style>
<g id="g3385" transform="matrix(2.6599314,0,0,2.6784544,-497.27585,-699.7854)">
	<path class="st0" d="M301.7,511.2l-1.5-0.8l-52.6-23.2c-6.2-3.9-12.4-9.3-13.9-19.3V326.4h136.8v142.2
		c-1.5,10.1-7.7,14.7-13.1,18.6l0,0h-0.8L301.7,511.2z M250.7,482.6l51,22.4l51.8-23.2c4.6-3.1,10.8-7,10.8-14.7V331.1H239.1v135.3
		C239.1,474.9,245.3,478.7,250.7,482.6L250.7,482.6z"/>
	<path id="path3389" class="st0" d="M297.1,362.8c0,0,0.8,0.8,1.5,0.8c0-4.6-3.1-7-3.9-9.3c-3.1-2.3,0-7.7,3.1-10.1
		c7-4.6,17,2.3,15.5,9.3c0,1.5-0.8,4.6-3.1,5.4c0,0.8,0,2.3-1.5,2.3c0.8,0.8,0,1.5-0.8,1.5c16.2-3.9,13.9-27.1-4.6-26.3
		c-7.7,0.8-11.6,9.3-11.6,15.5C291.7,356.6,294,360.5,297.1,362.8z"/>
	<path id="path3391" class="st0" d="M301.7,362.8L301.7,362.8c-1.5,0-1.5,0-1.5,0s0,0.8-0.8,1.5l-0.8,0.8v0.8l0,0
		c0.8,0,2.3,0.8,3.9,0c2.3,0,4.6-0.8,5.4-1.5c0-2.3,0-6.2-0.8-8.5C306.4,358.9,304.1,362,301.7,362.8L301.7,362.8z M297.9,356.6
		c0,0.8,0,0.8,0.8,1.5c0,0.8,1.5,2.3,2.3,2.3h0.8c1.5,0,3.1-0.8,3.1-1.5c1.5-1.5,0.8-5.4,0-7c-0.8-0.8-0.8-3.1-3.1-3.9l0,0
		c-1.5,0-3.1,0-3.9,0.8l-0.8,0.8c-1.5,1.5-1.5,3.9,0,4.6c0,0,0.8-0.8,1.5-0.8l0,0l0.8,0.8l0.8,3.1c0,0.8,0.8,1.5,0.8,0.8h0.8
		c0,0.8-0.8,0.8-1.5,0c0-0.8,0-1.5-0.8-2.3l0,0l0,0c0,0,0,0-0.8-0.8C297.9,355.8,297.9,356.6,297.9,356.6L297.9,356.6z M299.4,353.5
		c-0.8-0.8,1.5-0.8,2.3-1.5c0,0,0,0,0.8,0c1.5,0,2.3,0.8,2.3,0.8c-1.5,0-0.8,0.8-1.5,0.8h-0.8C301,354.3,300.2,353.5,299.4,353.5
		L299.4,353.5z M300.2,358.9C301,358.9,301,358.1,300.2,358.9c0.8,0,1.5,0,1.5,0h0.8l0,0h-0.8c0,0,0,0-0.8,0.8
		C301,359.7,301,359.7,300.2,358.9L300.2,358.9L300.2,358.9L300.2,358.9z M297.9,348.9C297.9,348.9,297.9,348.1,297.9,348.9
		C297.9,348.1,297.9,348.1,297.9,348.9c-0.8-0.8-0.8-0.8-1.5-2.3C295.6,348.1,297.1,349.6,297.9,348.9z M298.7,348.1
		c0-1.5,0-2.3,0.8-3.9l0,0l0,0c-0.8,0-1.5,0.8-1.5,1.5s0,1.5,0,1.5L298.7,348.1z M297.1,349.6c-0.8,0-0.8,0-0.8,0
		C296.3,349.6,297.1,349.6,297.1,349.6z M302.5,345.8c-0.8,0.8-1.5,0.8-1.5,1.5c0.8,0,0.8-0.8,1.5-0.8c0.8,0,0.8,0,1.5,0
		c1.5,0,2.3,0,3.9,0.8c-0.8-1.5-2.3-2.3-3.9-1.5C303.3,345,303.3,345,302.5,345.8z M300.2,347.3L300.2,347.3
		c0.8-1.5,1.5-2.3,3.1-2.3c0,0,0.8,0,1.5-0.8l0,0l0,0c-0.8,0-0.8-0.8-1.5-0.8c-1.5,0-2.3,0.8-3.1,2.3
		C299.4,346.5,299.4,346.5,300.2,347.3L300.2,347.3z M298.7,354.3C297.9,354.3,298.7,354.3,298.7,354.3
		C297.9,355,297.9,355,298.7,354.3c-0.8,0.8-0.8,0.8-0.8,0.8C297.9,355,297.9,355,298.7,354.3C298.7,355,298.7,355,298.7,354.3
		L298.7,354.3z M307.2,352.7c0,0.8,0.8,0.8,0.8,1.5s0,1.5,0,3.1l0,0l0,0C310.3,356.6,308.7,354.3,307.2,352.7
		C307.9,352.7,307.2,352.7,307.2,352.7z M307.9,349.6c-0.8-0.8-1.5-0.8-1.5-0.8c0.8,0.8,1.5,0.8,1.5,1.5c0.8,0.8,0.8,1.5,0.8,3.1
		C311,352.7,309.5,350.4,307.9,349.6z M307.9,347.3c-1.5-0.8-3.1,0-3.9,0l0,0l0,0c1.5,0,3.1,0,3.9,0.8s1.5,0.8,1.5,1.5l0,0v-0.8
		C309.5,348.1,308.7,347.3,307.9,347.3z M302.5,352.7L302.5,352.7c-0.8,0.8-0.8,0.8-0.8,0.8H301h0.8
		C302.5,353.5,303.3,352.7,302.5,352.7L302.5,352.7z"/>
	<path id="path3393" class="st0" d="M298.7,399.1h-1.5c-0.8,0-1.5,5.4,0,5.4h1.5C299.4,404.5,299.4,399.1,298.7,399.1z M294,399.1
		h-2.3c-0.8,0-1.5,5.4,0,5.4h1.5C295.6,404.5,295.6,399.1,294,399.1z M307.9,400.7c0,1.5,0,3.1,0.8,3.9h2.3l0,0
		C310.3,403.7,308.7,402.2,307.9,400.7L307.9,400.7z M306.4,399.9h-1.5c-1.5,0-1.5,5.4,0,5.4h1.5
		C307.9,404.5,307.9,399.9,306.4,399.9z M302.5,399.9h-2.3c-0.8,0-1.5,5.4,0,5.4h1.5C303.3,404.5,304.1,399.9,302.5,399.9z"/>
	<path id="path3395" class="st0" d="M290.9,471c-4.6,2.3-3.9,3.1-3.9,4.6c-1.5,0.8-4.6,2.3-6.2,4.6c0,0.8-0.8,0.8-0.8,1.5
		c4.6,1.5,5.4,0.8,6.2,0c1.5-1.5,3.9-1.5,4.6-2.3c1.5-0.8,1.5-1.5,1.5-3.1C290.9,473.3,294,468.7,290.9,471L290.9,471z M322.6,485.7
		c-0.8-0.8-1.5-1.5-3.1-2.3c-2.3-1.5-3.9-2.3-3.9-5.4v-17.8c-0.8,1.5-3.1,2.3-4.6,2.3c-0.8,0-2.3,0.8-3.1,1.5c-0.8,0.8,0,2.3,0,3.1
		l7-0.8c0,0,0.8,0.8,0,0.8c-0.8,0-2.3,0.8-3.1,1.5c-0.8,0.8-2.3,0.8-2.3,1.5c0,3.1,0.8,6.2,0.8,9.3l0,0c0,0.8,0,0.8,0,1.5
		s0,0.8,0,1.5c0,0.8,0,1.5,1.5,2.3c2.3,0,3.9,1.5,5.4,2.3c1.5,0.8,2.3,2.3,4.6,2.3c0.8,0,2.3,0,3.1,0L322.6,485.7L322.6,485.7z"/>
	<path id="path3397" class="st0" d="M300.2,405.3c-2.3,0-7.7-0.8-8.5,3.1l-7,65.7c3.1-8.5,21.6-12.4,29.4-13.9
		c0-3.9-3.9-51.8-3.9-51.8l0.8,1.5l5.4,52.6l0.8-48.7C318,406.1,307.9,405.3,300.2,405.3L300.2,405.3z"/>
	<path id="path3399" class="st0" d="M308.7,478L308.7,478C307.9,478.7,308.7,478.7,308.7,478L308.7,478L308.7,478z M307.9,474.1
		l-3.9,4.6L307.9,474.1v-1.5l-4.6,5.4l4.6-6.2V471l-5.4,7l5.4-7.7v-0.8l-6.2,7.7l6.2-9.3v-0.8l-7,8.5l7-10.1v-0.8l-7.7,10.1l7-10.1
		h-0.8l-7,8.5l6.2-8.5h-0.8l-6.2,7l4.6-7c-0.8,0-1.5,0.8-1.5,0.8l-3.9,4.6l3.1-3.9c-4.6,3.1-7,7.7-1.5,10.1
		c2.3,0.8,5.4,1.5,10.1,1.5l2.3-3.1L307.9,474.1L307.9,474.1z M307.9,475.6l-2.3,2.3c0.8,0,1.5,0,1.5,0l0.8-0.8V475.6z"/>
	<path id="path3401" class="st0" d="M292.5,392.2c0,0.8,0,5.4,0,6.2h14.7c0-1.5-0.8-3.9-0.8-4.6c0-3.1-0.8-7-2.3-9.3
		c-3.1-5.4-11.6-10.1-17.8-13.1c-2.3,3.9-7,7-8.5,10.8c0,0.8-0.8,0.8-1.5,0.8c-1.5,0-3.9,0.8-9.3,4.6l2.3,4.6c0,0,0,0.8-0.8,0
		l-3.9-4.6c-0.8,0-0.8,0.8-1.5,0.8h-0.8c3.1,3.1,0.8,7,0,10.1c4.6-3.1,10.1-5.4,15.5-8.5C282.4,387.5,292.5,380.6,292.5,392.2
		L292.5,392.2z"/>
	<path id="path3403" class="st0" d="M257.7,392.9C257.7,392.9,258.5,392.9,257.7,392.9c0.8,0,0.8,0,0.8-0.8c0,0,0-0.8-0.8-0.8h-0.8
		H253c0,0-0.8,0-0.8,0.8C253,393.7,256.9,393.7,257.7,392.9L257.7,392.9z M257.7,394.5C258.5,394.5,258.5,394.5,257.7,394.5
		c0.8,0,0.8-1.5,0-1.5h-0.8H253c0,0-0.8,0-0.8,0.8C253.8,395.2,256.9,395.2,257.7,394.5L257.7,394.5z M253.8,391.4
		C253.8,391.4,253.8,392.2,253.8,391.4h3.1c0,0,0-1.5,0-0.8C255.4,390.6,253,390.6,253.8,391.4L253.8,391.4z M257.7,390.6h-0.8
		c0,0.8,0.8,0.8,0.8,0.8c0.8,0,2.3-0.8,3.1,0.8c-1.5,1.5-2.3,4.6,0.8,3.9c0.8,0,1.5-1.5,1.5-2.3l0,0v-0.8
		C263.1,389.8,260,389.1,257.7,390.6z M258.5,396c0.8,0,0.8-1.5,0-0.8h-0.8h-3.1c0,0-0.8,0-0.8,0.8
		C254.6,396.8,256.9,396.8,258.5,396L258.5,396L258.5,396z M251.5,357.4c7,10.8-0.8,21.6,4.6,29.4l3.1-1.5
		c-3.1-13.9,3.9-24.7-0.8-37.1c-0.8,8.5-7-3.1-4.6-8.5c-4.6,8.5-0.8,11.6,0.8,19.3C253.8,358.1,252.3,358.1,251.5,357.4z
		 M258.5,399.9l2.3-2.3h-4.6L258.5,399.9z M261.5,389.8l1.5-2.3l-1.5-2.3c0,0.8-2.3,1.5-2.3,1.5l0,0c-3.1,0-1.5,0-2.3,0.8
		c-0.8,0-1.5,0-2.3,0c-0.8,0-2.3-0.8-2.3-1.5l-1.5,2.3l2.3,2.3C253.8,387.5,260,386.7,261.5,389.8L261.5,389.8z"/>
	<path id="path3405" class="st0" d="M321.1,367.4c-6.2-0.8-12.4,7-13.1,17.8c-1.5,10.8,2.3,20.1,8.5,20.9c6.2,0.8,12.4-7,13.1-17.8
		C331.1,377.5,327.3,368.2,321.1,367.4z M328,389.1l-7.7-0.8l-1.5,13.9h-3.9l1.5-13.9l-7-0.8l0.8-3.9l7,0.8l1.5-12.4h3.9l-1.5,13.1
		l7,0.8V389.1z"/>
	<path id="path3407" class="st0" d="M324.9,421.5h-5.4c0,0,0,0,0,0.8l5.4,0.8C324.9,422.3,324.9,421.5,324.9,421.5L324.9,421.5z
		 M324.9,423.1h-5.4c0,0,0,0,0,0.8l5.4,0.8C324.9,423.8,324.9,423.1,324.9,423.1L324.9,423.1z M324.9,420h-4.6c0,0,0,0,0,0.8
		l5.4,0.8C324.9,420.8,324.9,420,324.9,420z M324.9,424.6h-6.2c0,0,0,0,0,0.8l6.2,0.8C324.9,425.4,324.9,424.6,324.9,424.6
		L324.9,424.6z M324.2,415.3h-3.1v0.8l3.9,0.8C324.2,416.1,324.2,415.3,324.2,415.3L324.2,415.3z M324.2,416.9h-3.9c0,0,0,0,0,0.8
		l3.9,0.8C324.2,417.7,324.2,416.9,324.2,416.9L324.2,416.9z M324.2,418.4h-4.6c0,0,0,0,0,0.8l4.6,0.8
		C324.9,419.2,324.9,418.4,324.2,418.4L324.2,418.4z M324.9,433.1h-7v0.8l7,1.5C324.9,434.7,324.9,433.9,324.9,433.1z M324.9,430.8
		h-7c0,0,0,0,0,0.8l7,1.5C324.9,431.6,324.9,430.8,324.9,430.8z M324.9,432.4h-7v0.8l0,0l7,1.5C324.9,433.1,324.9,432.4,324.9,432.4
		z M324.2,413.8h-3.1v0.8l3.1,0.8C324.2,414.6,324.2,413.8,324.2,413.8L324.2,413.8z M324.9,426.2h-6.2c0,0,0,0,0,0.8l6.2,0.8
		C324.9,426.9,324.9,426.2,324.9,426.2z M324.9,429.3h-6.2c0,0,0,0,0,0.8l7,1.5C324.9,430,324.9,429.3,324.9,429.3L324.9,429.3z
		 M324.9,427.7h-6.2c0,0,0,0,0,0.8l6.2,0.8C324.9,428.5,324.9,427.7,324.9,427.7L324.9,427.7z M315.7,365.1c-0.8,0-2.3,0-3.9-0.8
		l6.2,1.5c0,0,0,0,0-0.8H315.7z M290.2,396h-4.6c0,0.8,0,0.8,0,1.5l4.6-0.8C290.2,396.8,290.2,396.8,290.2,396z M289.4,394.5h-4.6
		c0,0.8,0,0.8,0,1.5l4.6-0.8C289.4,395.2,289.4,395.2,289.4,394.5L289.4,394.5z M289.4,427.7c0-0.8,0-1.5,0-2.3h-1.5
		C288.6,426.2,288.6,426.9,289.4,427.7z M324.9,435.4l-7-0.8v0.8l7,1.5h-7v0.8l7,1.5h-7v0.8l6.2,0.8l-6.2-0.8v0.8l6.2,0.8H318v0.8
		l6.2,0.8H318v0.8l6.2,0.8H318v0.8l5.4,0.8H318v0.8l5.4,0.8H318v0.8l5.4,0.8H318v0.8l5.4,0.8H318v0.8l4.6,0.8H318v0.8l4.6,0.8H318
		v0.8l4.6,0.8H318v0.8l4.6,0.8H318v0.8l3.9,0.8H318v0.8l3.9,0.8H318v0.8l3.9,0.8H318v0.8l3.1,0.8H318v0.8l3.1,0.8H318v0.8l3.1,0.8
		H318c0,0,0,0.8,0,1.5l3.1,0.8H318c0,0.8,0,0.8,0,1.5l2.3,0.8H318c0,0.8,0,0.8,0,1.5l2.3,0.8H318c0,0.8,0,0.8,0,1.5h2.3H318
		c0,0.8,0,0.8,0,1.5h2.3H318c0,0.8,0,0.8,0,1.5h1.5H318c0,0.8,0,0.8,0,1.5h1.5H318l0,0C323.4,478,324.9,456.3,324.9,435.4
		L324.9,435.4z M289.4,392.9h-3.9c0,0.8,0,0.8,0,1.5l4.6-0.8C289.4,393.7,289.4,393.7,289.4,392.9z M291.7,403.7L291.7,403.7h-4.6
		H291.7c0-0.8,0-1.5,0-1.5h-5.4l4.6-0.8v-0.8h-5.4l5.4-0.8v-0.8h-5.4l5.4-0.8v-0.8h-4.6c0,1.5,0,2.3,0,3.9v1.5
		c0,8.5,0,15.5,2.3,21.6h0.8c0-0.8,0-0.8,0-1.5h-1.5h1.5c0-0.8,0-0.8,0-1.5h-2.3h2.3c0-0.8,0-0.8,0-1.5h-2.3h2.3c0-0.8,0-0.8,0-1.5
		h-3.1l3.1-0.8c0-0.8,0-0.8,0-1.5h-3.1l3.1-0.8c0-0.8,0-0.8,0-1.5h-3.1l3.1-0.8c0-0.8,0-0.8,0-1.5h-3.9l3.9-0.8c0,0,0-0.8,0-1.5
		h-3.9l3.9-0.8c0,0,0-0.8,0-1.5h-3.9l3.9-0.8c0,0,0-0.8,0-1.5h-4.6l4.6-0.8V403h-3.9l4.6-0.8v-0.8h-4.6l4.6-0.8v-0.8h-5.4
		L291.7,403.7L291.7,403.7z M300.2,367.4c-3.9-0.8-7-1.5-10.1-0.8c-1.5,0.8-3.1,1.5-3.1,3.1l20.1,11.6c0-1.5,0.8-1.5,0.8-3.1
		l-1.5-0.8l2.3,0.8l0,0l-8.5-5.4l7.7,3.1l-1.5-0.8l2.3,0.8c0,0,0-0.8,0.8-0.8l-3.1-1.5l3.1,0.8c0,0,0-0.8,0.8-0.8l-3.1-1.5l3.9,0.8
		l0,0l-9.3-2.3h9.3l-3.1-0.8l4.6,2.3l0,0c0,0,0-0.8,0.8-0.8l-5.4-2.3l5.4,1.5c0,0,0-0.8,0.8-0.8l-6.2-2.3l7,2.3c0,0,0,0,0.8,0
		l-6.2-3.1C309.5,366.6,304.8,369,300.2,367.4L300.2,367.4z M285.5,389.8L285.5,389.8h1.5C286.3,389.8,285.5,389.8,285.5,389.8z
		 M324.2,412.3h-2.3v0.8l2.3,0.8C324.2,413,324.2,413,324.2,412.3z M323.4,410.7h-1.5v0.8h1.5C323.4,411.5,323.4,411.5,323.4,410.7
		L323.4,410.7z M288.6,391.4h-3.1c0,0.8,0,0.8,0,1.5l3.9-0.8C288.6,392.2,288.6,392.2,288.6,391.4z M323.4,409.2h-0.8v0.8h1.5
		C323.4,409.9,323.4,409.9,323.4,409.2z M287.1,390.6h-1.5c0,0.8,0,0.8,0,1.5l3.1-0.8C287.8,390.6,287.1,390.6,287.1,390.6
		L287.1,390.6z M307.9,365.1c0.8,0,1.5,0.8,1.5,0.8l7,2.3c0,0,0,0,0.8,0l-6.2-3.1C309.5,365.1,308.7,365.1,307.9,365.1L307.9,365.1z
		 M323.4,407.6L323.4,407.6C322.6,408.4,322.6,408.4,323.4,407.6v0.8C323.4,408.4,323.4,408.4,323.4,407.6L323.4,407.6z"/>
	<path id="path3409" class="st0" d="M274.7,397.6v0.8l4.6-0.8l0,0H274.7L274.7,397.6z M277.8,392.2l-1.5,0.8L277.8,392.2
		C278.6,392.2,278.6,392.2,277.8,392.2L277.8,392.2L277.8,392.2z M273.9,395.2v0.8l4.6-0.8l0,0H273.9z M275.5,399.1v0.8l4.6-0.8l0,0
		H275.5L275.5,399.1z M270.1,399.1v1.5l4.6-0.8v-0.8H270.1z M274.7,402.2v-0.8h-4.6v1.5L274.7,402.2z M277,403.7v0.8l4.6-1.5l0,0
		L277,403.7z M276.2,400.7v0.8l4.6-0.8l0,0H276.2z M276.2,402.2v0.8l4.6-1.5l0,0L276.2,402.2L276.2,402.2z M272.4,395.2L272.4,395.2
		h1.5l0,0l0,0l4.6-0.8c0,0,0,0,0-0.8h-3.9L272.4,395.2L272.4,395.2z M275.5,403.7V403l-4.6,0.8v1.5L275.5,403.7L275.5,403.7z
		 M277.8,407.6v0.8l4.6-1.5l0,0L277.8,407.6z M277.8,405.3v0.8l4.6-1.5l0,0L277.8,405.3z M278.6,409.2v0.8l3.9-1.5l0,0L278.6,409.2
		L278.6,409.2z M284,412.3l-3.9,1.5v0.8L284,412.3C284,413,284,413,284,412.3z M282.4,420l1.5-0.8v-0.8l-1.5,0.8
		C281.6,419.2,281.6,419.2,282.4,420L282.4,420z M282.4,421.5L282.4,421.5c0-0.8,0.8-0.8,0.8-1.5l-0.8,0.8
		C282.4,421.5,282.4,421.5,282.4,421.5L282.4,421.5z M280.9,415.3v0.8l3.1-1.5c0,0,0,0,0-0.8L280.9,415.3L280.9,415.3z M275.5,405.3
		v-0.8l-4.6,0.8v1.5L275.5,405.3z M279.3,428.5L279.3,428.5c0-0.8,0-1.5,0-2.3l-1.5,0.8l1.5-0.8c0-0.8,0-1.5,0-1.5l-2.3,0.8l2.3-1.5
		c0-0.8,0-0.8,0-1.5l-3.1,1.5l3.1-1.5c0-0.8,0-0.8,0-1.5l-3.1,1.5l3.1-2.3c0-0.8,0-0.8,0-1.5l-3.9,1.5l3.9-2.3c0-0.8,0-0.8,0-1.5
		l-4.6,1.5l4.6-2.3c0-0.8,0-0.8,0-1.5l-4.6,1.5l4.6-2.3c0-0.8,0-0.8,0-1.5l-4.6,1.5v0.8l3.1,21.6c0.8,2.3,0,6.2,0.8,8.5
		C279.3,440.9,280.1,434.7,279.3,428.5L279.3,428.5L279.3,428.5z M271.6,409.9h-0.8l0,0c0,0,0-1.5,0-2.3h-0.8h0.8c0-0.8,0-1.5,0-2.3
		h-0.8h0.8c0-0.8,0-1.5,0-1.5h-1.5h1.5c0-0.8,0-1.5,0-1.5h-1.5h1.5c0-0.8,0-1.5,0-1.5h-0.8h2.3c0,0,0,0,0-0.8l-0.8,0.8l3.9-0.8v-0.8
		h-6.2l6.2-0.8v-0.8h-2.3l-7.7,3.9l3.1,63.4c0,1.5-1.5,8.5-4.6,10.1c6.2-1.5,9.3-6.2,10.1-13.9c0.8-5.4,0.8-11.6,0.8-19.3
		C272.4,430.8,271.6,420.8,271.6,409.9L271.6,409.9z M286.3,348.9c0-8.5-8.5-5.4-13.1-1.5c-1.5,0.8-2.3,2.3-3.1,3.1
		c-3.9,6.2-7,14.7-7,27.8l0.8,9.3c2.3-1.5,4.6-3.1,7-4.6h-2.3h2.3c0.8,0,1.5-0.8,2.3-1.5l0,0l-3.9-0.8l4.6,0.8
		c0.8,0,1.5-0.8,1.5-0.8l-6.2-1.5l7,0.8c0-0.8,0-0.8,0-0.8l-7-2.3l7,1.5v-0.8l-7-2.3l7,1.5c0,0,0-0.8,0.8-0.8l-7-2.3l7.7,2.3
		c0,0,0,0,0.8,0h1.5l0.8-0.8l-9.3-3.9l10.8,3.1l0,0l-10.1-4.6l10.8,3.1l0,0l-10.8-5.4l11.6,3.9l0,0l-10.8-5.4l12.4,4.6l0,0l0,0l0,0
		l-11.6-6.2l8.5,3.9c-0.8-0.8-0.8-0.8-1.5-1.5l-7-3.9l6.2,3.1c0-0.8-0.8-0.8-0.8-1.5l-4.6-3.1l4.6,2.3c0-0.8,0-0.8,0-1.5l-3.1-2.3
		l3.9,1.5c0-0.8,0-0.8,0.8-1.5l-3.1-2.3l3.1,1.5c0-0.8,0.8-0.8,1.5-1.5l-2.3-2.3l0,0c-3.1,0.8-5.4,2.3-7,3.9
		c-3.9,3.9-4.6,9.3-7,17.8c0.8-8.5,0.8-13.1,6.2-19.3c1.5-1.5,2.3-3.1,4.6-4.6c2.3-1.5,1.5,1.5,1.5,2.3l2.3,1.5
		c0-0.8,0.8-0.8,0.8-1.5l-2.3-2.3l3.1,1.5c0-0.8,0.8-0.8,0.8-1.5l-2.3-2.3l3.1,1.5c0-0.8,0.8-0.8,0.8-1.5l-2.3-2.3l2.3,1.5
		c0-0.8,0.8-0.8,0.8-1.5l-2.3-2.3l2.3,1.5C285.5,351.2,286.3,350.4,286.3,348.9C286.3,349.6,286.3,349.6,286.3,348.9l-1.5-0.8
		L286.3,348.9L286.3,348.9L286.3,348.9z M281.6,418.4l2.3-1.5v-0.8l-2.3,0.8C281.6,417.7,281.6,417.7,281.6,418.4z M276.2,409.2
		v-0.8l-4.6,0.8v1.5L276.2,409.2z M276.2,406.8v-0.8l-4.6,0.8v1.5L276.2,406.8z M277,410.7v-0.8l-4.6,1.5v1.5L277,410.7z M277,412.3
		c0,0,0-0.8,0-1.5l-4.6,1.5v1.5L277,412.3L277,412.3z M283.2,409.9C283.2,409.9,283.2,409.2,283.2,409.9l-4.6,0.8v0.8L283.2,409.9z
		 M284,410.7l-3.9,1.5v0.8L284,410.7C284,411.5,284,410.7,284,410.7z"/>
	<path id="path3411" class="st0" d="M326.5,419.2l1.5,0.8v-0.8l-2.3-0.8C326.5,418.4,326.5,418.4,326.5,419.2L326.5,419.2z
		 M329.6,400.7l4.6,0.8v-0.8H329.6L329.6,400.7L329.6,400.7z M327.3,421.5L327.3,421.5c0,0,0-0.8,0.8-0.8l-0.8-0.8
		C327.3,420.8,327.3,421.5,327.3,421.5L327.3,421.5z M325.7,416.9l2.3,1.5v-0.8L325.7,416.9C325.7,416.1,325.7,416.9,325.7,416.9z
		 M326.5,413l3.1,1.5v-0.8L326.5,413L326.5,413z M325.7,414.6l3.1,1.5v-0.8L325.7,414.6L325.7,414.6z M328.8,402.2l4.6,1.5V403
		L328.8,402.2L328.8,402.2z M326.5,411.5l3.9,1.5v-0.8L326.5,411.5L326.5,411.5z M332.7,412.3l4.6,2.3V413l-4.6-1.5
		C333.4,411.5,332.7,412.3,332.7,412.3L332.7,412.3z M327.3,408.4l3.9,1.5v-0.8L327.3,408.4L327.3,408.4z M328,403.7l4.6,1.5v-0.8
		L328,403.7C328.8,403.7,328.8,403.7,328,403.7z M328,405.3l4.6,1.5v-0.8L328,405.3L328,405.3z M327.3,406.8l4.6,1.5v-0.8
		L327.3,406.8L327.3,406.8L327.3,406.8z M340.4,399.1h-4.6v0.8l4.6,0.8V399.1L340.4,399.1z M331.1,395.2
		C331.1,395.2,331.1,396,331.1,395.2l4.6,0.8v-0.8H331.1L331.1,395.2z M330.4,399.1l4.6,0.8v-0.8H330.4L330.4,399.1L330.4,399.1z
		 M330.4,397.6l4.6,0.8v-0.8H330.4L330.4,397.6z M338.1,414.6l-4.6-1.5c0,0.8,0,0.8,0,1.5l4.6,2.3l-4.6-1.5c0,0.8,0,0.8,0,1.5
		l4.6,2.3l-4.6-1.5c0,0.8,0,0.8,0,1.5l3.9,2.3l-3.9-1.5c0,0.8,0,0.8,0,1.5l3.1,2.3l-3.1-1.5c0,0.8,0,0.8,0,1.5l3.1,1.5l-3.1-1.5
		c0,0.8,0,0.8,0,1.5l2.3,1.5l-2.3-0.8c0,0.8,0,1.5,0,1.5l1.5,0.8l-1.5-0.8c0,0.8,0,1.5,0,2.3l0,0l0,0c-0.8,6.2,0,12.4,3.1,17.8
		c0.8-2.3,0-6.2,0.8-8.5L338.1,414.6L338.1,414.6L338.1,414.6z M343.5,463.3l4.6-84.3c0.8-12.4-2.3-21.6-6.2-27.8
		c-0.8-0.8-1.5-2.3-3.1-3.1c-5.4-3.9-13.1-6.2-13.1,1.5v-0.8l-1.5,0.8l0,0v0.8l0,0c0,0.8,0.8,0.8,0.8,1.5l2.3-1.5l-1.5,1.5
		c0,0.8,0.8,0.8,0.8,1.5l2.3-1.5l-2.3,2.3c0,0.8,0.8,0.8,0.8,1.5l2.3-1.5l-2.3,2.3c0,0.8,0.8,0.8,0.8,1.5l2.3-1.5l-2.3,2.3
		c0,0.8,0.8,0.8,0.8,1.5l3.1-1.5l-2.3,2.3c0,0.8,0.8,0.8,0.8,1.5l3.1-1.5l-3.1,2.3c0,0.8,0,0.8,0.8,1.5l3.1-1.5l-3.1,2.3
		c0,0.8,0,0.8,0,1.5l3.9-2.3l-3.9,2.3c0,0.8,0,0.8-0.8,1.5l5.4-2.3l-6.2,3.9c0,0.8-0.8,0.8-1.5,1.5l7.7-3.1l-10.1,5.4l0,0l10.1-3.9
		l-9.3,4.6v0.8l10.1-3.9l-9.3,4.6v0.8l10.1-3.1l-9.3,3.9v0.8l9.3-2.3l-9.3,3.9v0.8l9.3-2.3l-7,2.3l0.8,0.8l7-1.5l-6.2,2.3v0.8
		l7.7-1.5l-6.2,2.3v0.8l6.2-0.8l-7.7,1.5v0.8l7.7-0.8l-7.7,1.5v0.8l7.7-0.8l-8.5,1.5v0.8l8.5-0.8l-8.5,1.5v0.8h9.3l-9.3,1.5v0.8h9.3
		l-9.3,0.8v0.8h10.1l-10.1,0.8c0,0,0,0,0,0.8l10.1,0.8h-10.8c0,0,0,0,0,0.8l3.9,0.8h-0.8l0,0l6.2,0.8h-5.4c0,0,0,0.8,0,1.5l6.2,0.8
		h-6.2v0.8l4.6,0.8h0.8l0,0h1.5h-1.5c0,0.8,0,1.5,0,1.5h1.5h-1.5c0,0.8,0,1.5,0,1.5h0.8h-0.8c0,0.8,0,1.5,0,1.5h0.8h-0.8
		c0,0.8,0,1.5,0,1.5l0,0l0,0c-0.8,12.4-1.5,24-2.3,33.2c-0.8,7.7-0.8,13.9,0,19.3c0.8,7,3.9,11.6,10.1,13.9
		C345,471.8,342.7,464.8,343.5,463.3L343.5,463.3z M338.1,360.5c-1.5-1.5-3.1-3.1-6.2-3.9c0-1.5,0-3.9,1.5-3.1
		c1.5,1.5,3.1,3.1,4.6,4.6c5.4,6.2,5.4,11.6,6.2,19.3C342,369.7,341.2,364.3,338.1,360.5z M338.9,408.4l-4.6-0.8v0.8l4.6,1.5V408.4z
		 M338.9,406.8l-4.6-0.8v0.8l4.6,1.5V406.8z M326.5,409.9l3.9,1.5v-0.8L326.5,409.9L326.5,409.9z M338.1,410.7l-4.6-1.5
		c0,0,0,0.8,0,1.5l4.6,1.5V410.7z M339.6,405.3l-4.6-0.8v0.8l4.6,1.5V405.3z M339.6,401.4H335v0.8l4.6,0.8V401.4L339.6,401.4z
		 M339.6,403l-4.6-0.8v0.8l4.6,1.5V403L339.6,403z"/>
</g>
</svg>
