<?xml version="1.0" encoding="utf-8"?>
<!-- Generator: Adobe Illustrator 18.0.0, SVG Export Plug-In . SVG Version: 6.00 Build 0)  -->
<!DOCTYPE svg PUBLIC "-//W3C//DTD SVG 1.1//EN" "http://www.w3.org/Graphics/SVG/1.1/DTD/svg11.dtd">
<svg version="1.1" id="Слой_1" xmlns="http://www.w3.org/2000/svg" xmlns:xlink="http://www.w3.org/1999/xlink" x="0px" y="0px"
	 viewBox="0 0 77 60" style="enable-background:new 0 0 77 60;" xml:space="preserve">
<style type="text/css">
	.st0{fill:#323232;}
	.st1{fill:#36A5B0;}
</style>
<g>
	<path class="st0" d="M68,8.3c0-0.2-0.1-0.4-0.1-0.6c0-0.2-0.1-0.4-0.3-0.6L61.5,0H14.5L8.4,7.2C8.2,7.3,8.2,7.5,8.1,7.8
		C8.1,7.9,8,8.1,8,8.3V19h2v41h55V19h3V8.3z M16,2h44l4.8,6H11.2L16,2z M63,58H12V19h51V58z M66,17H10v-7h56V17z M66,17"/>
	<path class="st0" d="M54,38H23v14h31V38z M52,50H25V40h27V50z M51.8,49.1"/>
	<rect x="27" y="23" class="st1" width="23" height="10"/>
</g>
<rect x="27" y="42" class="st0" width="6" height="2"/>
<rect x="35" y="42" class="st0" width="15" height="2"/>
<rect x="27" y="46" class="st0" width="23" height="2"/>
</svg>
