<?xml version="1.0" encoding="utf-8"?>
<!-- Generator: Adobe Illustrator 18.0.0, SVG Export Plug-In . SVG Version: 6.00 Build 0)  -->
<!DOCTYPE svg PUBLIC "-//W3C//DTD SVG 1.1//EN" "http://www.w3.org/Graphics/SVG/1.1/DTD/svg11.dtd">
<svg version="1.1" id="Слой_1" xmlns="http://www.w3.org/2000/svg" xmlns:xlink="http://www.w3.org/1999/xlink" x="0px" y="0px"
	 viewBox="0 0 77 60" style="enable-background:new 0 0 77 60;" xml:space="preserve">
<style type="text/css">
	.st0{fill:#33A5B1;}
	.st1{fill:#333333;}
	.st2{fill:#FFFFFF;}
</style>
<g>
	<path class="st0" d="M16.6,35.1c-2.1,0-3.7-1.7-3.7-3.7c0-2.1,1.7-3.7,3.7-3.7c2.1,0,3.7,1.7,3.7,3.7
		C20.4,33.5,18.7,35.1,16.6,35.1L16.6,35.1z"/>
	<path class="st0" d="M24.1,35.1c-2.1,0-3.7-1.7-3.7-3.7c0-2.1,1.7-3.7,3.7-3.7c2.1,0,3.7,1.7,3.7,3.7
		C27.8,33.5,26.2,35.1,24.1,35.1L24.1,35.1z M24.1,29.8"/>
	<path class="st0" d="M52.9,35.1c-2.1,0-3.7-1.7-3.7-3.7c0-2.1,1.7-3.7,3.7-3.7c2.1,0,3.7,1.7,3.7,3.7C56.6,33.5,55,35.1,52.9,35.1
		L52.9,35.1z"/>
	<path class="st0" d="M60.4,35.1c-2.1,0-3.7-1.7-3.7-3.7c0-2.1,1.7-3.7,3.7-3.7c2.1,0,3.7,1.7,3.7,3.7
		C64.1,33.5,62.4,35.1,60.4,35.1L60.4,35.1z"/>
	<path class="st1" d="M67,40V28.9c0-3.5-2.6-6.9-6.1-6.9h-0.1l2.2-1h4.3c2.4,0,4.3-1.6,4.3-4c0-2.4-1.9-4-4.3-4H63v2h-4L57.9,2.9
		C57.7,1.3,56.4,0,54.7,0H47H30h-7.7c-1.7,0-3,1.3-3.2,2.9L18,15h-4v-2H9.7c-2.4,0-4.3,1.6-4.3,4c0,2.4,1.9,4,4.3,4H14l2.2,1h-0.1
		c-3.5,0-6.1,3.3-6.1,6.9V40c-2,0-3.9,0.5-4,2.7l0,2.9C6,48,7.2,49,9,49h2v6.3c0,2.6,1.9,4.8,4.5,4.8c2.6,0,4.5-2.2,4.5-4.8V49h37
		v6.3c0,2.6,1.9,4.8,4.5,4.8c2.6,0,4.5-2.2,4.5-4.8V49h2c1.8,0,2-2.2,2-4v-2C69.9,40.8,69,40,67,40L67,40z M65,15h2.3
		c1.2,0,2.1,0.8,2.1,2c0,1.2-1,2-2.1,2H65V15z M63,17l0,2.1l-3.5,1.6L59.2,17H63z M21.2,2.8C21.3,2.3,21.8,2,22.3,2h32.4
		c0.6,0,1,0.3,1.1,0.8l1.9,19.2l-38.3-0.3L21.2,2.8z M45.7,31H31.5l-0.3-2h14.9L45.7,31z M45.4,33L45,35H32l-0.3-2L45.4,33z
		 M46.5,27l-15.8,0L30,24h17L46.5,27z M12,19H9.7c-1.2,0-2.1-0.8-2.1-2c0-1.2,1-2,2.1-2H12V19z M14,17h3.8l-0.3,3.7L14,19.1L14,17z
		 M12,28.9c0-2.4,2.6-4.9,5-4.9h11l1.9,11.4c0.1,1.1,1,1.6,2.1,1.6h13c1.1,0,2-0.5,2.1-1.6L49,24h11c2.4,0,5,2.5,5,4.9V40H12V28.9z
		 M18,55.3c0,1.5-1,2.7-2.5,2.7c-1.5,0-2.5-1.2-2.5-2.7V49h5V55.3z M64,55.3c0,1.5-1,2.7-2.5,2.7S59,56.8,59,55.3V49h5V55.3z M68,46
		c0,0.6-0.4,1-1,1H9c-0.6,0-1-0.4-1-1v-3c0-0.6,0.4-1,1-1h58c0.6,0,1,0.4,1,1V46z M68.4,45.3"/>
	<path class="st1" d="M28,18.6l9.6-12.8l1.7,1.3l-9.6,12.8L28,18.6z M28,18.6"/>
	<path class="st1" d="M36.6,18.6l9.6-12.8l1.7,1.3l-9.6,12.8L36.6,18.6z M36.6,18.6"/>
</g>
<line class="st2" x1="28" y1="35" x2="25" y2="34"/>
</svg>
