<?xml version="1.0" encoding="utf-8"?>
<!-- Generator: Adobe Illustrator 18.0.0, SVG Export Plug-In . SVG Version: 6.00 Build 0)  -->
<!DOCTYPE svg PUBLIC "-//W3C//DTD SVG 1.1//EN" "http://www.w3.org/Graphics/SVG/1.1/DTD/svg11.dtd">
<svg version="1.1" id="Слой_1" xmlns="http://www.w3.org/2000/svg" xmlns:xlink="http://www.w3.org/1999/xlink" x="0px" y="0px"
	 viewBox="0 0 595.3 841.9" enable-background="new 0 0 595.3 841.9" xml:space="preserve">
<g id="g3760" transform="translate(-298,-477.5)">
</g>
<g>
	<g>
		<defs>
			<rect id="SVGID_1_" x="-1.4" y="134.9" width="597.1" height="605"/>
		</defs>
		<clipPath id="SVGID_2_">
			<use xlink:href="#SVGID_1_"  overflow="visible"/>
		</clipPath>
		<path clip-path="url(#SVGID_2_)" fill="#323232" d="M361.4,438.2c-6.5,12.6-4.9,28.6,5,39.2c4,4.3,9,7.5,14.5,9.2
			c6.7,2.2,12,7.5,14.2,14.2c1.8,5.5,5,10.5,9.2,14.5c6.4,6,14.7,8.9,23,8.9c9,0,18-3.4,24.8-10.2l96.7-96.7
			c13.1-13.1,13.7-34.6,1.3-47.8c-4-4.3-9-7.5-14.5-9.2c-6.7-2.2-12-7.5-14.2-14.2c-1.8-5.5-5-10.5-9.2-14.5
			c-10.7-9.9-26.6-11.5-39.2-5L367.3,220.8c6.5-12.6,4.9-28.6-5-39.2c-4-4.3-9-7.5-14.5-9.2c-6.7-2.2-12-7.5-14.2-14.2
			c-1.8-5.5-5-10.5-9.2-14.5c-13.3-12.4-34.8-11.8-47.8,1.3l-96.7,96.7c-13.1,13.1-13.7,34.6-1.3,47.8c4,4.3,9,7.5,14.5,9.2
			c6.7,2.2,12,7.5,14.2,14.2c1.8,5.5,5,10.5,9.2,14.5c6.4,6,14.7,8.9,23,8.9c5.6,0,11.1-1.3,16.2-3.9l29.8,29.8L9.3,638.3
			c-14.2,14.2-14.2,37.3,0,51.5c7.1,7.1,16.4,10.6,25.7,10.6c9.3,0,18.6-3.5,25.7-10.6l276.1-276.1L361.4,438.2z M537.6,381.2
			c6.1,6.6,5.8,17.3-0.9,24L440,501.9c-6.6,6.6-17.4,7-24,0.9c-2.2-2-3.7-4.4-4.6-7.2c-1-3.2-2.4-6.1-4.2-8.9l114.3-114.3
			c2.8,1.7,5.7,3.2,8.9,4.2C533.1,377.5,535.6,379,537.6,381.2L537.6,381.2z M500.5,344.2c2.2,2,3.7,4.4,4.6,7.2
			c1,3.2,2.4,6.1,4.2,8.9L395.1,474.5c-2.8-1.7-5.7-3.2-8.9-4.2c-2.8-0.9-5.2-2.4-7.2-4.6c-6.1-6.6-5.7-17.3,0.9-24l96.7-96.7
			c3.5-3.5,8.1-5.2,12.6-5.2C493.3,339.8,497.4,341.2,500.5,344.2L500.5,344.2z M191.1,277.8c-6.1-6.6-5.8-17.3,0.9-24l96.7-96.7
			c3.5-3.5,8.1-5.2,12.6-5.2c4.1,0,8.2,1.4,11.3,4.4c2.2,2,3.7,4.4,4.6,7.2c1,3.2,2.4,6.1,4.2,8.9L207.2,286.6
			c-2.8-1.7-5.7-3.2-8.9-4.2C195.5,281.5,193.1,280,191.1,277.8L191.1,277.8z M228.1,314.9c-2.2-2-3.7-4.4-4.6-7.2
			c-1-3.2-2.4-6.1-4.2-8.9l114.3-114.3c2.7,1.7,5.7,3.2,8.9,4.2c2.8,0.9,5.2,2.4,7.2,4.6c6.1,6.6,5.7,17.3-0.9,24L252.1,314
			C245.5,320.6,234.7,321,228.1,314.9L228.1,314.9z M356.3,234.1l103.4,103.4L416,381.2l-43.7,43.7L268.9,321.4L356.3,234.1z
			 M48.6,677.6c-7.5,7.5-19.7,7.5-27.1,0c-7.5-7.5-7.5-19.7,0-27.1l276.1-276.1l27.1,27.1L48.6,677.6z M48.6,677.6"/>
	</g>
	<path fill="#323232" d="M595.2,693c0-1.9-0.6-3.7-1.8-5.2l-35-45.7v-20.9c0-4.7-3.9-8.6-8.6-8.6H309c-4.8,0-8.6,3.9-8.6,8.6v20.9
		l-35,45.7c-1.2,1.5-1.8,3.4-1.8,5.2l0,36.7c0,4.7,3.8,8.6,8.6,8.6h314.4c4.8,0,8.6-3.9,8.6-8.6L595.2,693z M317.6,629.8h223.6v6.6
		H317.6V629.8z M313.2,653.6h232.3l23.6,30.8H289.6L313.2,653.6z M280.8,721.1v-19.4H578v19.4H280.8z M280.8,721.1"/>
	<path fill="#323232" d="M422.6,342c1.7,1.7,3.9,2.5,6.1,2.5c2.2,0,4.4-0.8,6.1-2.5c3.4-3.4,3.4-8.8,0-12.2L364,259.1
		c-3.4-3.4-8.8-3.4-12.2,0c-3.4,3.4-3.4,8.8,0,12.2L422.6,342z M422.6,342"/>
</g>
<rect id="rect3997" x="292.2" y="611.2" fill="#36A5B1" width="275" height="42.9"/>
</svg>
