<?xml version="1.0" encoding="iso-8859-1"?>
<!-- Generator: Adobe Illustrator 18.0.0, SVG Export Plug-In . SVG Version: 6.00 Build 0)  -->
<!DOCTYPE svg PUBLIC "-//W3C//DTD SVG 1.1//EN" "http://www.w3.org/Graphics/SVG/1.1/DTD/svg11.dtd">
<svg version="1.1" id="&#x421;&#x43B;&#x43E;&#x439;_1"
	 xmlns="http://www.w3.org/2000/svg" xmlns:xlink="http://www.w3.org/1999/xlink" x="0px" y="0px" viewBox="0 0 320 410"
	 style="enable-background:new 0 0 320 410;" xml:space="preserve">
<g>
	<g>
		<defs>
			<rect id="SVGID_1_" x="0" width="319.92" height="410"/>
		</defs>
		<clipPath id="SVGID_2_">
			<use xlink:href="#SVGID_1_"  style="overflow:visible;"/>
		</clipPath>
		<path style="clip-path:url(#SVGID_2_);" d="M288,25.602h-64c-0.008,0-0.012,0-0.016,0c-5.843-7.77-15.136-12.801-25.586-12.801
			H182.09C177.574,4.992,169.184,0,160,0c-9.184,0-17.574,4.992-22.09,12.801h-16.308c-10.45,0-19.743,5.031-25.586,12.801
			c-0.004,0-0.012,0-0.016,0H32c-17.645,0-32,14.355-32,32v320c0,17.644,14.355,32,32,32h256c17.645,0,32-14.356,32-32v-320
			C320,39.957,305.645,25.602,288,25.602L288,25.602z M102.398,44.801c0-10.586,8.614-19.199,19.204-19.199h20.375
			c2.707,0,5.121-1.707,6.031-4.258c1.816-5.11,6.633-8.543,11.992-8.543c5.359,0,10.176,3.433,11.992,8.543
			c0.91,2.551,3.324,4.258,6.031,4.258h20.375c10.59,0,19.204,8.613,19.204,19.199V64H102.398V44.801z M307.199,377.602
			c0,10.585-8.613,19.199-19.199,19.199H32c-10.586,0-19.199-8.614-19.199-19.199v-320c0-10.59,8.613-19.204,19.199-19.204h58.242
			c-0.418,2.071-0.64,4.211-0.64,6.403v25.597c0,3.536,2.863,6.403,6.398,6.403h128c3.535,0,6.398-2.867,6.398-6.403V44.801
			c0-2.192-0.222-4.332-0.64-6.403H288c10.586,0,19.199,8.614,19.199,19.204V377.602z M307.199,377.602"/>
	</g>
	<path d="M288,51.199h-38.398c-3.536,0-6.403,2.867-6.403,6.403c0,3.531,2.867,6.398,6.403,6.398h32v224h-64
		c-10.59,0-19.204,8.613-19.204,19.199v38.399c0,3.535,2.868,6.402,6.403,6.402s6.398-2.867,6.398-6.402v-38.399
		c0-3.527,2.871-6.398,6.403-6.398h54.945l-70.399,70.398H38.398V64h32c3.536,0,6.403-2.867,6.403-6.398
		c0-3.536-2.867-6.403-6.403-6.403H32c-3.535,0-6.398,2.867-6.398,6.403v320c0,3.531,2.863,6.398,6.398,6.398h172.801
		c0.008,0,0.011,0,0.019,0c0.203,0,0.407-0.012,0.61-0.031c0.105-0.012,0.203-0.028,0.304-0.043
		c0.106-0.016,0.211-0.028,0.313-0.047c0.121-0.024,0.234-0.055,0.351-0.086c0.082-0.023,0.172-0.039,0.254-0.066
		c0.118-0.036,0.231-0.079,0.344-0.122c0.082-0.031,0.164-0.054,0.246-0.089c0.11-0.047,0.215-0.098,0.324-0.149
		c0.079-0.039,0.164-0.074,0.243-0.117c0.109-0.059,0.214-0.125,0.32-0.191c0.074-0.043,0.144-0.082,0.215-0.129
		c0.129-0.086,0.25-0.18,0.371-0.274c0.043-0.035,0.09-0.062,0.133-0.097c0.172-0.141,0.336-0.289,0.492-0.45l83.183-83.183
		c0.012-0.008,0.016-0.02,0.028-0.031c0.187-0.188,0.359-0.395,0.523-0.606c0.043-0.059,0.086-0.117,0.129-0.176
		c0.16-0.222,0.309-0.453,0.438-0.695c0.015-0.023,0.023-0.051,0.035-0.078c0.121-0.227,0.222-0.461,0.312-0.699
		c0.02-0.059,0.043-0.114,0.059-0.168c0.094-0.266,0.172-0.536,0.226-0.813c0.004-0.015,0.004-0.031,0.008-0.047
		c0.047-0.254,0.078-0.511,0.094-0.773c0.008-0.074,0.012-0.153,0.012-0.227c0.004-0.074,0.011-0.14,0.011-0.215V57.602
		C294.398,54.066,291.535,51.199,288,51.199L288,51.199z M288,51.199"/>
	<path d="M160,25.602c-1.688,0-3.336,0.679-4.527,1.871c-1.192,1.191-1.871,2.839-1.871,4.527c0,1.687,0.679,3.336,1.871,4.527
		c1.191,1.192,2.839,1.871,4.527,1.871c1.68,0,3.336-0.679,4.527-1.871c1.192-1.191,1.871-2.84,1.871-4.527
		c0-1.688-0.679-3.336-1.871-4.527C163.336,26.281,161.68,25.602,160,25.602L160,25.602z M160,25.602"/>
	<path d="M185.602,121.602h64c3.531,0,6.398-2.868,6.398-6.403c0-3.535-2.867-6.398-6.398-6.398h-64
		c-3.536,0-6.403,2.863-6.403,6.398C179.199,118.734,182.066,121.602,185.602,121.602L185.602,121.602z M185.602,121.602"/>
	<path d="M134.398,147.199h115.204c3.531,0,6.398-2.863,6.398-6.398s-2.867-6.403-6.398-6.403H134.398
		c-3.531,0-6.398,2.868-6.398,6.403S130.867,147.199,134.398,147.199L134.398,147.199z M134.398,147.199"/>
	<path d="M249.602,185.602H70.398c-3.531,0-6.398,2.863-6.398,6.398c0,3.535,2.867,6.398,6.398,6.398h179.204
		c3.531,0,6.398-2.863,6.398-6.398C256,188.465,253.133,185.602,249.602,185.602L249.602,185.602z M249.602,185.602"/>
	<path d="M249.602,211.199H70.398c-3.531,0-6.398,2.867-6.398,6.403c0,3.531,2.867,6.398,6.398,6.398h179.204
		c3.531,0,6.398-2.867,6.398-6.398C256,214.066,253.133,211.199,249.602,211.199L249.602,211.199z M249.602,211.199"/>
	<path d="M249.602,236.801H70.398c-3.531,0-6.398,2.863-6.398,6.398s2.867,6.403,6.398,6.403h179.204
		c3.531,0,6.398-2.868,6.398-6.403S253.133,236.801,249.602,236.801L249.602,236.801z M249.602,236.801"/>
	<path d="M256,268.801c0-3.535-2.867-6.403-6.398-6.403H70.398c-3.531,0-6.398,2.868-6.398,6.403s2.867,6.398,6.398,6.398h179.204
		C253.133,275.199,256,272.336,256,268.801L256,268.801z M256,268.801"/>
	<path d="M179.199,288H128c-3.535,0-6.398,2.867-6.398,6.398c0,3.536,2.863,6.403,6.398,6.403h51.199
		c3.535,0,6.403-2.867,6.403-6.403C185.602,290.867,182.734,288,179.199,288L179.199,288z M179.199,288"/>
	<path d="M179.199,313.602H128c-3.535,0-6.398,2.863-6.398,6.398s2.863,6.398,6.398,6.398h51.199c3.535,0,6.403-2.863,6.403-6.398
		S182.734,313.602,179.199,313.602L179.199,313.602z M179.199,313.602"/>
	<path d="M64,115.199c0,3.535,2.867,6.403,6.398,6.403h32c3.536,0,6.403-2.868,6.403-6.403c0-3.535-2.867-6.398-6.403-6.398h-32
		C66.867,108.801,64,111.664,64,115.199L64,115.199z M64,115.199"/>
	<path d="M51.199,316.801c0,15.879,12.922,28.801,28.801,28.801s28.801-12.922,28.801-28.801C108.801,300.918,95.879,288,80,288
		S51.199,300.918,51.199,316.801L51.199,316.801z M96,316.801c0,8.82-7.176,16-16,16s-16-7.18-16-16c0-8.824,7.176-16,16-16
		S96,307.977,96,316.801L96,316.801z M96,316.801"/>
</g>
<circle style="fill:#38A6B1;" cx="82" cy="315.11" r="32"/>
</svg>
