<?xml version="1.0" encoding="utf-8"?>
<!-- Generator: Adobe Illustrator 18.0.0, SVG Export Plug-In . SVG Version: 6.00 Build 0)  -->
<!DOCTYPE svg PUBLIC "-//W3C//DTD SVG 1.1//EN" "http://www.w3.org/Graphics/SVG/1.1/DTD/svg11.dtd">
<svg version="1.1" id="Слой_1" xmlns="http://www.w3.org/2000/svg" xmlns:xlink="http://www.w3.org/1999/xlink" x="0px" y="0px"
	 viewBox="0 0 595.3 841.9" enable-background="new 0 0 595.3 841.9" xml:space="preserve">
<g>
	<path fill="#323232" d="M595.3,366.8c0-5.4-3.9-7.7-9.3-7.7h-83.5V305h-2.3c5.4,0,10.1-2.3,10.1-7.7c0-5.4-4.6-7.7-10.1-7.7h-58.8
		c-5.4,0-10.1,2.3-10.1,7.7c0,5.4,4.6,7.7,10.1,7.7h-0.8v54.1h-46.4V305h3.1c5.4,0,10.1-2.3,10.1-7.7c0-5.4-4.6-7.7-10.1-7.7h-66.5
		c-5.4,0-10.1,2.3-10.1,7.7c0,5.4,4.6,7.7,10.1,7.7h1.5v54.1h-38.7V189h-61.8v23.2v246.6l-101.3-48.7c-3.1-1.5-6.2-1.5-9.3,0
		l-116,55.7c-3.9,1.5-5.4,5.4-5.4,9.3v170.1h595.3V366.8z M487,305v23.2h-30.9V305H487z M456.1,343.6H487v15.5h-30.9V343.6z
		 M378.8,305v23.2h-30.9V305H378.8z M347.9,343.6h30.9v15.5h-30.9V343.6z M278.3,204.5v30.9h-30.9v-30.9H278.3z M15.5,479.7
		l110.6-51l105.9,50.3v150.8h-23.2v-116H46.4v116H15.5V479.7z M193.3,552.4H61.8v-23.2h131.4V552.4z M61.8,567.8h131.4V591H61.8
		V567.8z M61.8,629.7v-23.2h131.4v23.2H61.8z M247.4,629.7V250.9h30.9v116c0,4.6,3.1,7.7,7.7,7.7h293.8v255.1H247.4z"/>
	<path fill="#323232" d="M541.2,498.3h-55.7c-5.4,0-7,2.3-7,7.7v71.9c0,5.4,0.8,12.4,7,12.4h55.7c5.4,0,7.7-7,7.7-4.6v-71.9
		C548.9,500.6,547.3,498.3,541.2,498.3L541.2,498.3z M533.4,513.7v23.2h-38.7v-23.2H533.4z M494.8,575.6v-23.2h38.7v23.2H494.8z"/>
	<path fill="#323232" d="M441.4,405.5h-54.9c-5.4,0-7.7,6.2-7.7,12.4v44.1c0,5.4,1.5,13.1,7.7,13.1h55.7c5.4,0,7-7.7,7-13.1v-44.1
		C448.4,411.7,447.6,405.5,441.4,405.5L441.4,405.5z M432.9,459.6h-38.7v-38.7h38.7V459.6z"/>
	<path fill="#323232" d="M440.7,498.3H385c-5.4,0-7,2.3-7,7.7v71.9c0,5.4,0.8,12.4,7,12.4h55.7c5.4,0,7.7-7,7.7-4.6v-71.9
		C448.4,500.6,446.8,498.3,440.7,498.3L440.7,498.3z M432.9,513.7v23.2h-38.7v-23.2H432.9z M394.3,575.6v-23.2h38.7v23.2H394.3z"/>
	<path fill="#323232" d="M340.2,498.3h-55.7c-5.4,0-7,2.3-7,7.7v71.9c0,5.4,0.8,12.4,7,12.4h55.7c5.4,0,7.7-7,7.7-4.6v-71.9
		C347.9,500.6,346.3,498.3,340.2,498.3L340.2,498.3z M332.4,513.7v23.2h-38.7v-23.2H332.4z M293.8,575.6v-23.2h38.7v23.2H293.8z"/>
	<path fill="#323232" d="M541.9,405.5H487c-5.4,0-7.7,6.2-7.7,12.4v44.1c0,5.4,1.5,13.1,7.7,13.1h55.7c5.4,0,7-7.7,7-13.1v-44.1
		C548.9,411.7,548.1,405.5,541.9,405.5L541.9,405.5z M533.4,459.6h-38.7v-38.7h38.7V459.6z"/>
	<path fill="#323232" d="M340.9,405.5H286c-5.4,0-7.7,6.2-7.7,12.4v44.1c0,5.4,1.5,13.1,7.7,13.1h55.7c5.4,0,7-7.7,7-13.1v-44.1
		C347.9,411.7,347.1,405.5,340.9,405.5L340.9,405.5z M332.4,459.6h-38.7v-38.7h38.7V459.6z"/>
	<g>
		<path fill="#33A5B1" d="M396.6,228.4c3.1-3.9,5.4-8.5,5.4-13.9c0-11.6-10.1-21.6-21.6-21.6c-5.4,0-10.8,2.3-14.7,6.2
			c-3.1-1.5-6.2-2.3-9.3-2.3c-16.2,0-29.4,13.1-29.4,29.4c0,12.4,7,22.4,17.8,27.1c-0.8,2.3-1.5,4.6-1.5,7.7
			c0,11.6,10.1,21.6,21.6,21.6c10.8,0,19.3-7.7,21.6-17.8c10.1-1.5,17.8-10.8,17.8-21.6C403.6,237.7,400.5,232.3,396.6,228.4z"/>
		<path fill="#33A5B1" d="M515.7,230.8c0-10.8-7.7-20.1-18.6-22.4c-2.3-10.8-10.8-18.6-22.4-18.6c-12.4,0-22.4,10.1-22.4,22.4
			c0,3.1,0.8,5.4,1.5,8.5c-10.8,4.6-18.6,15.5-18.6,27.8c0,17,13.9,30.9,30.9,30.9c3.1,0,6.2-0.8,9.3-1.5c3.9,3.9,9.3,6.2,15.5,6.2
			c12.4,0,22.4-10.1,22.4-22.4c0-5.4-2.3-10.8-5.4-14.7C513.3,243.1,515.7,236.9,515.7,230.8z"/>
	</g>
</g>
</svg>
