<?xml version="1.0" encoding="utf-8"?>
<!-- Generator: Adobe Illustrator 19.2.1, SVG Export Plug-In . SVG Version: 6.00 Build 0)  -->
<svg version="1.1" id="Слой_1" xmlns="http://www.w3.org/2000/svg" xmlns:xlink="http://www.w3.org/1999/xlink" x="0px" y="0px"
	 viewBox="0 0 595.3 841.9" style="enable-background:new 0 0 595.3 841.9;" xml:space="preserve">
<style type="text/css">
	.st0{fill:#323232;}
	.st1{fill:#3AA5B1;}
</style>
<g id="g3494" transform="translate(-363.5,-524.6)">
	<path id="path3496" class="st0" d="M675.9,1366.2H385.2c-6.1,0-8.5-1.3-8.5-6.1V892.4c0-6.1,2.4-11,8.5-11h137V639.2h436.2v727.1
		H675.9z M643.3,1341.9h290.7V663.5H546.3v218.2h96.9v460.3H643.3z M400.9,1354h242.3V905.8H400.9V1354z M633.6,1281.4h-82.4
		c-6.1,0-4.9-4.9-4.9-9.7v-48.4c0-6.1,0-14.6,4.9-14.6h82.4c6.1,0,9.7,8.5,9.7,14.6v48.4C643.3,1276.6,639.6,1281.4,633.6,1281.4
		L633.6,1281.4z M558.4,1257.1H619v-24.3h-60.7V1257.1z M509.9,1281.4h-82.4c-6.1,0-14.6-4.9-14.6-9.7v-48.4
		c0-6.1,9.7-14.6,14.6-14.6h82.4c6.1,0,12.1,8.5,12.1,14.6v48.4C522,1276.6,516.1,1281.4,509.9,1281.4L509.9,1281.4z M437.2,1257.1
		h60.7v-24.3h-60.7V1257.1z M633.6,1184.4h-82.4c-6.1,0-4.9-1.3-4.9-7.2v-48.4c0-6.1,0-4.9,4.9-4.9h82.4c6.1,0,9.7,0,9.7,4.9v48.4
		C643.3,1183.2,639.6,1184.4,633.6,1184.4L633.6,1184.4z M558.4,1172.4H619V1136h-60.7V1172.4z M509.9,1184.4h-82.4
		c-6.1,0-14.6-1.3-14.6-7.2v-48.4c0-6.1,9.7-4.9,14.6-4.9h82.4c6.1,0,12.1,0,12.1,4.9v48.4C522,1183.2,516.1,1184.4,509.9,1184.4
		L509.9,1184.4z M437.2,1172.4h60.7V1136h-60.7V1172.4z M633.6,1099.6h-82.4c-6.1,0-4.9-11-4.9-15.8v-48.4c0-6.1,0-8.5,4.9-8.5h82.4
		c6.1,0,9.7,2.4,9.7,8.5v48.4C643.3,1088.7,639.6,1099.6,633.6,1099.6L633.6,1099.6z M558.4,1075.3H619V1051h-60.7V1075.3z
		 M509.9,1099.6h-82.4c-6.1,0-14.6-11-14.6-15.8v-48.4c0-6.1,9.7-8.5,14.6-8.5h82.4c6.1,0,12.1,2.4,12.1,8.5v48.4
		C522,1088.7,516.1,1099.6,509.9,1099.6L509.9,1099.6z M437.2,1075.3h60.7V1051h-60.7V1075.3z M633.6,1002.6h-82.4
		c-6.1,0-4.9-7.2-4.9-13.3v-48.4c0-6.1,0-11,4.9-11h82.4c6.1,0,9.7,4.9,9.7,11v48.4C643.3,995.4,639.6,1002.6,633.6,1002.6
		L633.6,1002.6z M558.4,978.5H619v-24.3h-60.7V978.5z M509.9,1002.6h-82.4c-6.1,0-14.6-7.2-14.6-13.3v-48.4c0-6.1,9.7-11,14.6-11
		h82.4c6.1,0,12.1,4.9,12.1,11v48.4C522,995.4,516.1,1002.6,509.9,1002.6L509.9,1002.6z M437.2,978.5h60.7v-24.3h-60.7V978.5z
		 M594.7,760.3v-72.7h72.7v72.7H594.7z M619,736.2h24.3v-24.3H619V736.2z M703.8,760.3v-72.7h72.7v72.7H703.8z M728.1,736.2h24.3
		v-24.3h-24.3V736.2z M812.9,760.3v-72.7h72.7v72.7H812.9z M837.2,736.2h24.3v-24.3h-24.3V736.2z M594.7,869.4v-72.7h72.7v72.7
		H594.7z M619,845.1h24.3v-24.3H619V845.1z M703.8,869.4v-72.7h72.7v72.7H703.8z M728.1,845.1h24.3v-24.3h-24.3V845.1z M812.9,869.4
		v-72.7h72.7v72.7H812.9z M837.2,845.1h24.3v-24.3h-24.3V845.1z M703.8,978.5v-72.7h72.7v72.7H703.8z M728.1,954.2h24.3v-24.3h-24.3
		V954.2z M812.9,978.5v-72.7h72.7v72.7H812.9z M837.2,954.2h24.3v-24.3h-24.3V954.2z M703.8,1087.6v-72.7h72.7v72.7H703.8z
		 M728.1,1063.3h24.3V1039h-24.3V1063.3z M812.9,1087.6v-72.7h72.7v72.7H812.9z M837.2,1063.3h24.3V1039h-24.3V1063.3z
		 M703.8,1196.5v-72.7h72.7v72.7H703.8z M728.1,1172.4h24.3v-24.3h-24.3V1172.4z M812.9,1196.5v-72.7h72.7v72.7H812.9z
		 M837.2,1172.4h24.3v-24.3h-24.3V1172.4z M728.1,1366.2V1233h133.2v133.2H728.1z M752.3,1341.9H837v-84.8h-84.8V1341.9z"/>
</g>
<rect id="rect3498" x="1" y="356.9" class="st1" width="315" height="484.6"/>
</svg>
