<?xml version="1.0" encoding="utf-8"?>
<!-- Generator: Adobe Illustrator 18.0.0, SVG Export Plug-In . SVG Version: 6.00 Build 0)  -->
<!DOCTYPE svg PUBLIC "-//W3C//DTD SVG 1.1//EN" "http://www.w3.org/Graphics/SVG/1.1/DTD/svg11.dtd">
<svg version="1.1" id="Слой_1" xmlns="http://www.w3.org/2000/svg" xmlns:xlink="http://www.w3.org/1999/xlink" x="0px" y="0px"
	 viewBox="0 0 319 304.8" style="enable-background:new 0 0 319 304.8;" xml:space="preserve">
<style type="text/css">
	.st0{clip-path:url(#SVGID_2_);}
	.st1{fill:#33A5B1;}
</style>
<g>
	<g>
		<defs>
			<rect id="SVGID_1_" x="0" y="0" width="319" height="304.8"/>
		</defs>
		<clipPath id="SVGID_2_">
			<use xlink:href="#SVGID_1_"  style="overflow:visible;"/>
		</clipPath>
		<path class="st0" d="M318.5,204.7c-8.8-49.6-24.1-97.8-45.5-143.3c-4.8-10.2-15.1-16.5-26.4-16.1c-21.4,0.8-41.8,5.3-61,13.5
			c-0.1-1.1-0.1-2.3-0.3-3.4c-3.8-34-34.5-58.5-68.5-54.7C89.4,3.7,67.6,24.3,62.7,50.8l-15.7-4c-10-2.5-20.1,2.8-23.7,12.4
			l-21.7,59c-1.9,5.3-1.6,11.2,1.1,16.2c2.6,5,7.3,8.6,12.7,10l17.7,4.5l-1.7,23.4l-9.3,16.4c-0.5,0.8-0.7,1.7-0.8,2.7l-1.2,24.7
			l-7,9.1c-0.7,0.9-1.1,2-1.2,3.2l-2.2,29.1l-8.8,14.8c-1.3,2.1-1.1,4.7,0.3,6.7L18,301.4c1.2,1.5,2.9,2.4,4.8,2.4
			c0.6,0,1.2-0.1,1.9-0.3l31.3-10.2c2-0.6,3.4-2.2,4-4.2l32-125.2l16.7,4.3c1.6,0.4,3.3,0.6,4.9,0.6c3.9,0,7.8-1.1,11.1-3.3
			c4.7-3.1,7.9-8.1,8.7-13.7l4.3-29.2c4.2-1,8.3-2.3,12.1-4.1c9.1,43.6,23.3,86,42.3,126.3c4.7,9.9,14.5,16.1,25.3,16.1
			c0.4,0,0.7,0,1.1,0c31.7-1.2,61.3-10.6,87.9-27.9C315.6,226.9,320.4,215.8,318.5,204.7L318.5,204.7z M65.8,84.9c0,0,0.1,0,0.1,0
			c1.5,3.9,3.4,7.6,5.7,11.1c1.2,1.8,3.1,2.7,5,2.7c1.1,0,2.3-0.3,3.3-1c2.8-1.8,3.6-5.5,1.8-8.3c-0.2-0.3-0.4-0.6-0.5-0.9l10.3,2.6
			c3.4,0.9,5.5,4.4,4.6,7.8c-0.9,3.4-4.4,5.5-7.8,4.6l-24-6.1c-1.7-0.4-3.1-1.5-3.9-2.9c-0.9-1.5-1.1-3.2-0.7-4.9
			c0.4-1.7,1.5-3,2.9-3.9C63.6,85.2,64.7,84.9,65.8,84.9L65.8,84.9z M20.7,262.5c0.5-0.8,0.8-1.7,0.8-2.6l2.2-28.7l7.1-9.2
			c0.8-1,1.2-2.2,1.2-3.4l1.2-25.2l9.3-16.3c0.4-0.8,0.7-1.6,0.8-2.5l1.6-22.6l8.4,2.1L20.1,284.2l-6.9-9.2L20.7,262.5z M80.2,161
			L49.1,283l-17.8,5.8l33.6-131.7l10.3,2.6L80.2,161z M121.3,150.1c-0.3,2.3-1.6,4.2-3.5,5.5c-1.9,1.3-4.2,1.6-6.4,1.1l-93.1-23.8
			c-2.2-0.6-4-2-5.1-4c-1.1-2-1.2-4.3-0.4-6.4l21.7-59c1.4-3.8,5.5-6,9.4-5L61.7,63c0,2.1,0.1,4.1,0.4,6.2c0.2,1.3,0.4,2.7,0.6,4
			c-2.2,0.4-4.3,1.1-6.2,2.3c-4.2,2.5-7.2,6.5-8.4,11.3c-1.2,4.8-0.5,9.7,2,13.9c2.5,4.2,6.5,7.2,11.3,8.4l24,6.1
			c1.5,0.4,3.1,0.6,4.6,0.6c3.3,0,6.5-0.9,9.4-2.6c4.2-2.5,7.2-6.5,8.4-11.3c1.2-4.8,0.5-9.7-2-13.9c-2.5-4.2-6.5-7.2-11.3-8.4
			l-19.2-4.9c-0.6-2.3-1-4.6-1.3-6.9c-0.1-0.6-0.1-1.2-0.2-1.7l50.9,13c4,1,6.5,4.8,5.9,8.9L121.3,150.1z M139.5,109.7l3-20
			c1.5-10.2-4.8-19.7-14.8-22.3L74.4,53.8c3.7-21.8,21.4-38.8,43.8-41.3c27.4-3.1,52.2,16.8,55.2,44.1c0.3,2.6,0.4,5.2,0.3,7.7
			c-5.1,2.6-10.1,5.6-15,8.8c-9.4,6.1-14.2,17.3-12.2,28.3c0.3,1.6,0.6,3.2,0.9,4.8C144.8,107.7,142.2,108.8,139.5,109.7
			L139.5,109.7z M299.7,223c-24.8,16.1-52.3,24.9-81.8,26c-6.4,0.2-12.3-3.4-15.1-9.2c-19.2-40.7-33.3-83.6-42.2-127.7
			c6.9-5.1,12.7-11.7,17.1-19.4c1.6-2.9,0.6-6.5-2.3-8.2c-2.9-1.6-6.5-0.6-8.2,2.3c-2.5,4.4-5.6,8.4-9.2,11.8c-0.7-6,2-12,7.1-15.3
			c24.8-16.1,52.3-24.9,81.8-26c0.2,0,0.4,0,0.6,0c6.2,0,11.8,3.6,14.5,9.2c21,44.6,36,91.8,44.6,140.3
			C307.8,213.1,305,219.5,299.7,223L299.7,223z M299.7,223"/>
	</g>
	<path d="M188.1,121.8l62.5-19.9c3.2-1,4.9-4.4,3.9-7.5c-1-3.2-4.4-4.9-7.5-3.9l-62.5,19.9c-3.2,1-4.9,4.4-3.9,7.5
		c0.8,2.6,3.2,4.2,5.7,4.2C186.9,122.1,187.5,122,188.1,121.8L188.1,121.8z M188.1,121.8"/>
	<path d="M260.3,112.7c-1-3.2-4.4-4.9-7.5-3.9l-62.5,19.9c-3.2,1-4.9,4.4-3.9,7.5c0.8,2.6,3.2,4.2,5.7,4.2c0.6,0,1.2-0.1,1.8-0.3
		l62.5-19.9C259.6,119.3,261.3,115.9,260.3,112.7L260.3,112.7z M260.3,112.7"/>
	
		<rect x="231.9" y="160.9" transform="matrix(0.3035 0.9528 -0.9528 0.3035 361.6635 -96.8692)" class="st1" width="30.4" height="76.1"/>
</g>
</svg>
