<?xml version="1.0" encoding="utf-8"?>
<!-- Generator: Adobe Illustrator 18.0.0, SVG Export Plug-In . SVG Version: 6.00 Build 0)  -->
<!DOCTYPE svg PUBLIC "-//W3C//DTD SVG 1.1//EN" "http://www.w3.org/Graphics/SVG/1.1/DTD/svg11.dtd">
<svg version="1.1" id="Слой_1" xmlns="http://www.w3.org/2000/svg" xmlns:xlink="http://www.w3.org/1999/xlink" x="0px" y="0px"
	 viewBox="0 0 327.8 327.8" style="enable-background:new 0 0 327.8 327.8;" xml:space="preserve">
<style type="text/css">
	.st0{fill:#33A5B1;}
</style>
<rect x="65.5" y="65.3" transform="matrix(0.7044 0.7098 -0.7098 0.7044 94.5998 -38.4816)" class="st0" width="56" height="58"/>
<rect x="206.5" y="204.3" transform="matrix(0.7044 0.7098 -0.7098 0.7044 234.9395 -97.4757)" class="st0" width="56" height="58"/>
<rect x="206.5" y="66.3" transform="matrix(0.7044 0.7098 -0.7098 0.7044 136.9892 -138.2688)" class="st0" width="56" height="58"/>
<rect x="65.8" y="203.7" transform="matrix(0.7044 0.7098 -0.7098 0.7044 192.8902 2.1754)" class="st0" width="56" height="58"/>
<g>
	<path d="M96.2,124.3c-0.4,0.6-0.7,1.1-1,1.6C95.5,125.3,95.8,124.8,96.2,124.3L96.2,124.3z M96.2,124.3"/>
	<path d="M95.2,201.9c0.3,0.5,0.7,1,1,1.6C95.8,202.9,95.5,202.4,95.2,201.9L95.2,201.9z M95.2,201.9"/>
	<path d="M231.5,203.5c0.4-0.5,0.7-1.1,1-1.6C232.3,202.4,231.9,202.9,231.5,203.5L231.5,203.5z M231.5,203.5"/>
	<path d="M276.3,87.2c-9.6-14-21.8-26.2-35.8-35.8C228.1,21.3,198.4,0,163.9,0c-34.6,0-64.2,21.3-76.6,51.5
		c-14,9.6-26.2,21.8-35.8,35.8C21.3,99.6,0,129.3,0,163.9c0,34.6,21.3,64.3,51.5,76.6c9.6,14,21.8,26.2,35.8,35.8
		c12.4,30.2,42.1,51.5,76.6,51.5c34.6,0,64.2-21.3,76.6-51.5c14-9.6,26.2-21.8,35.8-35.8c30.2-12.4,51.5-42.1,51.5-76.6
		C327.8,129.3,306.4,99.6,276.3,87.2L276.3,87.2z M236.3,62.2c11.8,8.4,22,18.8,30.3,30.7l-34,33c-1.3-2-2.9-4.4-4.8-7
		c-6-8.2-14.9-18.2-25.7-24l31.4-29.9c0,0,0,0,0,0L236.3,62.2z M97.8,163.9c0-36.5,29.7-66.1,66.1-66.1c36.5,0,66.1,29.7,66.1,66.1
		c0,36.4-29.7,66.1-66.1,66.1C127.4,230,97.8,200.3,97.8,163.9L97.8,163.9z M163.9,11.2c23.8,0,44.9,11.6,57.9,29.5
		c-17.6-8.3-37.2-12.9-57.9-12.9c-20.7,0-40.3,4.7-57.9,12.9C119,22.8,140.1,11.2,163.9,11.2L163.9,11.2z M163.9,39
		c22.9,0,44.3,6.2,62.8,16.9L189.8,91c-8.1-2.9-16.8-4.5-25.9-4.5c-9.1,0-17.8,1.6-25.9,4.5l-36.8-35.1C119.6,45.2,141,39,163.9,39
		L163.9,39z M91.4,62.2l34.3,32.7c-10.8,5.8-19.7,15.9-25.8,24.1c-1.4,1.9-2.6,3.7-3.7,5.3c-0.4,0.6-0.7,1.1-1,1.6l-34-33
		C69.4,81,79.7,70.6,91.4,62.2L91.4,62.2z M40.7,106c-8.3,17.6-12.9,37.2-12.9,57.9c0,20.7,4.7,40.3,12.9,57.9
		c-17.9-13-29.5-34.1-29.5-57.9C11.2,163.9,9.9,132.5,40.7,106L40.7,106z M39,163.9c0-22.3,5.9-43.2,16.1-61.3l36.1,35
		c-3,8.2-4.6,17.1-4.6,26.3c0,9.2,1.6,18.1,4.6,26.3l-36.1,35C44.8,207,39,186.1,39,163.9L39,163.9z M61.2,234.9l34-33
		c0.3,0.5,0.7,1,1,1.6c1.1,1.6,2.3,3.4,3.7,5.3c6,8.2,15,18.3,25.8,24.2l-29,27.6l-5.2,5C79.7,257.2,69.4,246.8,61.2,234.9
		L61.2,234.9z M163.9,316.6c-23.8,0-44.9-11.6-57.9-29.5c17.6,8.3,37.2,12.9,57.9,12.9c20.7,0,40.3-4.7,57.9-12.9
		C208.7,304.9,187.6,316.6,163.9,316.6L163.9,316.6z M163.9,288.8c-22.9,0-44.3-6.2-62.8-16.9l36.8-35.1c8.1,2.9,16.8,4.5,25.9,4.5
		c9.1,0,17.8-1.6,25.9-4.5l36.8,35.1C208.2,282.6,186.7,288.8,163.9,288.8L163.9,288.8z M236.3,265.6l-2.8-2.6l0,0l-31.5-30
		c10.9-5.9,19.9-16,25.9-24.3c1.3-1.8,2.6-3.6,3.6-5.2c0.4-0.5,0.7-1.1,1-1.6l34,33C258.3,246.8,248.1,257.2,236.3,265.6
		L236.3,265.6z M272.7,225.2l-36.1-35c3-8.2,4.6-17.1,4.6-26.3c0-9.2-1.6-18.1-4.6-26.3l36.1-35c10.2,18.1,16.1,39,16.1,61.3
		C288.8,186.1,282.9,207,272.7,225.2L272.7,225.2z M287,221.8c8.3-17.6,12.9-37.2,12.9-57.9c0-20.7-4.6-40.3-12.9-57.9
		c17.9,13,29.5,34.1,29.5,57.9C316.6,187.6,304.9,208.7,287,221.8L287,221.8z M287,221.8"/>
</g>
</svg>
