<?xml version="1.0" encoding="utf-8"?>
<!-- Generator: Adobe Illustrator 18.0.0, SVG Export Plug-In . SVG Version: 6.00 Build 0)  -->
<!DOCTYPE svg PUBLIC "-//W3C//DTD SVG 1.1//EN" "http://www.w3.org/Graphics/SVG/1.1/DTD/svg11.dtd">
<svg version="1.1" id="Слой_1" xmlns="http://www.w3.org/2000/svg" xmlns:xlink="http://www.w3.org/1999/xlink" x="0px" y="0px"
	 viewBox="0 0 535.5 199.3" enable-background="new 0 0 535.5 199.3" xml:space="preserve">
<g>
	<g>
		<path fill-rule="evenodd" clip-rule="evenodd" fill="#629FAE" d="M14.5,173.2l0.1,0l0.3,0.1l58.5,25.9l58.9-26.2l0.3-0.1
			c6.1-3.8,12.5-8.8,13.9-18.8l0-154.1H0v153.2C1,163.6,8.3,169.4,14.5,173.2z M2,1h143c0,2,0,152.7,0,152.7
			c-1,9.3-7.4,14.3-13.2,17.9c-0.1,0.1-58,25.8-58,25.8s-0.2,0.1-0.4,0.2c-0.2-0.1-57.9-25.6-57.9-25.6c-6-3.7-12.8-9.2-13.6-18.9
			C1.9,153,2,3,2,1z"/>
		<g>
			<path fill="#629FAE" d="M76.8,8.1c19.9,0,21.4,26,3.6,29.9c0.8-0.3,1.2-0.9,0.6-2.1c1.7-0.2,1.8-1.8,1.8-3c2.5-1,3.2-3.8,3.6-5.9
				c1.3-6.3-5.4-12.6-12.2-12.6c-1.9,0-3.8,0.5-5.5,1.6c-2.8,1.8-6.4,8.5-3.2,11.1c0.8,2.8,4.8,5.2,4.6,10.7
				c-0.3-0.2-1.1-0.5-1.4-0.7c-3.7-2.1-6.5-6.6-6.5-11.4c-0.4-7.1,4.7-16.6,13.1-17.5C75.7,8.1,76.2,8.1,76.8,8.1 M18.4,10.3
				c-1.8,4.8,1.5,13.5,3.6,13.5c0.7,0,1.3-1,1.5-3.6c5.4,14-2.1,26.5,1.2,42.4l-3.4,2.2c-5.9-9.2,3-21.7-5.3-33.6c0.9,1,2.4,1,3,1.4
				C17.6,23.9,12.8,19.9,18.4,10.3 M74.5,15.6c0.1,0,0.2,0,0.3,0c0.5,0,1,0.1,1.5,0.5c0.1,0,0.1-0.1,0.2-0.1c-0.1,0-0.1,0-0.2,0
				c-0.5,0-1.1,0.5-1.5,0.7c-1.6,0.6-2.4,1.5-3.3,3.2l-0.1,0c-0.2-0.5-0.2-1,0-1.7C71.8,16.8,73,15.6,74.5,15.6 M72,16L72,16
				 M71.5,15.9c0,0.1-0.1,0.2-0.2,0.2c-1.3,1.8-1.2,2.6-1,4.6c-0.5-0.2-0.9-0.5-1.1-1c-0.2-0.6-0.2-1.3,0-2c0.3-0.8,1-1.5,2.1-1.8
				C71.4,15.9,71.5,15.9,71.5,15.9 M50.6,16.1c2.9,0,4.4,1.6,5.4,5.9v0.3l-1.6-1.2l1.3,1.5c-0.1,0.1-0.1,0.2-0.1,0.4
				c0,0.6-0.2,1.2-0.4,1.8l-2.5-2l2.3,2.3c-0.2,0.5-0.5,1.1-0.8,1.6l-2.9-2.2l2.7,2.6c-0.3,0.5-0.6,1-1,1.4l-3.2-2.2l2.9,2.6
				c-0.3,0.5-0.7,0.9-1,1.4l-3.3-2.1l3,2.5c-0.3,0.5-0.7,0.9-1,1.4l-3.1-1.9c0.1-1.3,0.3-3.4-1-3.4c-0.3,0-0.6,0.1-1.1,0.4
				c-2.1,1.8-3.7,3.5-5.1,5.2c-5.8,7.1-6,13-7.2,22.4c2.1-9.5,2.9-15.7,7.2-20c1.7-1.7,4-3.2,7.1-4.5c0,0,0-0.1,0-0.1l2.9,2.2
				c-0.3,0.5-0.6,1-0.8,1.5l-3.5-2l3.4,2.4c-0.2,0.5-0.4,1.1-0.5,1.6l-4-2.1l3.9,2.7c-0.1,0.6-0.1,1.2,0,1.8l-5-2.5l5.1,3.2
				c0.1,0.6,0.3,1.2,0.6,1.8l-6.8-3.1l7.6,4.5c0.4,0.5,0.8,1.1,1.3,1.7l-9.9-4.2l13.1,7.2l0.1-0.2c0,0,0.1,0,0.1,0.1l-0.3,0.3
				l-13.9-5.3l12.7,6.5l-0.2,0.2l-13.4-4.6L52,49.6l-0.3,0.3L39,46L50.6,51l-0.4,0.4l-12-3.3l10.9,4.4L48.6,53l-1.4-0.4
				c-0.2-0.1-0.3-0.1-0.5-0.1c0,0,0,0-0.1,0l-9.1-2.2l7.9,2.9c-0.2,0.2-0.4,0.6-0.6,1L37,52.4l7.7,2.5c-0.1,0.3-0.1,0.7-0.1,1.1
				l-8.1-1.5l8,2.4c-0.1,0.3-0.2,0.6-0.2,1.1L36,56.8l7.2,1.9c-0.7,0.3-1.4,0.7-2,1l-5.5-0.6l4.7,1.1l-0.1,0
				c-0.8,0.4-1.6,0.9-2.3,1.3l-2.6-0.2l2.3,0.4c-2.6,1.6-5.1,3.2-7.6,4.9l-0.1-1.3L27.7,68C27,67,25,66.6,22.9,66.6
				c-2.4,0-4.8,0.6-5.6,2l-2.5-2.4l2-2.5c0.5,1,1.4,1.5,2.6,1.8c0.5,0.1,1,0.1,1.5,0.1c0.3,0,0.6,0,0.9-0.1c0.8-0.1,1.8-0.2,2.5-0.5
				l0,0.1c1.3-0.5,2.4-1.2,2.8-2l2.5,2.3L29,55.6c-0.5-14.4,3-25,7.6-31.6c0.8-1.2,2.3-2.5,3.8-3.7C43.5,18,47.5,16.1,50.6,16.1
				 M104.5,16.2c3.1,0,7.1,1.9,10.1,4.2c1.5,1.2,2.8,2.5,3.7,3.8c4.6,6.7,8.1,17.2,7.4,31.7l-4.9,96.4c-0.1,1.4,2,9.5,4.9,11.8
				c-7-1.9-10.2-7.4-11.4-15.6c-0.8-6-0.6-13.5,0.1-22.3c0.8-10.9,2.2-23.8,2.9-38.1l0.4,0.1l-0.4-0.1c0-0.7,0.1-1.5,0.1-2.2
				l0.8,0.1l-0.8-0.2c0-0.7,0-1.4,0.1-2.1l1.2,0.1l-1.2-0.3c0-0.7,0-1.4,0.1-2.1l1.5,0.1l-1.5-0.3c0-0.7,0-1.4,0.1-2l1.7,0.1
				l-1.7-0.3c0-0.1,0-0.2,0-0.3l0,0.3l-5.1-0.8c0.1-0.4,0.1-0.9,0.2-1.3l6.9,0.2l-6.8-0.9c0.1-0.4,0.1-0.9,0.2-1.3l6.8,0l-6.7-0.7
				c0-0.1,0-0.2,0-0.2l-0.1,0.2l-5.4-0.5c0.1-0.2,0.1-0.4,0.2-0.6l12.1-0.4L108,71.7c0.1-0.2,0.1-0.4,0.2-0.6l11.6-0.8l-11.2-0.4
				c0.1-0.2,0.1-0.5,0.2-0.7l11-1.1L109,68c0.1-0.3,0.1-0.5,0.2-0.8l10.5-1.4L109.3,66c0.1-0.3,0.1-0.6,0.2-0.9l9.9-1.6l-9.8,0.5
				c0.1-0.3,0.1-0.6,0.1-0.9l9.4-1.8l-9.2,0.8c0-0.3,0.1-0.7,0.1-1l8.8-2l-8.7,1c0-0.4,0.1-0.7,0.1-1.1l8.2-2.1l-8.2,1.2
				c0-0.4,0-0.8,0-1.1l7.7-2.3l-7.8,1.4c0-0.4-0.1-0.8-0.2-1.2l7.4-2.4l-7.7,1.6c-0.2-0.4-0.4-0.8-0.7-1l7.8-2.8l-10.5,2.6l-0.4-0.6
				l10.3-4.1l-11,3.1l-0.4-0.6l10.6-4.6l-11.3,3.5l-0.3-0.5l10.8-5.1l-11.6,4l-0.3-0.5l11-5.6L102,46.3l-0.3-0.4l11.1-6.1l-9.2,3.9
				c0.5-0.6,1-1.2,1.3-1.8l6.9-4.1l-6.3,2.9c0.3-0.6,0.5-1.3,0.6-1.9l4.7-3l-4.6,2.3c0-0.6,0-1.2-0.1-1.8l3.6-2.4l-3.7,2
				c-0.1-0.6-0.3-1.1-0.6-1.6l3.1-2.3l-3.3,1.9c-0.3-0.5-0.5-1-0.9-1.5l2.9-2.3l-3.1,1.9c-0.3-0.5-0.7-1-1-1.4l2.8-2.3l-3,2
				c-0.3-0.5-0.7-1-1-1.4l2.7-2.4l-2.9,2.1c-0.3-0.5-0.7-1-1-1.5l2.5-2.4l-2.7,2c-0.3-0.6-0.6-1.1-0.8-1.7l2-2l-2.3,1.7
				C99.3,24,99,23.5,99,23v-1c0,0,0,0,0,0l1.1-1l-0.8,0.8C99.5,17.8,101.7,16.2,104.5,16.2 M121.7,54.9c-1.2-9.5-1.3-15.4-7.1-22.5
				c-1.3-1.7-3-3.4-5-5.2c-0.4-0.2-0.8-0.4-1.1-0.4c-1.3,0-1,2.2-0.9,3.5c3.1,1.3,5.3,2.8,7,4.5C118.9,39.2,119.8,45.3,121.7,54.9
				 M77.6,17.1c1.4,0,2.6,0.6,3,2.2c-1.1-0.5-2.2-0.8-3.4-0.8c-0.3,0-0.7,0-1,0.1c-0.5,0.1-1,0.2-1.5,0.5c-0.5,0.2-1.1,0.4-1.7,0.7
				c0.2-0.6,0.8-1.2,1.7-1.7c0.5-0.3,0.9-0.5,1.5-0.7C76.6,17.1,77.1,17.1,77.6,17.1 M67.5,19c0.4,1.4,0.7,1.5,1.7,2.1
				c0.1,0.1,0.1,0.1,0.2,0.2c-0.1,0-0.1,0.1-0.2,0.1c-0.2,0.2-0.5,0.3-0.8,0.3C67.5,21.5,66.7,20.5,67.5,19 M78.6,19.5
				c0.7,0,1.4,0.1,2,0.3c1.1,0.4,2.1,1.1,2.3,2.1L83,23v0.2c-1-0.9-1.6-1.6-2.3-2.1c-1.2-0.8-2.7-1.2-4.6-1.2h-0.1c0,0,0.1,0,0.1,0
				C76.7,19.6,77.6,19.5,78.6,19.5 M72.9,20.8c0.3,0,0.5,0,0.8,0.1c0.1,0,0.2,0.1,0.3,0.1c2.7,0.8,3.1,3.1,3.7,4.3
				c1,2,1.6,6.2,0,8.1c-0.8,1-2.5,1.6-4,2.6h-0.8c-1.2-1-2.4-1.8-2.9-3.1c-0.2-0.5-0.5-1.2-0.7-1.9c-0.2-0.6-0.5-1.4-0.8-1.9
				c0.3,0.3,0.5,0.5,0.7,0.5c0,0,0.1,0,0.1,0c0.2,0,0.3-0.1,0.4-0.2c0.1-0.2,0.1-0.1,0.2-0.2c0.5,0.8,0.8,1.5,0.8,2.6
				c0.3,0.4,0.7,0.5,1,0.5c0.5,0,0.9-0.4,1.1-0.8c0-0.1-0.2-0.3-0.4-0.3c-0.1,0-0.1,0-0.2,0c-0.2,0.2-0.4,0.3-0.5,0.3
				c-0.4,0-0.6-0.5-0.6-1.2l-0.8-3.3l-0.6-0.5c-0.1,0-0.2,0-0.3,0.1c-0.5,0.2-1.3,0.9-1.3,1.3c-1.3-1.2-1.8-3.7,0.2-5.2
				c0.2-0.1,0.6-0.4,1.1-0.7C70.2,21.4,71.6,20.8,72.9,20.8 M73.4,27.6c0.1,0,0.2,0,0.2,0c0.5-0.1,0.8-0.2,1.1-0.5
				c0.8-0.6,0.1-1.2,1.2-1.2c0.1,0,0.1,0,0.2,0c0-0.5-0.8-1.3-2.1-1.3c-0.2,0-0.3,0-0.5,0c-0.2,0-0.3,0.1-0.5,0.1
				c-0.8,0.5-2.9,0.7-2.2,1.7C71.4,27.2,72.4,27.6,73.4,27.6 M71.6,33.5c0.1-0.1,0.1-0.1,0.2-0.1c0.1,0,0.3,0.1,0.4,0.2
				c0,0,0.1,0.1,0.1,0.1c0.1,0,0.4-0.1,0.6-0.2c0.3-0.1,0.5-0.3,0.6-0.5c0.2-0.2,0.5-0.4,0.8-0.4c0.1,0,0.1,0,0.2,0
				c0-0.1-0.5-0.2-0.3-0.4c-0.1,0-0.4,0.1-0.7,0.1c-0.4,0-0.8,0-1,0.1c-0.2,0-0.3,0.4-0.8,0.4c-0.2,0.1-0.2,0.4-0.3,0.5
				C71.5,33.4,71.6,33.5,71.6,33.5 M66.8,21.8c0.4,0.3,0.6,0.4,0.9,0.4c0.1,0,0.2,0,0.4,0c-0.1,0.3-0.3,0.5-0.6,0.5
				C67.2,22.7,66.9,22.4,66.8,21.8 M78.7,22c0.6,0,1.3,0.2,1.9,0.6c1.8,1.1,3.1,3.3,1.1,4.7c-0.2-1.2-0.5-2.2-1.1-3.1
				c-0.5-0.8-1.2-1.5-2.1-2.1C78.5,22,78.6,22,78.7,22 M79.9,25.7c0.2,0.2,0.5,0.5,0.7,0.8c1.3,1.4,2.2,3.5,0,4.5h-0.1
				c0,0,0.1-0.4,0.1-0.4c0.4-1.5,0.4-2.1,0-3.3C80.4,26.9,80.2,26.4,79.9,25.7 M74.7,25.8c0.2,0.6-0.4,1.1-1.1,1.3
				c-0.4,0-0.8-0.1-1.1-0.4c0.1,0.1,0.3,0.2,0.5,0.2c0.2,0,0.4,0,0.5-0.1c0.2-0.1,0.4-0.2,0.5-0.4C74.3,26.2,74,26,74.7,25.8
				 M69.7,28c0,0,0.1,0,0.2,0c0.1,0.4-0.2,0.8-0.6,0.8c0,0-0.1,0-0.1,0c-0.1,0-0.3-0.1-0.5-0.3c0.1,0.1,0.2,0.1,0.3,0.1
				c0.1,0,0.2,0,0.3-0.1c0.1,0,0.1-0.1,0.1-0.1C69.7,28.3,69.4,28,69.7,28 M79,30.9c0.5,2.9,0.6,7.3,0.6,10.2c-0.5,1-3.4,1.6-6,1.7
				c-0.4,0-0.8,0-1.2,0c-1.4,0-2.5-0.1-3.2-0.4c-0.2-0.2-0.4-0.3-0.4-0.5c0.1-0.5,0.2-0.9,0.4-1.2c0.4-0.7,0.8-0.9,1.2-1.3
				c1.1-1.3,1.3-1.7,1.3-1.9c0.1,0,0.2,0.1,0.4,0.1c0.3,0,0.7,0,1.4-0.2c0.2-0.1,0.2-0.1,0.3-0.1C76.2,36.8,78.7,33.5,79,30.9
				 M83.3,39.9c0.2,0,0.5,0,0.7,0l7.5,3.3c-0.2,0.1-0.4,0.2-0.6,0.3l-8.3-2.6c0-0.4-0.6-0.8-1.8-0.9C81.2,39.9,82.1,39.9,83.3,39.9
				 M85,39.9c1.4,0.1,2.9,0.2,4.2,0.5l2.5,1.1c0.2,0.2,0.3,0.4,0.4,0.6L85,39.9 M82.7,41l7.1,3.2c-0.2,0.1-0.4,0.3-0.7,0.4l-7.5-2.3
				l6.7,3c-0.2,0.2-0.5,0.4-0.7,0.6l-6.4-2l5.8,2.6c-0.2,0.2-0.4,0.4-0.6,0.7l-0.3,0l-5.2-1.6l3.4,1.5l-10.3-0.3l10.5,3
				c-0.1,0.1-0.1,0.2-0.2,0.3l-4.1-1.3l3.8,1.7c-0.2,0.3-0.4,0.7-0.6,1l-3.5-1.1l3.3,1.5c-0.2,0.4-0.4,0.7-0.6,1.1l-3.1-0.9l1.9,0.8
				l-9.5-3.4l9.1,6.4c0,0,0,0,0,0.1l-2.1-0.7l2,0.9c-0.5,1.3-0.9,1.8-1.3,3.5L56.5,46c0-2,2.3-2.7,3.8-3.5c1.1-0.5,2.2-0.7,3.4-0.7
				c2.4,0,5.1,0.8,8.3,1.4c1,0.2,2,0.3,3,0.3C79,43.5,82.5,42.1,82.7,41 M94.8,43c0.3,0,0.6,0,1,0.1c6.9,0.9,11.1,11.5,9.5,23.7
				c-1.6,11.6-7.9,20.4-14.4,20.4c-0.3,0-0.6,0-1-0.1c-6.9-0.9-11.1-11.5-9.5-23.7C81.9,51.9,88.2,43,94.8,43 M91.4,62l-8.2-0.9
				l-0.7,4.2l8.2,0.9L89,81.7l4.1,0.4l1.7-15.5l8.4,1.2l0.5-4.2l-8.2-1.1l1.7-14.6l-4.1-0.4L91.4,62 M56.3,47
				c7.5,4.3,17.2,8.8,20.4,15.3c1.6,3.1,2.1,7.4,2.5,10.9c0.1,1.3,0.4,4,0.8,5.4l-16.9-0.4c0.1-0.8-0.1-6.2-0.1-7
				c0.1-5.7-1.8-7.6-4.5-7.6c-3.8,0-9.2,3.7-12.4,5.6c-5.7,3.2-11.8,6-17.3,9.7c1.3-2.7,3.3-7.8,0-11.1c0.3-0.1,0.6-0.2,0.9-0.4
				c0.8-0.3,1.5-0.7,2.1-1l4.1,5.1c0.1,0.1,0.1,0.1,0.2,0.1c0.2,0,0.4-0.3,0.3-0.5l-2.7-5.4c6.6-4.9,9.6-5.4,11-5.6
				c0.9-0.2,1.4-0.2,1.7-1.1C48.2,54.5,53.5,51.1,56.3,47 M25.7,68.4c2,0,3.5,1.1,3.8,4.2l0,0.7c0,0.1-0.1,0.2-0.1,0.2
				c-0.2,1-0.7,2.2-1.7,2.4C27.5,76,27.3,76,27,76c-2.8,0-2-3.1-0.4-4.7c-0.3-0.9-1-1.1-1.7-1.1c-0.5,0-1,0.1-1.5,0.1
				c-0.1,0-0.1,0-0.2,0c-0.5,0-0.9-0.3-1.1-1c0.4-0.2,0.7-0.3,1-0.4C24,68.6,24.9,68.4,25.7,68.4 M54.7,68.4c0.6,0,1.1,0.1,1.6,0.3
				L54.6,69C54.6,68.8,54.6,68.6,54.7,68.4C54.6,68.4,54.7,68.4,54.7,68.4 M56.6,69c0.5,0.3,0.9,0.7,1.3,1.2l-3.3,0.5
				c0-0.5,0-1.1,0-1.6L56.6,69 M20,69.3c0.5,0,0.9-0.1,1.2-0.1c0.1,0,0.1-0.2,0.2-0.2c0,0,0,0,0,0c0.4,0,0.5,1.5,0,1.6L18.7,71
				c0,0,0,0,0,0c-0.1,0-0.3-0.4-0.3-0.8C18.3,69.5,19.2,69.3,20,69.3 M58.2,70.6c0.2,0.4,0.4,0.8,0.6,1.2l-4.2,0.7
				c0-0.6,0-1.1,0-1.7L58.2,70.6 M23.8,71c0.3,0,0.6,0.3,0.6,0.6c0,0.4-0.3,0.6-0.6,0.7c-0.1,0-0.2,0-0.5,0
				c-0.8,0.1-2.1,0.3-3.3,0.3c-1.1,0-1.9-0.2-2-0.7c0-0.4,0.3-0.6,0.6-0.7l4.5-0.2L23.8,71C23.8,71,23.8,71,23.8,71 M46,71.1l0.7,0
				c0,0.2,0.1,0.4,0.1,0.6l-2.3,0.2L46,71.1 M59,72.3c0.1,0.4,0.3,0.8,0.4,1.2l-4.9,0.8c0-0.6,0-1.1,0-1.7L59,72.3 M23.9,72.7
				c0.8,0,0.9,1.3,0.1,1.3c0,0,0,0,0,0c-0.2,0-0.3,0-0.5,0.1c-0.7,0.1-2,0.3-3,0.3c-1.1,0-2-0.2-2-0.7c0-0.3,0.3-0.6,0.6-0.7
				l4.3-0.2L23.9,72.7 M42.7,72.9l4.5,0.2c0,0.2,0.1,0.3,0.1,0.5l-5.5,0.6l-0.1-0.4c0,0.1,0,0.3,0,0.4l-1.6,0.2l0.1,0L42.7,72.9
				 M59.5,74c0.1,0.4,0.2,0.8,0.3,1.2L54.5,76c0-0.6,0-1.1,0-1.7L59.5,74 M24.1,74.6c0.7,0,0.7,1.2,0.1,1.3c-0.2,0-0.3,0-0.5,0
				c-0.7,0.1-1.7,0.3-2.5,0.3c-0.8,0-1.5-0.2-1.5-0.7c0-0.4,0.2-0.6,0.5-0.6l3.4-0.2L24.1,74.6C24.1,74.6,24.1,74.6,24.1,74.6
				 M39,74.8l2.8,0c0,0.4,0.1,0.8,0.1,1.3l-7,0.9l7.1-0.2c0.1,0.4,0.1,0.8,0.2,1.3l-5,0.8l-0.1-0.5c0,0.2,0,0.3,0,0.5l-2,0.3l2-0.1
				c0,0.7,0,1.3,0,2l-1.7,0.3l1.7-0.2c0,0.7,0,1.4,0,2.1l-1.4,0.3l1.4-0.2c0,0.7,0,1.4,0.1,2.1l-1,0.3l1-0.2c0,0.7,0.1,1.4,0.1,2.2
				l-0.6,0.2l0.6-0.1c0,0.8,0.1,1.5,0.1,2.3l-0.1,0l0.1,0c0.6,13.3,1.8,25.3,2.5,35.6c0.6,8.8,0.8,16.3-0.1,22.3
				c-1.2,8.2-4.4,13.7-11.5,15.6c2.9-2.3,5.1-10.4,5-11.8l-3.3-72.5L39,74.8 M113,75L113,75 M112.6,74.9l-0.4,1.2l-5.3-0.7
				c0.1-0.2,0.1-0.3,0.2-0.5L112.6,74.9 M42.1,74.9l5.7,0c0,0.1,0.1,0.3,0.1,0.4l-5.4,0.7L42.1,74.9 M59.9,75.7
				c0.1,0.4,0.1,0.8,0.2,1.2l-5.6,0.9c0-0.6,0-1.1,0-1.7L59.9,75.7 M48.3,76.7c0,0.1,0.1,0.3,0.1,0.4L43.1,78l-0.4-1.1L48.3,76.7
				 M106.5,76.7l5.5,0.1l-0.4,1.2l-5.2-0.9C106.4,77,106.4,76.9,106.5,76.7 M26,77L26,77 M26.5,77l-2.3,2.7l-2.6-2.3L26.5,77
				 M60.2,77.4c0.1,0.4,0.1,0.8,0.1,1.2l-5.9,1l5.9-0.4c0,0.4,0.1,0.8,0.1,1.2l-5.9,1l5.9-0.4c0,0.4,0,0.8,0.1,1.2L54.8,83l5.8-0.4
				c0,0.4,0,0.8,0,1.2L55,84.7l5.7-0.4c0,0.4,0,0.8,0,1.2l-5.5,0.9l5.5-0.4c0,0.4,0,0.8,0,1.2l-5.3,0.9l5.3-0.4c0,0.4,0,0.8,0,1.3
				l-5.1,0.8l5.1-0.4c0,0.4,0,0.9,0,1.3l-4.9,0.8l4.9-0.4c0,0.4,0,0.9-0.1,1.3l-4.6,0.8l4.6-0.3c0,0.4,0,0.9-0.1,1.3L56.1,95
				l4.3-0.3c0,0.5-0.1,0.9-0.1,1.4l-4.1,0.7l4-0.3c0,0.5-0.1,0.9-0.1,1.4l-3.8,0.6l3.7-0.3c0,0.5-0.1,1-0.1,1.4l-3.4,0.6l3.4-0.3
				c0,0.5-0.1,1-0.1,1.5l-3.1,0.5l3.1-0.2c0,0.5-0.1,1-0.1,1.5l-2.8,0.5l2.8-0.2c-0.1,0.5-0.1,1-0.1,1.5l-2.4,0.4l2.4-0.2
				c-0.1,0.5-0.1,1.1-0.1,1.6l-2.1,0.3l2.1-0.2c-0.1,0.6-0.1,1.1-0.2,1.6l-1.5,0.2c-2.8-7.3-3.4-15.8-3.3-25.1l0-1.5
				c0-1.4,0-2.9,0-4.3L60.2,77.4 M48.9,78.5c0,0.1,0.1,0.2,0.1,0.3l-5.3,1l-0.4-1.1L48.9,78.5 M105.9,78.6l5.4,0.3l-0.4,1.1l-5.2-1
				C105.8,78.8,105.8,78.7,105.9,78.6 M42.3,78.9c0.1,0.4,0.1,0.8,0.2,1.2l-5,1l-0.3-1.9L42.3,78.9 M112.3,78.9l5.2,0.3l-0.3,2l-5-1
				C112.1,79.8,112.2,79.4,112.3,78.9 M63,79c0,0-0.1,0-0.1,0l2.2,0c1.3,0,1.3,6,0,6c0,0,0,0,0,0l-2.2,0c-1.3,0-1.3-6,0-6 M68,79
				c0,0-0.5,0-0.5,0l2.2,0c1.3,0,1.3,6,0,6c0,0,0,0,0,0l-2.2,0c-1.3,0-1.3-6,0-6 M72,79c0,0,0.2,0,0.2,0l2.2,0c1.3,0,1.3,6,0,6
				c0,0,0,0,0,0l-2.2,0c-1.3,0-1.3-6,0-6 M77,79C77,79,76.9,79,77,79l2.1,0.2c1.4,0,1.4,6.1,0,6.1l-2.1-0.2C75.5,85.1,75.5,79,77,79
				 M49.5,80.3c0,0.1,0.1,0.2,0.1,0.3l-5.2,1.2l-0.3-1L49.5,80.3 M105.2,80.4l5.4,0.5l-0.4,1l-5.1-1.2
				C105.2,80.6,105.2,80.5,105.2,80.4 M42.7,80.9c0.1,0.4,0.1,0.8,0.2,1.2l-5,1.2l-0.3-1.9L42.7,80.9 M111.9,80.9l5.1,0.5l-0.3,2
				l-5-1.2C111.8,81.8,111.9,81.4,111.9,80.9 M80.6,81c0.9,1.5,2.4,3,3.4,4.2v0.1l-2.9,0C80.5,84.7,80.4,82.4,80.6,81 M50.1,82.1
				c0,0.1,0.1,0.2,0.1,0.2L45,83.7l-0.3-1L50.1,82.1 M104.6,82.1l5.3,0.6l-0.3,1l-5.1-1.3C104.6,82.3,104.6,82.2,104.6,82.1
				 M43,82.9c0.1,0.4,0.2,0.8,0.2,1.2l-5,1.3l-0.3-1.9L43,82.9 M111.6,83l5.2,0.6l-0.3,2l-5.1-1.3C111.4,83.8,111.5,83.4,111.6,83
				 M50.7,83.8c0,0.1,0,0.2,0.1,0.2l-5.1,1.5l-0.3-0.9L50.7,83.8 M104,83.9l5.3,0.8l-0.3,1l-5-1.5C104,84,104,84,104,83.9
				 M43.4,84.9c0.1,0.4,0.2,0.8,0.2,1.2l-5.1,1.5l-0.3-2L43.4,84.9 M111.2,85l5.2,0.8l-0.3,2l-5.1-1.5C111,85.8,111.1,85.4,111.2,85
				 M51.2,85.6c0,0.1,0,0.1,0.1,0.2l-5,1.7l-0.3-0.9L51.2,85.6 M103.5,85.6l5.2,0.9l-0.3,0.9l-5-1.6
				C103.4,85.8,103.4,85.7,103.5,85.6 M75,86.2c8.2,0,16.9,1.6,16.8,10.1l-1,55.4l-6.1-59.9L84,89.8c0,0,0,0,0,0s0,0,0,0v0
				c0,0.5,3.8,54.6,4.3,58.9c-8.4,1.4-30.2,5.8-33.4,15.6l7.7-74.8c0.2-3,3.3-3.3,6.2-3.3c0.9,0,1.7,0,2.5,0c0.3,0,0.5,0,0.7,0
				C72.9,86.2,74,86.2,75,86.2 M43.8,86.9c0.1,0.4,0.2,0.8,0.3,1.2l-5.2,1.7l-0.3-2L43.8,86.9 M110.7,86.9l5.3,1l-0.3,2l-5.2-1.7
				C110.6,87.8,110.7,87.4,110.7,86.9 M51.7,87.3c0,0.1,0,0.1,0.1,0.2l-4.9,1.8l-0.3-0.9L51.7,87.3 M102.9,87.3l5.1,1.1l-0.3,0.9
				l-4.9-1.8C102.9,87.5,102.9,87.4,102.9,87.3 M97.7,88.9L97.7,88.9c0.1,0.3,0.2,0.6,0.3,0.9l-0.5-0.1
				C97.5,89.5,97.6,89.2,97.7,88.9 M44.2,88.9c0.1,0.4,0.2,0.8,0.3,1.3l-5.3,1.9l-0.3-2L44.2,88.9 M110.3,88.9l5.3,1.1l-0.3,2.1
				l-5.3-1.9C110.1,89.8,110.2,89.4,110.3,88.9 M52.2,89c0,0.1,0,0.1,0.1,0.2l-4.8,1.9l-0.3-0.9L52.2,89 M102.4,89.1l5,1.2l-0.3,0.9
				l-4.7-1.9C102.4,89.3,102.4,89.2,102.4,89.1 M97.2,90.6l1,0c0.1,0.3,0.1,0.7,0.2,1l-1.4-0.2C97,91.1,97.1,90.9,97.2,90.6
				 M52.6,90.8c0,0.1,0,0.2,0.1,0.3l-4.6,2l-0.3-0.9L52.6,90.8 M102,90.8l4.8,1.3l-0.3,0.9l-4.5-2C102,91,102,90.9,102,90.8
				 M44.7,90.9c0.1,0.4,0.2,0.9,0.3,1.3l-5.4,2.2l-0.3-2.1L44.7,90.9 M109.9,90.9l5.4,1.3l-0.3,2.1l-5.4-2.2
				C109.7,91.8,109.8,91.4,109.9,90.9 M96.6,92.3l1.8,0.1c0.1,0.4,0.1,0.7,0.2,1.1l-2.2-0.4C96.4,92.8,96.5,92.5,96.6,92.3 M53,92.6
				c0,0.1,0,0.2,0.1,0.3l-4.3,2L48.4,94L53,92.6 M101.6,92.6l4.5,1.4l-0.3,0.9l-4.2-2C101.6,92.9,101.6,92.7,101.6,92.6 M45.1,92.9
				c0.1,0.4,0.2,0.9,0.3,1.3L40,96.6l-0.3-2.2L45.1,92.9 M109.4,92.9l5.5,1.5l-0.4,2.2l-5.4-2.4C109.2,93.8,109.3,93.4,109.4,92.9
				 M96.1,94l2.6,0.1c0.1,0.4,0.1,0.8,0.2,1.1l-2.9-0.5C96,94.5,96,94.2,96.1,94 M53.2,94.4c0,0.1,0,0.3,0.1,0.4l-3.9,2L49,95.9
				L53.2,94.4 M101.4,94.5l4.1,1.4l-0.3,1l-3.9-2C101.3,94.8,101.4,94.6,101.4,94.5 M45.5,94.9c0.1,0.5,0.2,0.9,0.3,1.4l-5.5,2.6
				l5.6-2c0.1,0.5,0.2,1,0.3,1.5l-5,2.6l5.1-2c0.1,0.5,0.2,1,0.3,1.5l-4.5,2.5l4.6-1.9c0.1,0.5,0.2,1.1,0.3,1.6l-3.8,2.3l3.9-1.8
				c0.1,0.6,0.2,1.2,0.3,1.8l-3.1,2l3.2-1.6c0.1,0.6,0.2,1.3,0.3,1.9l-2.3,1.6l2.3-1.3c0.1,0.7,0.2,1.4,0.3,2.1l-1.4,1l1.4-0.8
				c0.1,0.8,0.2,1.6,0.2,2.4l-0.4,0.3l0.4-0.2c0.5,7.3-0.2,14.1-3.8,19.9c-0.5-2.5-0.1-7.4-0.7-9.9l-3.9-25L40,96.7L45.5,94.9
				 M109,94.9l5.6,1.8l-0.1,0.9l-4,25c-0.5,2.5-0.2,7.4-0.7,9.9c-3.6-5.8-4.3-12.7-3.7-20.1l0.4,0.2l-0.4-0.3
				c0.1-0.8,0.1-1.6,0.2-2.4l1.4,0.8l-1.4-1c0.1-0.7,0.2-1.4,0.3-2.1l2.3,1.2l-2.3-1.6c0.1-0.6,0.2-1.3,0.3-1.9l3.1,1.6l-3.1-2
				c0.1-0.6,0.2-1.2,0.3-1.8l3.9,1.8l-3.8-2.3c0.1-0.5,0.2-1.1,0.3-1.6l4.5,1.9l-4.4-2.4c0.1-0.5,0.2-1,0.3-1.5l5,1.9l-4.9-2.5
				c0.1-0.5,0.2-1,0.3-1.5l5.5,1.9l-5.4-2.6C108.8,95.9,108.9,95.4,109,94.9 M95.6,95.7l3.3,0.2c0.1,0.4,0.1,0.8,0.1,1.2l-3.6-0.6
				C95.5,96.2,95.6,95.9,95.6,95.7 M53.3,96.3c0,0.2,0,0.3,0,0.5L50,98.7l-0.3-1L53.3,96.3 M101.2,96.4l3.6,1.4l-0.3,1l-3.3-1.8
				C101.2,96.7,101.2,96.6,101.2,96.4 M95.2,97.4l3.9,0.2c0,0.4,0.1,0.8,0.1,1.2L95,98.1C95.1,97.8,95.1,97.6,95.2,97.4 M53,98
				L53,98 M53.3,98.4c0,0.2,0,0.5,0,0.7l-2.7,1.6c-0.1-0.3-0.2-0.7-0.3-1.1L53.3,98.4 M101.2,98.4l3,1.3c-0.1,0.4-0.2,0.7-0.3,1.1
				l-2.7-1.6C101.2,98.9,101.3,98.7,101.2,98.4 M94.8,99.1l4.5,0.2c0,0.4,0.1,0.9,0.1,1.3l-4.8-0.8C94.7,99.5,94.8,99.3,94.8,99.1
				 M53,101L53,101 M53,100.6c-0.1,0.4-0.2,0.7-0.3,1.1l-1.7,1.1c-0.1-0.4-0.2-0.8-0.3-1.2L53,100.6 M101.5,100.6l2.2,1
				c-0.1,0.4-0.2,0.8-0.3,1.2l-1.7-1.1C101.6,101.3,101.6,101,101.5,100.6 M94.4,100.8l5,0.2c0,0.4,0.1,0.9,0.1,1.3l-5.3-0.9
				C94.3,101.2,94.4,101,94.4,100.8 M94.1,102.5l5.5,0.3c0,0.5,0.1,0.9,0.1,1.4l-5.8-1C94,102.9,94.1,102.7,94.1,102.5 M52,103
				L52,103 M52.3,103c-0.2,0.6-0.5,1.2-0.8,1.8l-0.1,0.1c-0.1-0.1-0.2-0.6-0.3-1.3L52.3,103 M102.1,103.1l1.2,0.6
				c-0.1,0.6-0.2,1.1-0.3,1.3l-0.2-0.1C102.5,104.2,102.3,103.6,102.1,103.1 M93.8,104.2l6,0.3c0,0.5,0.1,0.9,0.1,1.4l-6.2-1.1
				C93.7,104.6,93.8,104.4,93.8,104.2 M93.5,105.9l6.4,0.3c0,0.5,0.1,1,0.1,1.5l-6.6-1.1C93.5,106.3,93.5,106.1,93.5,105.9
				 M93.3,107.6l6.7,0.3c0,0.5,0.1,1,0.1,1.5l-6.9-1.2C93.2,108,93.3,107.8,93.3,107.6 M59,109L59,109 M59.2,108.5
				c-0.1,1.1-0.2,2-0.3,2.9c-0.4-0.9-0.8-1.8-1.2-2.7L59.2,108.5 M93.1,109.3l7,0.3c0,0.5,0.1,1,0.1,1.5l-7.2-1.2
				C93,109.7,93.1,109.5,93.1,109.3 M92.9,111l7.3,0.3c0,0.5,0,1.1,0.1,1.6l-7.4-1.3C92.9,111.4,92.9,111.2,92.9,111 M92.8,112.7
				l7.5,0.4c0,0.5,0,1.1,0.1,1.6l-7.6-1.3C92.7,113.2,92.8,112.9,92.8,112.7 M92.7,114.4l7.7,0.4c0,0.5,0,1.1,0,1.6l-7.7-1.3
				C92.6,114.9,92.6,114.7,92.7,114.4 M92.8,116.2l7.7,0.4c0,0.6,0.2,1.1,0.2,1.7l-7.7-1.3v0C93,116.6,92.8,116.4,92.8,116.2
				 M92.5,117.9l7.9,0.4c0,0.6,0,1.1,0,1.7l-7.9-1.4C92.5,118.3,92.5,118.1,92.5,117.9 M92.5,119.6l7.9,0.4
				c0.3,22.8-1.9,46.7-6.7,46.7c-0.3,0-0.7-0.1-0.7-0.2c0,0,0-0.2,0-0.4l1.7,0.1l-1.9-0.3c0-0.4,0-0.9,0-1.5l2.1,0.1l-2.1-0.4
				c0-0.4,0-0.9,0-1.5l2.3,0.1l-2.3-0.4c0-0.5,0-0.9,0-1.4l2.6,0.1l-2.6-0.4c0-0.5,0-0.9,0-1.4l2.8,0.1l-2.8-0.5c0-0.4,0-0.9,0-1.4
				l3,0.1l-3-0.5c0-0.4,0-0.9,0-1.3l3.3,0.2l-3.3-0.6c0-0.4,0-0.9,0-1.3l3.5,0.2l-3.5-0.6c0-0.4,0-0.9,0-1.3l3.7,0.2l-3.7-0.6
				c0-0.4,0-0.8,0-1.3l3.9,0.2l-4-0.7c0-0.4,0-0.8,0-1.2l4.2,0.2l-4.2-0.7c0-0.4,0-0.8,0-1.2l4.4,0.2l-4.4-0.8c0-0.4,0-0.8,0-1.2
				l4.6,0.2l-4.6-0.8c0-0.4,0-0.8,0-1.1l4.9,0.2l-4.9-0.8c0-0.4,0-0.7,0-1.1l5.1,0.2l-5.1-0.9c0-0.4,0-0.7,0-1.1l5.3,0.3l-5.3-0.9
				c0-0.4,0-0.7,0-1.1l5.6,0.3l-5.6-1c0-0.3,0-0.7,0-1l5.8,0.3l-5.8-1c0-0.3,0-0.7,0-1l6,0.3l-6-1c0-0.3,0-0.6,0-1l6.2,0.3l-6.2-1.1
				c0-0.3,0-0.6,0-0.9l6.5,0.3l-6.5-1.1c0-0.3,0-0.6,0-0.9l6.7,0.3l-6.7-1.2c0-0.3,0-0.6,0-0.9l6.9,0.3l-6.9-1.2c0-0.3,0-0.6,0-0.9
				l7.4,0.3l-6.9-1.2v-0.8l7.1,0.4l-7.5-1.3c0-0.3-0.1-0.5-0.1-0.8l7.6,0.4l-7.6-1.3c0-0.3,0-0.5,0-0.8l7.8,0.4l-7.8-1.3
				C92.5,120.1,92.5,119.8,92.5,119.6 M89,148L89,148 M89.4,147.9L89,168.6c-0.1,3.3,2.4,4.8,4.7,6.3c1.3,0.8,2.5,1.5,3.4,2.6l1.4,3
				c-0.5,0.2-1,0.2-1.5,0.2c-0.7,0-1.4-0.1-2-0.2c-2.3-0.5-3.7-1.8-5.2-2.9c-1.7-1.4-3.3-2.7-6-2.7c-1.8-0.2-2.2-1.2-2.1-2.3
				c0.1-0.6,0.2-1.2,0.4-1.9c0.2-0.5,0.3-1.1,0.4-1.6l0.1-0.1c-0.1-3.4-0.7-6.9-0.9-10.3c0.8-0.6,1.9-1.3,3.1-1.9
				c1.3-0.7,2.6-1.3,3.8-1.7c0.3-0.2,0.2-0.7-0.2-0.7l-7.9,1.2c-0.1-0.8-0.8-2.7,0-3.3c0.7-0.5,1.9-0.9,3.2-1.4
				C85.8,150.2,88.1,149.4,89.4,147.9 M77.2,153l-7.7,11.3l9.2-11.2l0.1,0.6l-7.9,11.7l8.2-10l0.1,0.8l-6.9,10.2l7.2-8.8l0.2,1
				l-6,8.8l6.2-7.6l0.2,1.2l-5,7.4l5.2-6.3l0.2,1.4l-4,6l4.2-5.1l0.3,1.6l-2.5,3.7c-0.3,0-0.6,0-0.8,0c-4.7,0-8-0.9-10.2-1.9
				c-6.2-2.6-3.7-7.8,1.3-11.3l-3.1,4.6l4.5-5.5c0.7-0.4,1.3-0.7,2-1.1l-5.2,7.6l6.8-8.3c0.4-0.1,0.8-0.3,1.2-0.4l-6.6,9.7l8.3-10.2
				C76.7,153.1,76.9,153,77.2,153 M62.4,160.4c1.3,0-1,3.7,0.5,6c0.1,1.1,0.4,2.1-1.3,3.1c-1.3,0.8-3.7,0.8-5.7,2.5
				c-0.6,0.6-1.3,1.1-2.8,1.1c-1,0-2.4-0.2-4.5-0.9c0.2-0.3,0.4-0.8,0.8-1.5c1.5-2,4.7-3.9,6.8-4.9c0.4-1.6-0.5-2.6,4.5-4.9
				C61.6,160.6,62.1,160.4,62.4,160.4 M80.9,166.7l0.3,1.8l-0.7,1.1c-0.7,0.1-1.4,0.1-2,0.1L80.9,166.7 M81.2,169l0.1,0.6
				c-0.2,0-0.4,0-0.6,0L81.2,169 M76.8,6.1c-0.6,0-1.2,0-1.8,0.1c0,0-0.1,0-0.1,0C65.6,7.2,59.6,17.3,60,25.8
				c0.1,5.3,3.1,10.6,7.6,13.1c0,0,0.1,0,0.1,0c0.1,0,0.2,0.1,0.3,0.1c-0.2,0.2-0.3,0.4-0.5,0.7c0,0,0,0.1,0,0.1
				c-0.1,0.1-0.1,0.3-0.2,0.5c-1.2-0.2-2.4-0.4-3.5-0.4c-1.5,0-2.9,0.3-4.2,0.8c0,0-0.1,0-0.1,0c-0.2,0.1-0.4,0.2-0.6,0.3
				c-1.3,0.6-3.5,1.6-4.1,3.6L53.5,44c0-0.5-0.1-1.1-0.5-1.5c-0.4-0.5-0.8-1-1.2-1.4c-0.1-0.2-0.3-0.4-0.5-0.5
				c0-0.2-0.1-0.5-0.2-0.7c-0.2-0.5-0.4-0.9-0.5-1.4c0-0.1,0-0.2-0.1-0.3c0-0.1,0-0.2,0-0.3c0-0.4,0-0.9,0-1.3c0-0.1,0-0.1,0-0.2
				c0-0.1,0-0.1,0.1-0.2c0.1-0.4,0.2-0.9,0.4-1.3c0-0.1,0-0.1,0.1-0.2c0-0.1,0.1-0.1,0.1-0.2c0.2-0.4,0.4-0.9,0.7-1.3
				c0-0.1,0.1-0.1,0.1-0.2c0,0,0.1-0.1,0.1-0.1c0.3-0.4,0.5-0.8,0.9-1.3c0-0.1,0.1-0.1,0.1-0.2c0,0,0.1-0.1,0.1-0.2l0.5-0.7l0.5-0.7
				c0-0.1,0.1-0.1,0.1-0.2c0-0.1,0.1-0.1,0.1-0.2c0.4-0.6,0.7-1.1,1-1.5c0-0.1,0.1-0.1,0.1-0.2c0-0.1,0.1-0.1,0.1-0.2
				c0.4-0.7,0.7-1.3,1-1.9c0-0.1,0.1-0.1,0.1-0.2c0-0.1,0.1-0.1,0.1-0.2c0.3-0.8,0.5-1.5,0.5-2.3c0.1-0.2,0.3-0.4,0.3-0.6
				c0-0.1,0.2-0.1,0.2-0.2V22c-1-5-3-8-7.4-8h-0.1c0,0-0.1,0-0.1,0c-3.3,0-7.6,1.8-11.3,4.6c0,0,0,0-0.1,0.1
				c-1.8,1.4-3.2,2.9-4.1,4.2c-5.6,8-8.4,19.7-7.9,32.8c0,0,0,0.1,0,0.1l0.4,5.2c0,0-0.1,0-0.1,0c-0.1,0-0.3,0-0.4,0
				c-0.1,0-0.2,0.1-0.3,0.1c-1.2-6.6-0.5-12.7,0.2-18.7c0.9-7.4,1.8-15-1.3-23c-0.3-0.8-1-1.3-1.9-1.3c-0.1,0-0.2,0-0.3,0
				c-0.9,0.1-1.6,0.9-1.7,1.8c0,0.2,0,0.4,0,0.5c-1.2-2.3-2.3-6.8-1.2-9.5c0.4-1-0.1-2.1-1-2.5c-0.3-0.1-0.6-0.2-0.9-0.2
				c-0.7,0-1.4,0.4-1.7,1c-4.5,7.7-3,12.4-1.3,17.4c0.3,0.8,0.5,1.6,0.8,2.4c-0.1,0-0.1,0-0.2,0c-0.4,0-0.9,0.1-1.2,0.4
				c-0.8,0.7-1,1.8-0.4,2.7c4.1,5.9,3.6,12,3.1,18c-0.3,3.9-0.6,7.9,0.4,11.6c-0.2-0.1-0.5-0.2-0.7-0.2c-0.1,0-0.2,0-0.2,0
				c-0.6,0-1.2,0.3-1.6,0.7l-2,2.5c-0.6,0.8-0.6,2,0.2,2.7l2.5,2.4c0.1,0.1,0.3,0.2,0.4,0.3c0,0,0,0,0,0c0,0.1,0,0.3,0.1,0.4
				c-0.2,0.3-0.3,0.6-0.3,1c0,0.1,0,0.3,0,0.4c0,0.4,0.1,0.8,0.4,1.2c0,0.2,0,0.4,0,0.5c0,0.6,0.3,1.4,1.2,2
				c0.1,0.6,0.5,1.7,1.9,2.1c0.1,0.3,0.3,0.7,0.6,0.9l2.6,2.3c0.4,0.3,0.8,0.5,1.3,0.5c0,0,0.1,0,0.1,0c0.5,0,1-0.3,1.4-0.7l1.2-1.4
				c0.1,0.3,0.3,0.6,0.6,0.9c0.2,0.2,0.5,0.3,0.7,0.4l3.3,71.3c0,1.2-2.1,8.4-4.2,10.1c-0.7,0.6-1,1.6-0.6,2.5
				c0.3,0.7,1,1.1,1.8,1.1c0.2,0,0.3,0,0.5-0.1c7.5-2,11.6-7.5,13-17.2c1-6.7,0.6-14.9,0.1-22.7c-0.1-1.9-0.3-3.9-0.4-6l0.4,2.9
				c0,0,0,0.1,0,0.1c0.2,1.1,0.3,2.9,0.3,4.6c0,2,0.1,3.9,0.4,5.4c0.2,0.8,0.8,1.4,1.6,1.6c0.1,0,0.2,0,0.3,0c0.7,0,1.3-0.4,1.7-1
				c3.4-5.5,4.7-12.2,4.1-21.1c0,0,0,0,0,0c0,0,0,0,0,0c-0.1-0.9-0.1-1.7-0.2-2.5c0,0,0-0.1,0-0.1c0,0,0-0.1,0-0.1
				c-0.1-0.7-0.2-1.5-0.3-2.2c0-0.1,0-0.1,0-0.1c0-0.1,0-0.1,0-0.2c-0.1-0.5-0.1-1-0.2-1.5c0,0.1,0.1,0.2,0.1,0.2
				c0.3,0.5,0.7,0.9,1.3,1c0.2,0,0.3,0.1,0.5,0.1c0.4,0,0.8-0.1,1.1-0.4l0.1-0.1c0.3-0.2,0.5-0.4,0.6-0.7c0.3-0.6,0.6-1.3,0.8-1.9
				c0,0,0-0.1,0-0.1c0.4,1.9,1,3.8,1.7,5.6c0,0,0,0.1,0,0.1c0.4,1.1,0.8,2,1.2,2.8c0.2,0.4,0.5,0.7,0.9,0.9l-5.3,51
				c0,0.4,0.1,0.8,0.3,1.2c-1.7,1-3.9,2.5-5.2,4.2c0,0,0,0.1-0.1,0.1c-0.5,0.7-0.7,1.2-0.9,1.6l-0.1,0.2c-0.3,0.5-0.3,1.1,0,1.7
				c0.2,0.5,0.7,1,1.3,1.1c2.1,0.6,3.7,0.9,5,0.9c2.2,0,3.2-0.8,4.1-1.7c0.9-0.8,2-1.1,3.1-1.4c0.8-0.2,1.6-0.4,2.3-0.8
				c1.3-0.8,1.9-1.6,2.2-2.4c0.5,0.3,1.1,0.6,1.7,0.9c3.1,1.4,6.8,2.1,11,2.1c0.3,0,0.6,0.1,0.9,0.1c0,0,0,0.1,0,0.1c0,0,0,0,0,0
				c0,0,0,0,0,0c0.4,0,0.9-0.2,1.4-0.2c0,0.2-0.1,0.3-0.1,0.6c-0.2,1.2,0.1,2.1,0.7,2.9c0.7,0.9,1.7,1.4,3.1,1.5c0.1,0,0.2,0,0.2,0
				c2,0,3.1,0.8,4.8,2.2l0.2,0.2c1.5,1.2,3.2,2.5,5.8,3.1c0.9,0.2,1.7,0.3,2.4,0.3c0.8,0,1.5-0.1,2.1-0.3c0.5-0.2,1-0.6,1.2-1.1
				c0.2-0.5,0.2-1.1,0-1.6l-1.4-3c-0.1-0.1-0.1-0.3-0.2-0.4c-1-1.3-2.5-2.2-3.9-3.1c-2.3-1.4-3.8-2.5-3.7-4.5l0-1.2
				c0.2,0.3,0.4,0.6,0.8,0.7c0.6,0.3,1.2,0.5,1.8,0.5c0.7,0,1.5-0.2,2.6-1.3c5.3-5.3,6.9-32.3,5.9-47.5c0,0,0,0,0,0l0-0.7
				c0-0.4,0-0.7,0-1.1c0,0,0-0.1,0-0.1v-1.7c0,0,0-0.1,0-0.1l0.2-0.9l-0.1-0.8c0,0-0.1-0.1-0.1-0.1c0,0,0,0,0,0
				c0-0.4,0.1-0.8,0.1-1.2l0.1-0.4c0,0,0-0.1,0-0.1c0,0,0,0,0,0l0-0.4c0-0.4,0-0.8,0-1.2c0,0,0-0.1,0-0.1c0,0,0,0,0-0.1l0-0.7
				c0-0.3,0-0.6,0-0.8c0,0,0-0.1,0-0.1c0,0,0-0.1,0-0.1l0-0.6l-0.1-0.9c0,0,0-0.1,0-0.1c0,0,0-0.1,0-0.2l-0.1-0.9
				c0.3,0.2,0.7,0.3,1.1,0.3c0.2,0,0.5,0,0.7-0.1c0.5-0.2,0.9-0.5,1.1-1c-0.1,0.4-0.1,0.8-0.2,1.2c0,0.1,0,0.1,0,0.2
				c0,0.1,0,0.1,0,0.2c-0.1,0.7-0.2,1.5-0.3,2.2c0,0,0,0,0,0.1c0,0,0,0.1,0,0.1c-0.1,0.9-0.2,1.7-0.2,2.5c0,0,0,0,0,0c0,0,0,0,0,0
				c-0.7,8.9,0.5,15.7,4,21.3c0.4,0.6,1,1,1.7,1c0.1,0,0.2,0,0.3,0c0.8-0.1,1.4-0.8,1.6-1.6c0.3-1.4,0.4-3.3,0.4-5.3
				c0-1.7,0.1-3.5,0.3-4.6c0,0,0-0.1,0-0.1l0.5-2.8c-0.2,2-0.3,4-0.5,6c-0.6,7.8-1,16,0,22.7c1.4,9.8,5.5,15.3,12.9,17.3
				c0.2,0,0.4,0.1,0.5,0.1c0.7,0,1.4-0.4,1.8-1.1c0.4-0.8,0.2-1.9-0.5-2.5c-2.2-1.7-4.2-8.9-4.2-10.1l4.9-96.4
				c0.6-13.1-2.2-24.8-7.8-32.9c-0.9-1.3-2.3-2.8-4.1-4.2c-2.9-2.3-7.4-4.7-11.4-4.7c-4.3,0-7.1,2.8-7.3,7.5c0,0.1-0.2,0.2-0.2,0.3
				v1c0,0,0.2,0.1,0.2,0.1c0,0.6,0.2,1.3,0.4,1.9c0,0.1,0.1,0.1,0.1,0.2c0,0.1,0.1,0.1,0.1,0.2c0.2,0.7,0.6,1.3,1,2
				c0,0.1,0.1,0.1,0.1,0.2c0,0.1,0.1,0.1,0.1,0.2c0.3,0.5,0.6,1,1.1,1.6c0,0.1,0.1,0.1,0.1,0.2c0,0.1,0.1,0.1,0.1,0.2l0.3,0.4l0.7,1
				c0,0.1,0.1,0.1,0.1,0.2c0,0.1,0.1,0.1,0.1,0.2c0.4,0.5,0.7,1,0.9,1.4c0,0,0.1,0.1,0.1,0.1c0,0.1,0.1,0.1,0.1,0.2
				c0.3,0.5,0.5,0.9,0.8,1.3c0,0,0,0.1,0.1,0.1c0,0.1,0.1,0.1,0.1,0.2c0.2,0.5,0.4,0.9,0.5,1.3c0,0.1,0,0.1,0.1,0.2
				c0,0.1,0,0.1,0,0.2c0.1,0.5,0.1,0.9,0.1,1.3c0,0.1,0,0.2,0,0.3c0,0.1,0,0.2-0.1,0.3c-0.1,0.5-0.2,0.9-0.4,1.4
				c-0.1,0.2-0.1,0.4-0.1,0.6c-0.1,0.1-0.3,0.3-0.4,0.4c-0.3,0.5-0.7,1-1.1,1.5c-0.3,0.4-0.5,0.9-0.5,1.3l-0.2,0.1
				c-1.6-1.4-3.4-2.4-5.4-2.6C95.6,41,95.2,41,94.8,41c-0.3,0-0.7,0-1,0.1c-0.2-0.4-0.4-0.7-0.7-1c-0.2-0.2-0.4-0.3-0.6-0.4L90,38.6
				c-0.1-0.1-0.2-0.1-0.4-0.1c-1-0.2-2.2-0.4-3.5-0.5c6.7-3.7,9.3-10.8,8.6-16.9C93.9,13.6,88,6.1,76.8,6.1L76.8,6.1z M83.8,28.1
				c0.2-0.3,0.4-0.5,0.5-0.8c-0.1,0.5-0.2,1-0.4,1.5C83.9,28.5,83.8,28.3,83.8,28.1L83.8,28.1z M91.4,64c1,0,1.9-0.7,2-1.8l1.5-12.5
				l0.2,0l-1.5,12.6c-0.1,1.1,0.6,2.1,1.7,2.2l6.3,0.9l0,0.2l-6.4-0.9c-0.1,0-0.2,0-0.3,0c-0.4,0-0.9,0.1-1.2,0.4
				c-0.4,0.3-0.7,0.8-0.8,1.4L91.4,80l-0.2,0l1.5-13.6c0.1-1.1-0.7-2.1-1.8-2.2l-6.1-0.7l0-0.2l6.3,0.7C91.2,64,91.3,64,91.4,64
				L91.4,64z M106.9,54.8l0.8-0.2c0,0,0.1,0.1,0.1,0.1c0,0,0,0.1,0.1,0.1c0,0.1,0.1,0.1,0.1,0.2c0,0.1,0,0.2,0,0.3
				c0.1,0.3,0.1,0.6,0.1,0.9c0,0.1,0,0.3,0.1,0.4c0,0.1,0,0.2,0,0.4c0,0.3,0,0.7,0,1c0,0.1,0,0.3,0,0.4c0,0.1-0.1,0.3-0.1,0.4
				c0,0.3,0,0.7-0.1,1c0,0.2,0,0.3,0,0.5c-0.1,0.2-0.1,0.3-0.1,0.5c0,0.3-0.1,0.6-0.1,1c0,0.2,0,0.3,0,0.5c-0.1,0.2-0.1,0.3-0.1,0.5
				c0,0.3-0.1,0.6-0.1,0.9c0,0.2,0,0.4,0,0.6c-0.1,0.2-0.1,0.3-0.2,0.5l-0.1,0.7l0,0.1c0,0.2,0,0.4,0,0.6c0,0,0,0.1-0.1,0.1
				C107.8,62.2,107.6,58.2,106.9,54.8L106.9,54.8z M78.5,61.5c0-0.1-0.1-0.2-0.1-0.3l0.2,0.1c0,0,0.1,0.1,0.1,0.1
				c0,0.1,0,0.3-0.1,0.4C78.5,61.6,78.5,61.5,78.5,61.5L78.5,61.5z M55.4,66.5c1.1-0.5,2.2-0.7,3.1-0.7c0.9,0,1.2,0.3,1.5,0.5
				c0.4,0.4,1.2,1.7,1.1,5.1c0,0.2,0,0.4,0,0.8c-0.1-0.2-0.1-0.4-0.2-0.6c0-0.1-0.1-0.2-0.1-0.3c0-0.1-0.1-0.2-0.1-0.2
				c-0.3-0.6-0.5-1.1-0.8-1.5c-0.1-0.1-0.1-0.2-0.2-0.3c0-0.1-0.1-0.1-0.1-0.2c-0.5-0.7-1.1-1.3-1.8-1.8c-0.1,0-0.1-0.1-0.2-0.1
				c-0.1-0.1-0.2-0.2-0.4-0.2C56.5,66.7,56,66.5,55.4,66.5L55.4,66.5z M48.5,70.2c0.2-0.1,0.4-0.2,0.6-0.4c1.1-0.7,2.4-1.4,3.7-2.1
				c-0.1,0.2-0.1,0.4-0.1,0.7l0.2,0.2L53,69c0,0,0,0,0,0.1c0,0-0.2,0-0.2,0c0,0.3,0.1,0.6,0.1,0.9l0.1,0.7c0,0,0,0,0,0
				c0,0-0.2,0-0.2,0.1l0.1,0.4c0,0.4,0.1,0.8,0.1,1.3c0,0,0,0.5,0,0.5s-0.2,0-0.2,0l0.1,0.6l0.1,0.6c0,0,0,0,0,0.1
				c0,0.4-0.5,0.8-0.5,1.2L52,76c0,0,0,0,0,0c0,0.4,0,0.7,0,1.1l0,0.6c0,0,0,0,0,0l0.2,0.8c0,1.2,0.1,2.4,0.1,3.5l0.1,0.8
				c-0.1-0.1-0.1-0.3-0.2-0.4c0-0.3,0-0.6-0.1-0.9l0-0.1l0-0.1c-0.1-0.3-0.2-0.5-0.4-0.7c0-0.3,0-0.5-0.1-0.8l0-0.1l0-0.1
				c-0.1-0.3-0.2-0.5-0.4-0.7c0-0.3,0-0.5-0.1-0.8l-0.1-0.2l-0.1-0.2c-0.1-0.2-0.2-0.5-0.4-0.7c0-0.2,0-0.5-0.1-0.7l0-0.1l-0.1-0.3
				c-0.1-0.2-0.2-0.5-0.3-0.6c0-0.2,0-0.5-0.1-0.7l-0.1-0.2l-0.1-0.2c-0.1-0.2-0.2-0.4-0.3-0.6c0-0.2,0-0.5-0.1-0.7l-0.1-0.3
				l-0.1-0.2c-0.1-0.2-0.2-0.4-0.3-0.6c0-0.2,0-0.5-0.1-0.7c0-0.2-0.1-0.3-0.1-0.5C48.6,70.5,48.5,70.4,48.5,70.2L48.5,70.2z
				 M97.3,86.9c2.5-1.8,4.7-4.6,6.4-8.2c0,0.1,0,0.2,0,0.3c-0.2,0.2-0.3,0.4-0.4,0.6c0,0.1-0.1,0.3-0.1,0.4
				c-0.1,0.2-0.1,0.5-0.1,0.7c-0.2,0.2-0.3,0.4-0.4,0.7l0,0.1l-0.1,0.2c-0.1,0.2-0.1,0.5-0.1,0.8c-0.2,0.2-0.3,0.4-0.4,0.6
				c0,0.1-0.1,0.2-0.1,0.3c-0.1,0.3-0.1,0.5-0.1,0.8c-0.2,0.2-0.3,0.5-0.4,0.7l0,0.1l-0.1,0.2c-0.1,0.3-0.1,0.5-0.1,0.8
				c-0.2,0.2-0.3,0.4-0.4,0.7l-0.1,0.2l0,0.1c-0.1,0.3-0.1,0.6-0.1,0.8c-0.2,0.2-0.3,0.4-0.4,0.7c0,0.1-0.1,0.2-0.1,0.3l0,0.1
				c-0.1,0.3-0.1,0.5,0,0.8c-0.1,0.2-0.2,0.4-0.3,0.6c0-0.1-0.1-0.3-0.1-0.4c0-0.1,0-0.3,0-0.4l-0.1-0.3c0-0.2-0.1-0.4-0.1-0.6
				c-0.2-0.9-1-1.6-1.9-1.6l-0.1,0c0,0,0,0-0.1,0C97.6,86.9,97.4,86.9,97.3,86.9L97.3,86.9z M91.4,89.2c1.6-0.1,3.2-0.6,4.6-1.5
				c-0.1,0.2-0.2,0.3-0.3,0.5c-0.1,0.2-0.1,0.3-0.2,0.5c0,0.1-0.1,0.2-0.1,0.4c-0.1,0.2-0.1,0.3-0.1,0.5c-0.1,0.1-0.3,0.2-0.4,0.4
				l0,0.1c0,0,0,0,0,0l0-0.1c-0.1,0.3-0.1,0.6-0.2,0.8c0,0.1,0,0.3,0,0.4c-0.1,0.1-0.1,0.3-0.2,0.5c0,0.1-0.1,0.2-0.1,0.3
				c-0.1,0.2-0.1,0.3-0.1,0.5c0,0.2-0.1,0.3-0.1,0.5c-0.1,0.1-0.1,0.3-0.2,0.4c-0.1,0.2-0.1,0.4-0.2,0.5L94,94.2
				c0,0.2-0.1,0.3-0.1,0.5c-0.1,0.1-0.1,0.3-0.2,0.4C93.5,92.8,92.8,90.8,91.4,89.2L91.4,89.2z M63.1,158.5c0.2-0.1,0.5-0.3,0.7-0.4
				c-0.1,0.2-0.3,0.3-0.4,0.5C63.3,158.6,63.2,158.5,63.1,158.5L63.1,158.5z"/>
		</g>
	</g>
	<g>
		<path fill="#629FAE" d="M215.3,56.4h-11.5V11.7h-20v44.7h-11.5V2.2h42.9V56.4z"/>
		<path fill="#629FAE" d="M278.2,29.2c0,9-2.2,15.9-6.7,20.7c-4.5,4.8-10.8,7.2-19.1,7.2c-8.3,0-14.7-2.4-19.1-7.2
			c-4.5-4.8-6.7-11.7-6.7-20.8c0-9,2.2-15.9,6.7-20.7c4.5-4.8,10.9-7.1,19.2-7.1c8.3,0,14.7,2.4,19.1,7.2
			C276,13.3,278.2,20.2,278.2,29.2z M238.7,29.2c0,6.1,1.1,10.6,3.4,13.7c2.3,3.1,5.7,4.6,10.3,4.6c9.2,0,13.8-6.1,13.8-18.3
			c0-12.2-4.6-18.3-13.7-18.3c-4.6,0-8,1.5-10.3,4.6S238.7,23.1,238.7,29.2z"/>
		<path fill="#629FAE" d="M312.5,11c-4.3,0-7.7,1.6-10.1,4.9c-2.4,3.3-3.6,7.8-3.6,13.6c0,12.1,4.5,18.1,13.6,18.1
			c3.8,0,8.4-1,13.8-2.9v9.6c-4.5,1.9-9.4,2.8-14.9,2.8c-7.9,0-13.9-2.4-18.1-7.2c-4.2-4.8-6.3-11.7-6.3-20.6c0-5.6,1-10.6,3.1-14.8
			c2.1-4.2,5-7.5,8.8-9.8c3.8-2.3,8.4-3.4,13.5-3.4c5.3,0,10.6,1.3,15.9,3.8l-3.7,9.3c-2-1-4.1-1.8-6.1-2.5
			C316.5,11.3,314.5,11,312.5,11z"/>
		<path fill="#629FAE" d="M380.8,56.4h-11.5V11.7h-13.3l-0.6,5c-1.5,12.6-2.9,21.5-4.1,26.6c-1.2,5.1-2.9,8.7-5.1,10.8
			c-2.3,2.1-5.3,3.1-9.1,3c-2.1,0-3.9-0.3-5.5-0.8v-9.4c1.4,0.5,2.8,0.7,4,0.7c1.3,0,2.3-0.6,3.1-1.8c0.8-1.2,1.5-3.4,2.2-6.7
			c0.7-3.3,1.6-8.6,2.7-16c1.1-7.4,2.1-14.4,2.9-21h34.2V56.4z"/>
		<path fill="#629FAE" d="M437.3,2.2l-16.8,38.4c-2.1,4.8-4.1,8.3-5.9,10.4c-1.8,2.1-4,3.7-6.5,4.7s-5.6,1.5-9.2,1.5
			c-3.1,0-6-0.4-8.6-1.1v-9.9c2.2,0.9,4.9,1.3,8.1,1.3c2.1,0,3.7-0.5,5-1.4c1.3-1,2.3-2.6,3.2-5L387.7,2.2h12.2l13.4,30.2h0.4
			l0.7-1.9l11.2-28.4H437.3z"/>
		<path fill="#629FAE" d="M478.4,2.2v9.5h-22.8v44.7h-11.5V2.2H478.4z"/>
		<path fill="#629FAE" d="M486.7,2.2H497v26.2l-0.1,7l-0.4,8h0.2l25-41.2h13.8v54.2h-10.2v-26c0-3.5,0.2-8.7,0.7-15.5h-0.3
			l-25.1,41.5h-13.8V2.2z"/>
	</g>
	<g>
		<path fill="#629FAE" d="M196.7,100.2c0,4.2-1,7.4-3.1,9.7c-2.1,2.3-5.1,3.4-8.9,3.4c-3.9,0-6.9-1.1-8.9-3.4
			c-2.1-2.3-3.1-5.5-3.1-9.7c0-4.2,1-7.4,3.1-9.6c2.1-2.2,5.1-3.3,9-3.3s6.9,1.1,8.9,3.4C195.7,92.8,196.7,96,196.7,100.2z
			 M178.3,100.2c0,2.8,0.5,5,1.6,6.4c1.1,1.4,2.7,2.1,4.8,2.1c4.3,0,6.4-2.8,6.4-8.5c0-5.7-2.1-8.6-6.4-8.6c-2.1,0-3.7,0.7-4.8,2.2
			C178.8,95.2,178.3,97.4,178.3,100.2z"/>
		<path fill="#629FAE" d="M213.4,113.2v-3.9H213c-2.1,0-4-0.4-5.6-1.1c-1.6-0.8-2.9-1.9-3.8-3.4c-0.9-1.5-1.4-3.2-1.4-5
			c0-1.8,0.4-3.4,1.2-4.8c0.8-1.4,2-2.6,3.6-3.4c1.6-0.8,3.4-1.2,5.5-1.2h0.9v-3.1h4.8v3.1h0.9c2.1,0,3.9,0.4,5.5,1.2
			c1.6,0.8,2.8,1.9,3.6,3.4c0.8,1.4,1.2,3,1.2,4.8c0,1.8-0.5,3.5-1.4,5c-0.9,1.5-2.2,2.6-3.8,3.4s-3.5,1.1-5.6,1.1h-0.4v3.9H213.4z
			 M213.4,94.5h-0.7c-1.7,0-3,0.5-4,1.4s-1.5,2.2-1.5,3.8c0,1.7,0.5,3,1.6,4c1,1,2.5,1.5,4.4,1.5h0.2V94.5z M218.2,105.2h0.2
			c1.9,0,3.3-0.5,4.4-1.5s1.6-2.3,1.6-4c0-1.6-0.5-2.8-1.5-3.8c-1-1-2.3-1.4-4-1.4h-0.7V105.2z"/>
		<path fill="#629FAE" d="M236,112.9V87.6h5.4v25.3H236z"/>
		<path fill="#629FAE" d="M269.6,108.6h3.8v11.6h-5.2v-7.4h-18.6V87.6h5.4v20.8h9.3V87.6h5.3V108.6z"/>
		<path fill="#629FAE" d="M279,112.9V87.6h5.4v25.3H279z"/>
		<path fill="#629FAE" d="M292.5,87.6h4.8v12.2l-0.1,3.3l-0.2,3.7h0.1l11.7-19.2h6.4v25.3h-4.8v-12.2c0-1.6,0.1-4,0.3-7.2h-0.1
			l-11.7,19.4h-6.5V87.6z M312.3,79.4c-0.2,2.2-1,3.7-2.4,4.7c-1.4,1-3.4,1.5-6.1,1.5c-2.7,0-4.8-0.5-6.1-1.4s-2-2.5-2.2-4.8h4.7
			c0.1,1.2,0.4,2,0.9,2.5c0.5,0.5,1.4,0.7,2.8,0.7c1.2,0,2-0.3,2.6-0.8c0.6-0.5,0.9-1.3,1-2.4H312.3z"/>
		<path fill="#629FAE" d="M344.2,112.9h-5.3V102h-10v10.9h-5.4V87.6h5.4v9.9h10v-9.9h5.3V112.9z"/>
		<path fill="#629FAE" d="M352.3,87.6h4.8v12.2l-0.1,3.3l-0.2,3.7h0.1l11.7-19.2h6.4v25.3h-4.8v-12.2c0-1.6,0.1-4,0.3-7.2h-0.1
			l-11.7,19.4h-6.5V87.6z"/>
		<path fill="#629FAE" d="M383.3,87.6h4.8v12.2l-0.1,3.3l-0.2,3.7h0.1l11.7-19.2h6.4v25.3h-4.8v-12.2c0-1.6,0.1-4,0.3-7.2h-0.1
			l-11.7,19.4h-6.5V87.6z M403.1,79.4c-0.2,2.2-1,3.7-2.4,4.7c-1.4,1-3.4,1.5-6.1,1.5c-2.7,0-4.8-0.5-6.1-1.4s-2-2.5-2.2-4.8h4.7
			c0.1,1.2,0.4,2,0.9,2.5c0.5,0.5,1.4,0.7,2.8,0.7c1.2,0,2-0.3,2.6-0.8c0.6-0.5,0.9-1.3,1-2.4H403.1z"/>
		<path fill="#629FAE" d="M193.8,161h-5.3v-20.8h-9.3V161h-5.4v-25.3h20V161z"/>
		<path fill="#629FAE" d="M224.9,148.3c0,4.2-1,7.4-3.1,9.7c-2.1,2.3-5.1,3.4-8.9,3.4c-3.9,0-6.9-1.1-8.9-3.4
			c-2.1-2.3-3.1-5.5-3.1-9.7c0-4.2,1-7.4,3.1-9.6c2.1-2.2,5.1-3.3,9-3.3s6.9,1.1,8.9,3.4C223.9,140.9,224.9,144.1,224.9,148.3z
			 M206.5,148.3c0,2.8,0.5,5,1.6,6.4c1.1,1.4,2.7,2.1,4.8,2.1c4.3,0,6.4-2.8,6.4-8.5c0-5.7-2.1-8.6-6.4-8.6c-2.1,0-3.7,0.7-4.8,2.2
			C207,143.4,206.5,145.5,206.5,148.3z"/>
		<path fill="#629FAE" d="M249.4,143.6c0,2.7-0.9,4.8-2.6,6.2s-4.1,2.2-7.3,2.2h-2.3v9H232v-25.3h8.1c3.1,0,5.4,0.7,7,2
			S249.4,141,249.4,143.6z M237.3,147.6h1.8c1.6,0,2.9-0.3,3.7-1s1.2-1.6,1.2-2.8c0-1.3-0.3-2.2-1-2.8c-0.7-0.6-1.8-0.9-3.2-0.9
			h-2.4V147.6z"/>
		<path fill="#629FAE" d="M265.7,161h-5.4v-20.8h-6.9v-4.5h19.1v4.5h-6.9V161z"/>
		<path fill="#629FAE" d="M293.8,161l-1.8-6h-9.2l-1.8,6h-5.8l8.9-25.4h6.6l9,25.4H293.8z M290.7,150.5c-1.7-5.5-2.7-8.5-2.9-9.3
			c-0.2-0.7-0.4-1.3-0.5-1.7c-0.4,1.5-1.5,5.1-3.3,11H290.7z"/>
		<path fill="#629FAE" d="M324.5,161h-5.3v-20.8H313l-0.3,2.3c-0.7,5.9-1.3,10-1.9,12.4s-1.3,4.1-2.4,5s-2.5,1.4-4.3,1.4
			c-1,0-1.8-0.1-2.6-0.4v-4.4c0.7,0.2,1.3,0.3,1.9,0.3c0.6,0,1.1-0.3,1.5-0.8c0.4-0.6,0.7-1.6,1-3.1s0.7-4,1.3-7.5s1-6.7,1.3-9.8h16
			V161z"/>
		<path fill="#629FAE" d="M364.3,161h-6.1l-9.2-12.8V161h-5.4v-25.3h5.4v12.3l9.1-12.3h5.7l-9.2,12.2L364.3,161z"/>
		<path fill="#629FAE" d="M369.3,135.7h4.8v12.2l-0.1,3.3l-0.2,3.7h0.1l11.7-19.2h6.4V161h-4.8v-12.2c0-1.6,0.1-4,0.3-7.2h-0.1
			L375.7,161h-6.5V135.7z"/>
		<path fill="#629FAE" d="M411.6,139.8c-2,0-3.6,0.6-4.8,1.7c-1.2,1.1-1.9,2.6-2.1,4.6h11v4.4h-11c0.1,2.1,0.8,3.6,2,4.8
			c1.2,1.1,2.8,1.7,5,1.7c2,0,4.4-0.4,7.2-1.3v4.5c-1.2,0.5-2.4,0.8-3.6,1c-1.2,0.2-2.5,0.3-3.9,0.3c-4,0-7-1.1-9.1-3.3
			s-3.2-5.4-3.2-9.6c0-2.6,0.5-4.9,1.5-6.9c1-2,2.5-3.5,4.4-4.6c1.9-1.1,4.2-1.6,6.8-1.6c1.5,0,2.9,0.2,4.2,0.5s2.5,0.8,3.8,1.3
			l-1.9,4.4l-1.5-0.6C414.7,140.1,413.2,139.8,411.6,139.8z"/>
		<path fill="#629FAE" d="M426,135.7h7.9c3.6,0,6.2,0.5,7.8,1.5c1.6,1,2.4,2.6,2.4,4.9c0,1.5-0.4,2.8-1.1,3.7
			c-0.7,1-1.7,1.6-2.8,1.7v0.2c1.6,0.4,2.8,1,3.5,2s1.1,2.3,1.1,3.9c0,2.3-0.8,4.1-2.5,5.4c-1.7,1.3-3.9,1.9-6.8,1.9H426V135.7z
			 M431.4,145.7h3.1c1.5,0,2.5-0.2,3.2-0.7c0.7-0.4,1-1.2,1-2.2c0-1-0.4-1.7-1.1-2.1c-0.7-0.4-1.8-0.6-3.4-0.6h-2.8V145.7z
			 M431.4,150v6.6h3.5c1.5,0,2.6-0.3,3.3-0.8c0.7-0.6,1.1-1.4,1.1-2.6c0-2.1-1.5-3.1-4.5-3.1H431.4z"/>
		<path fill="#629FAE" d="M467.1,161l-1.8-6H456l-1.8,6h-5.8l8.9-25.4h6.6l9,25.4H467.1z M464,150.5c-1.7-5.5-2.7-8.5-2.9-9.3
			c-0.2-0.7-0.4-1.3-0.5-1.7c-0.4,1.5-1.5,5.1-3.3,11H464z"/>
	</g>
</g>
</svg>
