<?xml version="1.0" encoding="utf-8"?>
<!-- Generator: Adobe Illustrator 18.0.0, SVG Export Plug-In . SVG Version: 6.00 Build 0)  -->
<!DOCTYPE svg PUBLIC "-//W3C//DTD SVG 1.1//EN" "http://www.w3.org/Graphics/SVG/1.1/DTD/svg11.dtd">
<svg version="1.1" id="Слой_1" xmlns="http://www.w3.org/2000/svg" xmlns:xlink="http://www.w3.org/1999/xlink" x="0px" y="0px"
	 viewBox="0 0 595.3 841.9" style="enable-background:new 0 0 595.3 841.9;" xml:space="preserve">
<style type="text/css">
	.st0{fill:#323232;}
	.st1{fill:#33A5B0;}
</style>
<g>
	<g>
		<path class="st0" d="M170.1,467.3h108.2V390H170.1V467.3z M185.5,451.9v-15.5h77.3v15.5H185.5z M262.9,405.5v15.5h-77.3v-15.5
			H262.9z"/>
		<path class="st0" d="M170.1,498.3V591h108.2v-92.8H170.1z M216.5,513.7v23.2h-30.9v-23.2H216.5z M185.5,552.4h30.9v23.2h-30.9
			V552.4z M231.9,575.6v-23.2h30.9v23.2H231.9z M262.9,536.9h-30.9v-23.2h30.9V536.9z"/>
		<path class="st0" d="M317,467.3h108.2V390H317V467.3z M332.4,451.9v-15.5h77.3v15.5H332.4z M409.7,405.5v15.5h-77.3v-15.5H409.7z"
			/>
		<path class="st0" d="M525.7,564.7c-4.6,0-7.7,3.9-7.7,7.7v10.8h-7.7v-10.8c0-4.6-3.1-7.7-7.7-7.7c-4.6,0-7.7,3.9-7.7,7.7v10.8H487
			V420.2c7.7,1.5,7.7,3.1,12.4,3.1c8.5,0,17-3.1,23.2-10.1c6.2-6.2,9.3-15.5,8.5-24c-0.8-8.5-5.4-17-12.4-22.4L296.9,189l-220.3,177
			c-7,5.4-11.6,13.9-12.4,22.4s1.5,17.8,7.7,24c9.3,10.1,20.1,13.1,35.6,7v163.9h-7.7v-11.6c0-4.6-3.1-7.7-7.7-7.7s-7.7,3.9-7.7,7.7
			v11.6h-7.7v-10.8c0-4.6-3.1-7.7-7.7-7.7s-7.7,3.9-7.7,7.7v71.1c0,4.6,3.1,7.7,7.7,7.7s7.7-3.9,7.7-7.7v-6.2h7.7v7
			c0,4.6,3.1,7.7,7.7,7.7s7.7-3.9,7.7-7.7v-7h7.7v15.5h378.8v-15.5h7.7v7c0,4.6,3.1,7.7,7.7,7.7c4.6,0,7.7-3.9,7.7-7.7v-7h7.7v7
			c0,4.6,3.1,7.7,7.7,7.7c4.6,0,7.7-3.9,7.7-7.7v-71.1C533.4,568.6,530.3,564.7,525.7,564.7L525.7,564.7z M84.3,401.6
			c-3.1-3.1-4.6-7.7-3.9-12.4s2.3-8.5,6.2-11.6l211.1-167.8l211.8,169.3c3.9,3.1,5.4,7,6.2,11.6c0,4.6-0.8,8.5-3.9,12.4
			c-5.4,6.2-14.7,7-21.6,1.5l-3.9-3.1L297.6,254L112.1,399.3l0,0l-6.2,4.6C99,408.6,89.7,407.8,84.3,401.6L84.3,401.6z M77.3,621.9
			v-23.2H85v23.2H77.3z M100.5,621.9v-23.2h7.7v23.2H100.5z M332.4,637.4v-116h77.3v116H332.4z M471.6,637.4h-46.4V498.3H317v139.2
			H123.7V410.9L297.6,271l173.9,139.2V637.4z M487,621.9v-23.2h7.7v23.2H487z M510.2,621.9v-23.2h7.7v23.2H510.2z"/>
	</g>
	<rect x="317" y="498.3" class="st1" width="108.2" height="154.6"/>
</g>
</svg>
