<?xml version="1.0" encoding="utf-8"?>
<!-- Generator: Adobe Illustrator 19.2.1, SVG Export Plug-In . SVG Version: 6.00 Build 0)  -->
<svg version="1.1" id="Слой_1" xmlns="http://www.w3.org/2000/svg" xmlns:xlink="http://www.w3.org/1999/xlink" x="0px" y="0px"
	 viewBox="0 0 595.3 841.9" style="enable-background:new 0 0 595.3 841.9;" xml:space="preserve">
<style type="text/css">
	.st0{fill:#323232;}
	.st1{fill:#33A5B0;}
</style>
<g>
	<g>
		<path class="st0" d="M139.8,480.8h135.6v-96.9H139.8V480.8z M159.1,461.5v-19.4H256v19.4H159.1z M256.1,403.4v19.4h-96.9v-19.4
			H256.1z"/>
		<path class="st0" d="M139.8,519.7v116.2h135.6V519.6H139.8V519.7z M197.9,539v29.1h-38.7V539H197.9z M159.1,587.5h38.7v29.1h-38.7
			V587.5z M217.2,616.6v-29.1H256v29.1H217.2z M256.1,568.1h-38.7V539h38.7V568.1z"/>
		<path class="st0" d="M323.9,480.8h135.6v-96.9H323.9V480.8z M343.2,461.5v-19.4h96.9v19.4H343.2z M440.1,403.4v19.4h-96.9v-19.4
			H440.1z"/>
		<path class="st0" d="M585.5,602.9c-5.8,0-9.7,4.9-9.7,9.7v13.5h-9.7v-13.5c0-5.8-3.9-9.7-9.7-9.7c-5.8,0-9.7,4.9-9.7,9.7v13.5H537
			V421.8c9.7,1.9,9.7,3.9,15.5,3.9c10.7,0,21.3-3.9,29.1-12.7c7.8-7.8,11.7-19.4,10.7-30.1c-1-10.7-6.8-21.3-15.5-28.1L298.7,132
			L22.6,353.9C13.8,360.6,8,371.3,7,381.9c-1,10.7,1.9,22.3,9.7,30.1c11.7,12.7,25.2,16.4,44.6,8.8v205.4h-9.7v-14.5
			c0-5.8-3.9-9.7-9.7-9.7s-9.7,4.9-9.7,9.7v14.5h-9.7v-13.5c0-5.8-3.9-9.7-9.7-9.7s-9.7,4.9-9.7,9.7v89.1c0,5.8,3.9,9.7,9.7,9.7
			s9.7-4.9,9.7-9.7V694h9.7v8.8c0,5.8,3.9,9.7,9.7,9.7s9.7-4.9,9.7-9.7V694h9.7v19.4h474.8V694h9.7v8.8c0,5.8,3.9,9.7,9.7,9.7
			c5.8,0,9.7-4.9,9.7-9.7V694h9.7v8.8c0,5.8,3.9,9.7,9.7,9.7c5.8,0,9.7-4.9,9.7-9.7v-89.1C595.1,607.8,591.3,602.9,585.5,602.9
			L585.5,602.9z M32.2,398.5c-3.9-3.9-5.8-9.7-4.9-15.5c0.9-5.9,2.9-10.7,7.8-14.5l264.6-210.3l265.5,212.2
			c4.9,3.9,6.8,8.8,7.8,14.5c0,5.8-1,10.7-4.9,15.5c-6.8,7.8-18.4,8.8-27.1,1.9l-4.9-3.9L299.6,213.5L67.1,395.6l0,0l-7.8,5.8
			C50.6,407.3,39,406.3,32.2,398.5L32.2,398.5z M23.4,674.6v-29.1h9.7v29.1H23.4z M52.5,674.6v-29.1h9.7v29.1H52.5z M343.2,694
			V548.6h96.9V694H343.2z M517.7,694h-58.2V519.7H323.9v174.5H81.6v-284l218-175.4l218,174.5V694H517.7z M537,674.6v-29.1h9.7v29.1
			H537z M566.1,674.6v-29.1h9.7v29.1H566.1z"/>
	</g>
	<rect x="323.9" y="519.7" class="st1" width="135.6" height="193.8"/>
</g>
</svg>
