<?xml version="1.0" encoding="iso-8859-1"?>
<!-- Generator: Adobe Illustrator 18.0.0, SVG Export Plug-In . SVG Version: 6.00 Build 0)  -->
<!DOCTYPE svg PUBLIC "-//W3C//DTD SVG 1.1//EN" "http://www.w3.org/Graphics/SVG/1.1/DTD/svg11.dtd">
<svg version="1.1" id="Layer_1" xmlns="http://www.w3.org/2000/svg" xmlns:xlink="http://www.w3.org/1999/xlink" x="0px" y="0px"
	 viewBox="-49 141 512 512" style="enable-background:new -49 141 512 512;" xml:space="preserve">
<g transform="translate(1 1)">
	<path style="fill:#323232;" d="M351.067,536.8c-46.933,0-85.333-38.4-85.333-85.333s38.4-85.333,85.333-85.333
		s85.333,38.4,85.333,85.333S398,536.8,351.067,536.8z M351.067,383.2c-37.547,0-68.267,30.72-68.267,68.267
		s30.72,68.267,68.267,68.267s68.267-30.72,68.267-68.267S388.613,383.2,351.067,383.2z"/>
	<path style="fill:#323232;" d="M351.067,502.667c-5.12,0-8.533-3.413-8.533-8.533s3.413-8.533,8.533-8.533
		c18.773,0,34.133-15.36,34.133-34.133c0-5.12,3.413-8.533,8.533-8.533c5.12,0,8.533,3.413,8.533,8.533
		C402.267,479.627,379.227,502.667,351.067,502.667z"/>
	<path style="fill:#323232;" d="M308.4,460c-5.12,0-8.533-3.413-8.533-8.533c0-28.16,23.04-51.2,51.2-51.2
		c5.12,0,8.533,3.413,8.533,8.533c0,5.12-3.413,8.533-8.533,8.533c-18.773,0-34.133,15.36-34.133,34.133
		C316.933,456.587,313.52,460,308.4,460z"/>
	<path style="fill:#323232;" d="M316.08,528.267H26.8c-5.12,0-8.533-3.413-8.533-8.533c0-14.507-11.093-25.6-25.6-25.6
		c-5.12,0-8.533-3.413-8.533-8.533V246.667c0-5.12,3.413-8.533,8.533-8.533c14.507,0,25.6-11.093,25.6-25.6
		c0-5.12,3.413-8.533,8.533-8.533h358.4c5.12,0,8.533,3.413,8.533,8.533c0,14.507,11.093,25.6,25.6,25.6
		c5.12,0,8.533,3.413,8.533,8.533V416.48c0,4.267-2.56,7.68-6.827,8.533c-3.413,0.853-7.68-0.853-9.387-4.267
		c-11.947-23.04-34.987-37.547-60.587-37.547c-37.547,0-68.267,30.72-68.267,68.267c0,25.6,14.507,48.64,36.693,60.587
		c3.413,1.707,5.12,5.973,4.267,9.387C323.76,525.707,320.347,528.267,316.08,528.267z M34.48,511.2h256
		c-15.36-15.36-24.747-36.693-24.747-59.733c0-46.933,38.4-85.333,85.333-85.333c23.04,0,44.373,9.387,59.733,24.747V254.347
		c-17.067-3.413-29.867-16.213-33.28-33.28H34.48c-3.413,17.067-16.213,29.867-33.28,33.28V477.92
		C18.267,481.333,31.067,494.133,34.48,511.2z"/>
	<path style="fill:#323232;" d="M385.2,622.133c-2.56,0-4.267-0.853-5.973-2.56l-28.16-28.16l-28.16,28.16
		c-2.56,2.56-5.973,3.413-9.387,1.707c-3.413-0.853-5.12-4.267-5.12-7.68v-93.013c0-2.56,1.707-5.973,4.267-7.68
		c2.56-1.707,5.973-1.707,8.533,0c18.773,9.387,41.813,9.387,60.587,0c2.56-1.707,5.973-0.853,8.533,0
		c2.56,1.707,4.267,4.267,4.267,7.68V613.6c0,3.413-1.707,6.827-5.12,7.68C387.76,622.133,386.053,622.133,385.2,622.133z
		 M351.067,570.933c2.56,0,4.267,0.853,5.973,2.56l19.627,19.627v-59.733c-16.213,5.12-34.987,5.12-51.2,0v59.733l19.627-19.627
		C346.8,571.787,348.507,570.933,351.067,570.933z"/>
	<path style="fill:#323232;" d="M453.467,562.4H385.2c-5.12,0-8.533-3.413-8.533-8.533v-21.333c-16.213,5.12-34.987,5.12-51.2,0
		v21.333c0,5.12-3.413,8.533-8.533,8.533h-358.4c-5.12,0-8.533-3.413-8.533-8.533V178.4c0-5.12,3.413-8.533,8.533-8.533h494.933
		c5.12,0,8.533,3.413,8.533,8.533v375.467C462,558.987,458.587,562.4,453.467,562.4z M393.733,545.333h51.2v-358.4H-32.933v358.4
		H308.4v-24.747c0-2.56,1.707-5.973,4.267-7.68c2.56-1.707,5.973-1.707,8.533,0c18.773,9.387,41.813,9.387,60.587,0
		c2.56-1.707,5.973-0.853,8.533,0c2.56,1.707,4.267,4.267,4.267,7.68v24.747H393.733z"/>
	<path style="fill:#323232;" d="M257.2,272.267H154.8c-5.12,0-8.533-3.413-8.533-8.533c0-5.12,3.413-8.533,8.533-8.533h102.4
		c5.12,0,8.533,3.413,8.533,8.533C265.733,268.853,262.32,272.267,257.2,272.267z"/>
	<path style="fill:#323232;" d="M342.533,314.933H69.467c-5.12,0-8.533-3.413-8.533-8.533s3.413-8.533,8.533-8.533h273.067
		c5.12,0,8.533,3.413,8.533,8.533S347.653,314.933,342.533,314.933z"/>
	<path style="fill:#323232;" d="M342.533,357.6H69.467c-5.12,0-8.533-3.413-8.533-8.533c0-5.12,3.413-8.533,8.533-8.533h273.067
		c5.12,0,8.533,3.413,8.533,8.533C351.067,354.187,347.653,357.6,342.533,357.6z"/>
	<path style="fill:#323232;" d="M240.133,400.267H120.667c-5.12,0-8.533-3.413-8.533-8.533s3.413-8.533,8.533-8.533h119.467
		c5.12,0,8.533,3.413,8.533,8.533S245.253,400.267,240.133,400.267z"/>
	<path style="fill:#323232;" d="M86.533,400.267H69.467c-5.12,0-8.533-3.413-8.533-8.533s3.413-8.533,8.533-8.533h17.067
		c5.12,0,8.533,3.413,8.533,8.533S91.653,400.267,86.533,400.267z"/>
	<path style="fill:#323232;" d="M137.733,442.933H69.467c-5.12,0-8.533-3.413-8.533-8.533s3.413-8.533,8.533-8.533h68.267
		c5.12,0,8.533,3.413,8.533,8.533S142.853,442.933,137.733,442.933z"/>
	<path style="fill:#323232;" d="M240.133,442.933h-68.267c-5.12,0-8.533-3.413-8.533-8.533s3.413-8.533,8.533-8.533h68.267
		c5.12,0,8.533,3.413,8.533,8.533S245.253,442.933,240.133,442.933z"/>
</g>
<circle style="fill:#36A5B1;" cx="352" cy="454" r="55"/>
</svg>
